%TF.GenerationSoftware,KiCad,Pcbnew,(6.0.7-1)-1*%
%TF.CreationDate,2023-02-20T21:14:53+08:00*%
%TF.ProjectId,layer5,6c617965-7235-42e6-9b69-6361645f7063,1.1*%
%TF.SameCoordinates,Original*%
%TF.FileFunction,Soldermask,Top*%
%TF.FilePolarity,Negative*%
%FSLAX46Y46*%
G04 Gerber Fmt 4.6, Leading zero omitted, Abs format (unit mm)*
G04 Created by KiCad (PCBNEW (6.0.7-1)-1) date 2023-02-20 21:14:53*
%MOMM*%
%LPD*%
G01*
G04 APERTURE LIST*
G04 Aperture macros list*
%AMRoundRect*
0 Rectangle with rounded corners*
0 $1 Rounding radius*
0 $2 $3 $4 $5 $6 $7 $8 $9 X,Y pos of 4 corners*
0 Add a 4 corners polygon primitive as box body*
4,1,4,$2,$3,$4,$5,$6,$7,$8,$9,$2,$3,0*
0 Add four circle primitives for the rounded corners*
1,1,$1+$1,$2,$3*
1,1,$1+$1,$4,$5*
1,1,$1+$1,$6,$7*
1,1,$1+$1,$8,$9*
0 Add four rect primitives between the rounded corners*
20,1,$1+$1,$2,$3,$4,$5,0*
20,1,$1+$1,$4,$5,$6,$7,0*
20,1,$1+$1,$6,$7,$8,$9,0*
20,1,$1+$1,$8,$9,$2,$3,0*%
%AMRotRect*
0 Rectangle, with rotation*
0 The origin of the aperture is its center*
0 $1 length*
0 $2 width*
0 $3 Rotation angle, in degrees counterclockwise*
0 Add horizontal line*
21,1,$1,$2,0,0,$3*%
G04 Aperture macros list end*
%ADD10RoundRect,0.225000X-0.282038X-0.183247X0.152629X-0.299716X0.282038X0.183247X-0.152629X0.299716X0*%
%ADD11RoundRect,0.225000X-0.069856X-0.329006X0.319856X-0.104006X0.069856X0.329006X-0.319856X0.104006X0*%
%ADD12R,1.500000X1.000000*%
%ADD13RoundRect,0.225000X-0.225000X-0.250000X0.225000X-0.250000X0.225000X0.250000X-0.225000X0.250000X0*%
%ADD14RoundRect,0.225000X0.299716X-0.152629X0.183247X0.282038X-0.299716X0.152629X-0.183247X-0.282038X0*%
%ADD15RotRect,1.500000X1.000000X120.000000*%
%ADD16RoundRect,0.225000X0.104006X-0.319856X0.329006X0.069856X-0.104006X0.319856X-0.329006X-0.069856X0*%
%ADD17RotRect,1.500000X1.000000X15.000000*%
%ADD18RoundRect,0.225000X-0.335876X-0.017678X-0.017678X-0.335876X0.335876X0.017678X0.017678X0.335876X0*%
%ADD19RoundRect,0.225000X0.250000X-0.225000X0.250000X0.225000X-0.250000X0.225000X-0.250000X-0.225000X0*%
%ADD20RoundRect,0.225000X-0.152629X-0.299716X0.282038X-0.183247X0.152629X0.299716X-0.282038X0.183247X0*%
%ADD21RotRect,1.500000X1.000000X165.000000*%
%ADD22RoundRect,0.225000X-0.017678X0.335876X-0.335876X0.017678X0.017678X-0.335876X0.335876X-0.017678X0*%
%ADD23RoundRect,0.225000X0.282038X0.183247X-0.152629X0.299716X-0.282038X-0.183247X0.152629X-0.299716X0*%
%ADD24RotRect,1.500000X1.000000X195.000000*%
%ADD25RoundRect,0.225000X0.183247X-0.282038X0.299716X0.152629X-0.183247X0.282038X-0.299716X-0.152629X0*%
%ADD26RotRect,1.500000X1.000000X45.000000*%
%ADD27RotRect,1.500000X1.000000X60.000000*%
%ADD28RotRect,1.500000X1.000000X315.000000*%
%ADD29RoundRect,0.225000X-0.250000X0.225000X-0.250000X-0.225000X0.250000X-0.225000X0.250000X0.225000X0*%
%ADD30RotRect,1.500000X1.000000X255.000000*%
%ADD31RotRect,1.500000X1.000000X345.000000*%
%ADD32RoundRect,0.225000X-0.329006X0.069856X-0.104006X-0.319856X0.329006X-0.069856X0.104006X0.319856X0*%
%ADD33RoundRect,0.225000X0.319856X0.104006X-0.069856X0.329006X-0.319856X-0.104006X0.069856X-0.329006X0*%
%ADD34RoundRect,0.225000X0.017678X-0.335876X0.335876X-0.017678X-0.017678X0.335876X-0.335876X0.017678X0*%
%ADD35RoundRect,0.225000X0.335876X0.017678X0.017678X0.335876X-0.335876X-0.017678X-0.017678X-0.335876X0*%
%ADD36RotRect,1.500000X1.000000X135.000000*%
%ADD37RoundRect,0.225000X-0.183247X0.282038X-0.299716X-0.152629X0.183247X-0.282038X0.299716X0.152629X0*%
%ADD38RoundRect,0.225000X0.225000X0.250000X-0.225000X0.250000X-0.225000X-0.250000X0.225000X-0.250000X0*%
%ADD39RotRect,1.500000X1.000000X240.000000*%
%ADD40RotRect,1.500000X1.000000X150.000000*%
%ADD41RoundRect,0.225000X-0.104006X0.319856X-0.329006X-0.069856X0.104006X-0.319856X0.329006X0.069856X0*%
%ADD42RotRect,1.500000X1.000000X300.000000*%
%ADD43RoundRect,0.225000X-0.299716X0.152629X-0.183247X-0.282038X0.299716X-0.152629X0.183247X0.282038X0*%
%ADD44RoundRect,0.225000X0.152629X0.299716X-0.282038X0.183247X-0.152629X-0.299716X0.282038X-0.183247X0*%
%ADD45R,1.000000X1.500000*%
%ADD46RoundRect,0.225000X0.329006X-0.069856X0.104006X0.319856X-0.329006X0.069856X-0.104006X-0.319856X0*%
%ADD47RoundRect,0.225000X0.069856X0.329006X-0.319856X0.104006X-0.069856X-0.329006X0.319856X-0.104006X0*%
%ADD48RotRect,1.500000X1.000000X285.000000*%
%ADD49RotRect,1.500000X1.000000X330.000000*%
%ADD50RotRect,1.500000X1.000000X30.000000*%
%ADD51RotRect,1.500000X1.000000X210.000000*%
%ADD52RotRect,1.500000X1.000000X225.000000*%
%ADD53RotRect,1.500000X1.000000X105.000000*%
%ADD54RoundRect,0.150000X-0.150000X-0.625000X0.150000X-0.625000X0.150000X0.625000X-0.150000X0.625000X0*%
%ADD55RoundRect,0.250000X-0.350000X-0.650000X0.350000X-0.650000X0.350000X0.650000X-0.350000X0.650000X0*%
%ADD56RotRect,1.500000X1.000000X75.000000*%
%ADD57RoundRect,0.225000X-0.319856X-0.104006X0.069856X-0.329006X0.319856X0.104006X-0.069856X0.329006X0*%
G04 APERTURE END LIST*
D10*
X118827712Y-74060159D03*
X120324898Y-74461329D03*
D11*
X90828830Y-78344560D03*
X92171170Y-77569560D03*
D12*
X64216000Y-108400000D03*
X64216000Y-111600000D03*
X69116000Y-111600000D03*
X69116000Y-108400000D03*
D13*
X109225000Y-73000000D03*
X110775000Y-73000000D03*
D14*
X74461329Y-120324898D03*
X74060159Y-118827712D03*
D15*
X131506359Y-150450107D03*
X134277641Y-148850107D03*
X131827641Y-144606583D03*
X129056359Y-146206583D03*
D16*
X77569560Y-92171170D03*
X78344560Y-90828830D03*
D17*
X65361941Y-120304290D03*
X66190162Y-123395253D03*
X70923199Y-122127040D03*
X70094978Y-119036077D03*
D18*
X135614943Y-83289041D03*
X136710959Y-84385057D03*
D19*
X73000000Y-110775000D03*
X73000000Y-109225000D03*
D20*
X99675102Y-74461329D03*
X101172288Y-74060159D03*
D21*
X153809838Y-123395253D03*
X154638059Y-120304290D03*
X149905022Y-119036077D03*
X149076801Y-122127040D03*
D22*
X136710959Y-135614943D03*
X135614943Y-136710959D03*
D23*
X101172288Y-145939841D03*
X99675102Y-145538671D03*
D24*
X154638059Y-99695710D03*
X153809838Y-96604747D03*
X149076801Y-97872960D03*
X149905022Y-100963923D03*
D25*
X74060159Y-101172288D03*
X74461329Y-99675102D03*
D26*
X76494453Y-141242806D03*
X78757194Y-143505547D03*
X82222017Y-140040724D03*
X79959276Y-137777983D03*
D27*
X85722359Y-148850107D03*
X88493641Y-150450107D03*
X90943641Y-146206583D03*
X88172359Y-144606583D03*
D28*
X78757194Y-76494453D03*
X76494453Y-78757194D03*
X79959276Y-82222017D03*
X82222017Y-79959276D03*
D29*
X147000000Y-109225000D03*
X147000000Y-110775000D03*
D30*
X123395253Y-66190162D03*
X120304290Y-65361941D03*
X119036077Y-70094978D03*
X122127040Y-70923199D03*
D31*
X66190162Y-96604747D03*
X65361941Y-99695710D03*
X70094978Y-100963923D03*
X70923199Y-97872960D03*
D32*
X141655440Y-90828830D03*
X142430440Y-92171170D03*
D33*
X92171170Y-142430440D03*
X90828830Y-141655440D03*
D34*
X83289041Y-84385057D03*
X84385057Y-83289041D03*
D35*
X84385057Y-136710959D03*
X83289041Y-135614943D03*
D36*
X141242806Y-143505547D03*
X143505547Y-141242806D03*
X140040724Y-137777983D03*
X137777983Y-140040724D03*
D12*
X155784000Y-111600000D03*
X155784000Y-108400000D03*
X150884000Y-108400000D03*
X150884000Y-111600000D03*
D37*
X145939841Y-118827712D03*
X145538671Y-120324898D03*
D38*
X110775000Y-147000000D03*
X109225000Y-147000000D03*
D39*
X134277641Y-71149893D03*
X131506359Y-69549893D03*
X129056359Y-73793417D03*
X131827641Y-75393417D03*
D40*
X148850107Y-134277641D03*
X150450107Y-131506359D03*
X146206583Y-129056359D03*
X144606583Y-131827641D03*
D41*
X142430440Y-127828830D03*
X141655440Y-129171170D03*
D42*
X88493641Y-69549893D03*
X85722359Y-71149893D03*
X88172359Y-75393417D03*
X90943641Y-73793417D03*
D43*
X145538671Y-99675102D03*
X145939841Y-101172288D03*
D44*
X120324898Y-145538671D03*
X118827712Y-145939841D03*
D45*
X111600000Y-64216000D03*
X108400000Y-64216000D03*
X108400000Y-69116000D03*
X111600000Y-69116000D03*
D46*
X78344560Y-129171170D03*
X77569560Y-127828830D03*
D47*
X129171170Y-141655440D03*
X127828830Y-142430440D03*
D48*
X99695710Y-65361941D03*
X96604747Y-66190162D03*
X97872960Y-70923199D03*
X100963923Y-70094978D03*
D49*
X71149893Y-85722359D03*
X69549893Y-88493641D03*
X73793417Y-90943641D03*
X75393417Y-88172359D03*
D50*
X69549893Y-131506359D03*
X71149893Y-134277641D03*
X75393417Y-131827641D03*
X73793417Y-129056359D03*
D45*
X108400000Y-155784000D03*
X111600000Y-155784000D03*
X111600000Y-150884000D03*
X108400000Y-150884000D03*
D51*
X150450107Y-88493641D03*
X148850107Y-85722359D03*
X144606583Y-88172359D03*
X146206583Y-90943641D03*
D52*
X143505547Y-78757194D03*
X141242806Y-76494453D03*
X137777983Y-79959276D03*
X140040724Y-82222017D03*
D53*
X120304290Y-154638059D03*
X123395253Y-153809838D03*
X122127040Y-149076801D03*
X119036077Y-149905022D03*
D54*
X136000000Y-157000000D03*
X137000000Y-157000000D03*
X138000000Y-157000000D03*
D55*
X134700000Y-160875000D03*
X139300000Y-160875000D03*
D56*
X96604747Y-153809838D03*
X99695710Y-154638059D03*
X100963923Y-149905022D03*
X97872960Y-149076801D03*
D57*
X127828830Y-77569560D03*
X129171170Y-78344560D03*
M02*
