M48
; DRILL file {KiCad (6.0.7-1)-1} date 2023 February 20, Monday 21:14:56
; FORMAT={-:-/ absolute / metric / decimal}
; #@! TF.CreationDate,2023-02-20T21:14:56+08:00
; #@! TF.GenerationSoftware,Kicad,Pcbnew,(6.0.7-1)-1
; #@! TF.FileFunction,Plated,1,2,PTH
FMAT,2
METRIC
; #@! TA.AperFunction,Plated,PTH,ViaDrill
T1C0.400
%
G90
G05
T1
X69.25Y-113.75
X69.668Y-103.075
X71.609Y-124.169
X72.834Y-92.873
X76.584Y-133.623
X78.534Y-83.837
X83.837Y-141.466
X86.377Y-76.584
X92.873Y-147.166
X95.831Y-71.609
X103.075Y-150.332
X106.25Y-69.25
X113.75Y-150.75
X116.925Y-69.668
X124.169Y-148.391
X127.127Y-72.834
X133.623Y-143.416
X136.163Y-78.534
X137.0Y-155.0
X141.466Y-136.163
X143.416Y-86.377
X147.166Y-127.127
X148.391Y-95.831
X150.332Y-116.925
X150.75Y-106.25
T0
M30
