%TF.GenerationSoftware,KiCad,Pcbnew,(6.0.7-1)-1*%
%TF.CreationDate,2023-02-20T20:57:27+08:00*%
%TF.ProjectId,layer1,6c617965-7231-42e6-9b69-6361645f7063,1.1*%
%TF.SameCoordinates,Original*%
%TF.FileFunction,Soldermask,Top*%
%TF.FilePolarity,Negative*%
%FSLAX46Y46*%
G04 Gerber Fmt 4.6, Leading zero omitted, Abs format (unit mm)*
G04 Created by KiCad (PCBNEW (6.0.7-1)-1) date 2023-02-20 20:57:27*
%MOMM*%
%LPD*%
G01*
G04 APERTURE LIST*
G04 Aperture macros list*
%AMRoundRect*
0 Rectangle with rounded corners*
0 $1 Rounding radius*
0 $2 $3 $4 $5 $6 $7 $8 $9 X,Y pos of 4 corners*
0 Add a 4 corners polygon primitive as box body*
4,1,4,$2,$3,$4,$5,$6,$7,$8,$9,$2,$3,0*
0 Add four circle primitives for the rounded corners*
1,1,$1+$1,$2,$3*
1,1,$1+$1,$4,$5*
1,1,$1+$1,$6,$7*
1,1,$1+$1,$8,$9*
0 Add four rect primitives between the rounded corners*
20,1,$1+$1,$2,$3,$4,$5,0*
20,1,$1+$1,$4,$5,$6,$7,0*
20,1,$1+$1,$6,$7,$8,$9,0*
20,1,$1+$1,$8,$9,$2,$3,0*%
G04 Aperture macros list end*
%ADD10RoundRect,0.225000X0.250000X-0.225000X0.250000X0.225000X-0.250000X0.225000X-0.250000X-0.225000X0*%
%ADD11RoundRect,0.200000X-0.275000X0.200000X-0.275000X-0.200000X0.275000X-0.200000X0.275000X0.200000X0*%
%ADD12R,1.905000X2.000000*%
%ADD13O,1.905000X2.000000*%
%ADD14R,1.700000X1.700000*%
%ADD15O,1.700000X1.700000*%
%ADD16RoundRect,0.200000X0.275000X-0.200000X0.275000X0.200000X-0.275000X0.200000X-0.275000X-0.200000X0*%
%ADD17RoundRect,0.200000X0.200000X0.275000X-0.200000X0.275000X-0.200000X-0.275000X0.200000X-0.275000X0*%
%ADD18RoundRect,0.200000X0.200000X0.800000X-0.200000X0.800000X-0.200000X-0.800000X0.200000X-0.800000X0*%
%ADD19R,3.000000X3.000000*%
%ADD20C,3.000000*%
%ADD21RoundRect,0.150000X-0.150000X-0.625000X0.150000X-0.625000X0.150000X0.625000X-0.150000X0.625000X0*%
%ADD22RoundRect,0.250000X-0.350000X-0.650000X0.350000X-0.650000X0.350000X0.650000X-0.350000X0.650000X0*%
%ADD23R,2.400000X2.400000*%
%ADD24O,2.400000X2.400000*%
%ADD25RoundRect,0.225000X-0.250000X0.225000X-0.250000X-0.225000X0.250000X-0.225000X0.250000X0.225000X0*%
%ADD26RoundRect,0.225000X-0.225000X-0.250000X0.225000X-0.250000X0.225000X0.250000X-0.225000X0.250000X0*%
%ADD27RoundRect,0.075000X0.075000X-0.662500X0.075000X0.662500X-0.075000X0.662500X-0.075000X-0.662500X0*%
%ADD28RoundRect,0.075000X0.662500X-0.075000X0.662500X0.075000X-0.662500X0.075000X-0.662500X-0.075000X0*%
%ADD29RoundRect,0.200000X-0.200000X-0.275000X0.200000X-0.275000X0.200000X0.275000X-0.200000X0.275000X0*%
%ADD30R,1.220000X0.650000*%
%ADD31R,2.000000X2.400000*%
%ADD32R,2.200000X2.200000*%
%ADD33O,2.200000X2.200000*%
%ADD34C,2.082800*%
%ADD35C,2.400000*%
%ADD36RoundRect,0.218750X0.256250X-0.218750X0.256250X0.218750X-0.256250X0.218750X-0.256250X-0.218750X0*%
G04 APERTURE END LIST*
D10*
X172000001Y-128775000D03*
X172000001Y-127225000D03*
D11*
X169650001Y-117664800D03*
X169650001Y-119314800D03*
D12*
X38360000Y-101650000D03*
D13*
X40900000Y-101650000D03*
X43440000Y-101650000D03*
D10*
X175650001Y-120189800D03*
X175650001Y-118639800D03*
D14*
X145000000Y-37725000D03*
D15*
X145000000Y-40265000D03*
D10*
X176000001Y-128775000D03*
X176000001Y-127225000D03*
D16*
X179000001Y-119439800D03*
X179000001Y-117789800D03*
D17*
X48675000Y-93050000D03*
X47025000Y-93050000D03*
D18*
X183099999Y-123614799D03*
X178899999Y-123614799D03*
D19*
X49500000Y-106550000D03*
D20*
X49500000Y-101550000D03*
D14*
X75000000Y-37725000D03*
D15*
X75000000Y-40265000D03*
D11*
X183000002Y-112789797D03*
X183000002Y-114439797D03*
D19*
X49500000Y-115250000D03*
D20*
X49500000Y-120250000D03*
D21*
X138750000Y-113825000D03*
X139750000Y-113825000D03*
X140750000Y-113825000D03*
X141750000Y-113825000D03*
X142750000Y-113825000D03*
D22*
X144050000Y-111300000D03*
X137450000Y-111300000D03*
D14*
X27000000Y-92475000D03*
D15*
X27000000Y-95015000D03*
X27000000Y-97555000D03*
D10*
X177000001Y-102389798D03*
X177000001Y-100839798D03*
D23*
X41400000Y-106350000D03*
D24*
X26160000Y-106350000D03*
D25*
X173000002Y-100839799D03*
X173000002Y-102389799D03*
X175000001Y-100839799D03*
X175000001Y-102389799D03*
X177000001Y-97225000D03*
X177000001Y-98775000D03*
D17*
X38825000Y-96150000D03*
X37175000Y-96150000D03*
D26*
X47075000Y-94600000D03*
X48625000Y-94600000D03*
D27*
X171250001Y-115777299D03*
X171750001Y-115777299D03*
X172250001Y-115777299D03*
X172750001Y-115777299D03*
X173250001Y-115777299D03*
X173750001Y-115777299D03*
X174250001Y-115777299D03*
X174750001Y-115777299D03*
X175250001Y-115777299D03*
X175750001Y-115777299D03*
X176250001Y-115777299D03*
X176750001Y-115777299D03*
D28*
X178162501Y-114364799D03*
X178162501Y-113864799D03*
X178162501Y-113364799D03*
X178162501Y-112864799D03*
X178162501Y-112364799D03*
X178162501Y-111864799D03*
X178162501Y-111364799D03*
X178162501Y-110864799D03*
X178162501Y-110364799D03*
X178162501Y-109864799D03*
X178162501Y-109364799D03*
X178162501Y-108864799D03*
D27*
X176750001Y-107452299D03*
X176250001Y-107452299D03*
X175750001Y-107452299D03*
X175250001Y-107452299D03*
X174750001Y-107452299D03*
X174250001Y-107452299D03*
X173750001Y-107452299D03*
X173250001Y-107452299D03*
X172750001Y-107452299D03*
X172250001Y-107452299D03*
X171750001Y-107452299D03*
X171250001Y-107452299D03*
D28*
X169837501Y-108864799D03*
X169837501Y-109364799D03*
X169837501Y-109864799D03*
X169837501Y-110364799D03*
X169837501Y-110864799D03*
X169837501Y-111364799D03*
X169837501Y-111864799D03*
X169837501Y-112364799D03*
X169837501Y-112864799D03*
X169837501Y-113364799D03*
X169837501Y-113864799D03*
X169837501Y-114364799D03*
D29*
X47025000Y-96150000D03*
X48675000Y-96150000D03*
X37175000Y-94600000D03*
X38825000Y-94600000D03*
D30*
X31690000Y-99100000D03*
X31690000Y-101000000D03*
X34310000Y-100050000D03*
D31*
X175850001Y-123614799D03*
X172150001Y-123614799D03*
D32*
X44550000Y-106320000D03*
D33*
X44550000Y-116480000D03*
D25*
X171000002Y-100839797D03*
X171000002Y-102389797D03*
D16*
X183000001Y-129439800D03*
X183000001Y-127789800D03*
D34*
X32282200Y-91000000D03*
X35000000Y-91000000D03*
X37717800Y-91000000D03*
X174282201Y-93364798D03*
X177000001Y-93364798D03*
X179717801Y-93364798D03*
D21*
X185500000Y-95325000D03*
X186500000Y-95325000D03*
X187500000Y-95325000D03*
X188500000Y-95325000D03*
X189500000Y-95325000D03*
X190500000Y-95325000D03*
D22*
X184200000Y-92800000D03*
X191800000Y-92800000D03*
D23*
X36712754Y-117750000D03*
D35*
X29212754Y-117750000D03*
D36*
X183000001Y-118402298D03*
X183000001Y-116827298D03*
M02*
