%TF.GenerationSoftware,KiCad,Pcbnew,(6.0.7-1)-1*%
%TF.CreationDate,2023-02-20T20:57:27+08:00*%
%TF.ProjectId,layer1,6c617965-7231-42e6-9b69-6361645f7063,1.1*%
%TF.SameCoordinates,Original*%
%TF.FileFunction,Soldermask,Bot*%
%TF.FilePolarity,Negative*%
%FSLAX46Y46*%
G04 Gerber Fmt 4.6, Leading zero omitted, Abs format (unit mm)*
G04 Created by KiCad (PCBNEW (6.0.7-1)-1) date 2023-02-20 20:57:27*
%MOMM*%
%LPD*%
G01*
G04 APERTURE LIST*
G04 Aperture macros list*
%AMRoundRect*
0 Rectangle with rounded corners*
0 $1 Rounding radius*
0 $2 $3 $4 $5 $6 $7 $8 $9 X,Y pos of 4 corners*
0 Add a 4 corners polygon primitive as box body*
4,1,4,$2,$3,$4,$5,$6,$7,$8,$9,$2,$3,0*
0 Add four circle primitives for the rounded corners*
1,1,$1+$1,$2,$3*
1,1,$1+$1,$4,$5*
1,1,$1+$1,$6,$7*
1,1,$1+$1,$8,$9*
0 Add four rect primitives between the rounded corners*
20,1,$1+$1,$2,$3,$4,$5,0*
20,1,$1+$1,$4,$5,$6,$7,0*
20,1,$1+$1,$6,$7,$8,$9,0*
20,1,$1+$1,$8,$9,$2,$3,0*%
G04 Aperture macros list end*
%ADD10R,1.905000X2.000000*%
%ADD11O,1.905000X2.000000*%
%ADD12R,1.700000X1.700000*%
%ADD13O,1.700000X1.700000*%
%ADD14R,3.000000X3.000000*%
%ADD15C,3.000000*%
%ADD16R,2.400000X2.400000*%
%ADD17O,2.400000X2.400000*%
%ADD18R,2.200000X2.200000*%
%ADD19O,2.200000X2.200000*%
%ADD20C,2.082800*%
%ADD21C,2.400000*%
%ADD22RoundRect,0.200000X-0.254072X0.225992X-0.293279X-0.172082X0.254072X-0.225992X0.293279X0.172082X0*%
%ADD23RoundRect,0.200000X-0.172082X-0.293279X0.225992X-0.254072X0.172082X0.293279X-0.225992X0.254072X0*%
%ADD24RoundRect,0.200000X-0.225992X-0.254072X0.172082X-0.293279X0.225992X0.254072X-0.172082X0.293279X0*%
%ADD25RoundRect,0.200000X0.200000X0.275000X-0.200000X0.275000X-0.200000X-0.275000X0.200000X-0.275000X0*%
%ADD26RoundRect,0.200000X0.085699X-0.329060X0.339457X-0.019856X-0.085699X0.329060X-0.339457X0.019856X0*%
%ADD27RoundRect,0.250000X0.362392X-0.945755X0.945755X-0.362392X-0.362392X0.945755X-0.945755X0.362392X0*%
%ADD28RoundRect,0.250000X-0.027118X-1.012445X0.735082X-0.696732X0.027118X1.012445X-0.735082X0.696732X0*%
%ADD29RoundRect,0.250000X1.012445X-0.027118X0.696732X0.735082X-1.012445X0.027118X-0.696732X-0.735082X0*%
%ADD30RoundRect,0.250000X0.945755X0.362392X0.362392X0.945755X-0.945755X-0.362392X-0.362392X-0.945755X0*%
%ADD31RoundRect,0.200000X0.321216X-0.111560X0.205102X0.271216X-0.321216X0.111560X-0.205102X-0.271216X0*%
%ADD32RoundRect,0.200000X0.205102X-0.271216X0.321216X0.111560X-0.205102X0.271216X-0.321216X-0.111560X0*%
%ADD33RoundRect,0.200000X0.148249X-0.306018X0.336808X0.046750X-0.148249X0.306018X-0.336808X-0.046750X0*%
%ADD34RoundRect,0.200000X-0.336808X0.046750X-0.148249X-0.306018X0.336808X-0.046750X0.148249X0.306018X0*%
%ADD35RoundRect,0.200000X0.111560X0.321216X-0.271216X0.205102X-0.111560X-0.321216X0.271216X-0.205102X0*%
%ADD36RoundRect,0.200000X-0.085699X0.329060X-0.339457X0.019856X0.085699X-0.329060X0.339457X-0.019856X0*%
%ADD37RoundRect,0.250000X-0.998282X-0.170921X-0.539937X-0.856884X0.998282X0.170921X0.539937X0.856884X0*%
%ADD38RoundRect,0.250000X0.998282X0.170921X0.539937X0.856884X-0.998282X-0.170921X-0.539937X-0.856884X0*%
%ADD39RoundRect,0.200000X-0.329060X-0.085699X-0.019856X-0.339457X0.329060X0.085699X0.019856X0.339457X0*%
%ADD40RoundRect,0.250000X-0.539937X0.856884X-0.998282X0.170921X0.539937X-0.856884X0.998282X-0.170921X0*%
%ADD41R,0.450000X1.750000*%
%ADD42RoundRect,0.200000X0.046750X0.336808X-0.306018X0.148249X-0.046750X-0.336808X0.306018X-0.148249X0*%
%ADD43RoundRect,0.200000X-0.293279X0.172082X-0.254072X-0.225992X0.293279X-0.172082X0.254072X0.225992X0*%
%ADD44RoundRect,0.250000X-0.362392X0.945755X-0.945755X0.362392X0.362392X-0.945755X0.945755X-0.362392X0*%
%ADD45RoundRect,0.225000X0.225000X0.250000X-0.225000X0.250000X-0.225000X-0.250000X0.225000X-0.250000X0*%
%ADD46RoundRect,0.200000X-0.321216X0.111560X-0.205102X-0.271216X0.321216X-0.111560X0.205102X0.271216X0*%
%ADD47RoundRect,0.250000X0.224115X0.987701X-0.585032X0.826752X-0.224115X-0.987701X0.585032X-0.826752X0*%
%ADD48RoundRect,0.200000X-0.271216X-0.205102X0.111560X-0.321216X0.271216X0.205102X-0.111560X0.321216X0*%
%ADD49RoundRect,0.200000X-0.200000X-0.275000X0.200000X-0.275000X0.200000X0.275000X-0.200000X0.275000X0*%
%ADD50RoundRect,0.200000X-0.111560X-0.321216X0.271216X-0.205102X0.111560X0.321216X-0.271216X0.205102X0*%
%ADD51RoundRect,0.200000X-0.046750X-0.336808X0.306018X-0.148249X0.046750X0.336808X-0.306018X0.148249X0*%
%ADD52RoundRect,0.250000X-0.585032X-0.826752X0.224115X-0.987701X0.585032X0.826752X-0.224115X0.987701X0*%
%ADD53RoundRect,0.200000X0.306018X0.148249X-0.046750X0.336808X-0.306018X-0.148249X0.046750X-0.336808X0*%
%ADD54RoundRect,0.250000X-0.987701X0.224115X-0.826752X-0.585032X0.987701X-0.224115X0.826752X0.585032X0*%
%ADD55RoundRect,0.200000X0.293279X-0.172082X0.254072X0.225992X-0.293279X0.172082X-0.254072X-0.225992X0*%
%ADD56RoundRect,0.200000X0.329060X0.085699X0.019856X0.339457X-0.329060X-0.085699X-0.019856X-0.339457X0*%
%ADD57RoundRect,0.250000X-0.696732X0.735082X-1.012445X-0.027118X0.696732X-0.735082X1.012445X0.027118X0*%
%ADD58RoundRect,0.250000X0.585032X0.826752X-0.224115X0.987701X-0.585032X-0.826752X0.224115X-0.987701X0*%
%ADD59RoundRect,0.200000X0.271216X0.205102X-0.111560X0.321216X-0.271216X-0.205102X0.111560X-0.321216X0*%
%ADD60RoundRect,0.200000X-0.148249X0.306018X-0.336808X-0.046750X0.148249X-0.306018X0.336808X0.046750X0*%
%ADD61RoundRect,0.200000X0.339457X0.019856X0.085699X0.329060X-0.339457X-0.019856X-0.085699X-0.329060X0*%
%ADD62RoundRect,0.250000X0.856884X0.539937X0.170921X0.998282X-0.856884X-0.539937X-0.170921X-0.998282X0*%
%ADD63RoundRect,0.250000X0.412500X0.925000X-0.412500X0.925000X-0.412500X-0.925000X0.412500X-0.925000X0*%
%ADD64RoundRect,0.250000X0.027118X1.012445X-0.735082X0.696732X-0.027118X-1.012445X0.735082X-0.696732X0*%
%ADD65RoundRect,0.250000X0.826752X-0.585032X0.987701X0.224115X-0.826752X0.585032X-0.987701X-0.224115X0*%
%ADD66RoundRect,0.200000X0.336808X-0.046750X0.148249X0.306018X-0.336808X0.046750X-0.148249X-0.306018X0*%
%ADD67RoundRect,0.250000X0.987701X-0.224115X0.826752X0.585032X-0.987701X0.224115X-0.826752X-0.585032X0*%
%ADD68RoundRect,0.250000X0.539937X-0.856884X0.998282X-0.170921X-0.539937X0.856884X-0.998282X0.170921X0*%
%ADD69RoundRect,0.250000X-0.945755X-0.362392X-0.362392X-0.945755X0.945755X0.362392X0.362392X0.945755X0*%
%ADD70RoundRect,0.225000X-0.225000X-0.250000X0.225000X-0.250000X0.225000X0.250000X-0.225000X0.250000X0*%
%ADD71RoundRect,0.250000X-0.826752X0.585032X-0.987701X-0.224115X0.826752X-0.585032X0.987701X0.224115X0*%
%ADD72RoundRect,0.200000X-0.205102X0.271216X-0.321216X-0.111560X0.205102X-0.271216X0.321216X0.111560X0*%
%ADD73RoundRect,0.250000X-0.856884X-0.539937X-0.170921X-0.998282X0.856884X0.539937X0.170921X0.998282X0*%
%ADD74RoundRect,0.200000X-0.019856X0.339457X-0.329060X0.085699X0.019856X-0.339457X0.329060X-0.085699X0*%
%ADD75RoundRect,0.200000X0.019856X-0.339457X0.329060X-0.085699X-0.019856X0.339457X-0.329060X0.085699X0*%
%ADD76RoundRect,0.200000X0.225992X0.254072X-0.172082X0.293279X-0.225992X-0.254072X0.172082X-0.293279X0*%
%ADD77RoundRect,0.250000X-0.224115X-0.987701X0.585032X-0.826752X0.224115X0.987701X-0.585032X0.826752X0*%
%ADD78RoundRect,0.250000X0.735082X0.696732X-0.027118X1.012445X-0.735082X-0.696732X0.027118X-1.012445X0*%
%ADD79RoundRect,0.250000X-0.412500X-0.925000X0.412500X-0.925000X0.412500X0.925000X-0.412500X0.925000X0*%
%ADD80RoundRect,0.250000X-0.735082X-0.696732X0.027118X-1.012445X0.735082X0.696732X-0.027118X1.012445X0*%
%ADD81RoundRect,0.200000X-0.306018X-0.148249X0.046750X-0.336808X0.306018X0.148249X-0.046750X0.336808X0*%
%ADD82RoundRect,0.200000X-0.339457X-0.019856X-0.085699X-0.329060X0.339457X0.019856X0.085699X0.329060X0*%
%ADD83RoundRect,0.200000X0.172082X0.293279X-0.225992X0.254072X-0.172082X-0.293279X0.225992X-0.254072X0*%
%ADD84RoundRect,0.250000X0.696732X-0.735082X1.012445X0.027118X-0.696732X0.735082X-1.012445X-0.027118X0*%
%ADD85RoundRect,0.250000X-0.170921X0.998282X-0.856884X0.539937X0.170921X-0.998282X0.856884X-0.539937X0*%
%ADD86RoundRect,0.250000X0.925000X-0.412500X0.925000X0.412500X-0.925000X0.412500X-0.925000X-0.412500X0*%
%ADD87RoundRect,0.250000X0.170921X-0.998282X0.856884X-0.539937X-0.170921X0.998282X-0.856884X0.539937X0*%
%ADD88RoundRect,0.250000X-0.925000X0.412500X-0.925000X-0.412500X0.925000X-0.412500X0.925000X0.412500X0*%
%ADD89RoundRect,0.250000X-1.012445X0.027118X-0.696732X-0.735082X1.012445X-0.027118X0.696732X0.735082X0*%
%ADD90RoundRect,0.200000X0.254072X-0.225992X0.293279X0.172082X-0.254072X0.225992X-0.293279X-0.172082X0*%
G04 APERTURE END LIST*
D10*
X38360000Y-101650000D03*
D11*
X40900000Y-101650000D03*
X43440000Y-101650000D03*
D12*
X145000000Y-37725000D03*
D13*
X145000000Y-40265000D03*
D14*
X49500000Y-106550000D03*
D15*
X49500000Y-101550000D03*
D12*
X75000000Y-37725000D03*
D13*
X75000000Y-40265000D03*
D14*
X49500000Y-115250000D03*
D15*
X49500000Y-120250000D03*
D12*
X27000000Y-92475000D03*
D13*
X27000000Y-95015000D03*
X27000000Y-97555000D03*
D16*
X41400000Y-106350000D03*
D17*
X26160000Y-106350000D03*
D18*
X44550000Y-106320000D03*
D19*
X44550000Y-116480000D03*
D20*
X32282200Y-91000000D03*
X35000000Y-91000000D03*
X37717800Y-91000000D03*
X174282201Y-93364798D03*
X177000001Y-93364798D03*
X179717801Y-93364798D03*
D16*
X36712754Y-117750000D03*
D21*
X29212754Y-117750000D03*
D22*
X115961892Y-49467889D03*
X115800164Y-51109943D03*
D23*
X53448628Y-115569824D03*
X55090682Y-115408096D03*
D24*
X53448628Y-104430176D03*
X55090682Y-104591904D03*
D25*
X104125000Y-90400000D03*
X102475000Y-90400000D03*
D26*
X73950602Y-153926320D03*
X74997350Y-152650852D03*
D27*
X148510803Y-71489197D03*
X150685157Y-69314843D03*
D28*
X160316789Y-89158104D03*
X163157719Y-87981352D03*
D29*
X89158104Y-59683211D03*
X87981352Y-56842281D03*
D30*
X71489197Y-71489197D03*
X69314843Y-69314843D03*
D31*
X126495427Y-164378135D03*
X126016457Y-162799183D03*
D32*
X93504573Y-164378135D03*
X93983543Y-162799183D03*
D33*
X83212881Y-160115176D03*
X83990685Y-158660006D03*
D34*
X83212880Y-59884824D03*
X83990684Y-61339994D03*
D35*
X164378135Y-93504573D03*
X162799183Y-93983543D03*
D36*
X146049398Y-66073680D03*
X145002650Y-67349148D03*
D37*
X140257744Y-155283913D03*
X141966122Y-157840683D03*
D38*
X79742256Y-64716087D03*
X78033878Y-62159317D03*
D39*
X66073680Y-73950602D03*
X67349148Y-74997350D03*
D40*
X79742256Y-155283913D03*
X78033878Y-157840683D03*
D41*
X113575000Y-129600000D03*
X112925000Y-129600000D03*
X112275000Y-129600000D03*
X111625000Y-129600000D03*
X110975000Y-129600000D03*
X110325000Y-129600000D03*
X109675000Y-129600000D03*
X109025000Y-129600000D03*
X108375000Y-129600000D03*
X107725000Y-129600000D03*
X107075000Y-129600000D03*
X106425000Y-129600000D03*
X106425000Y-122400000D03*
X107075000Y-122400000D03*
X107725000Y-122400000D03*
X108375000Y-122400000D03*
X109025000Y-122400000D03*
X109675000Y-122400000D03*
X110325000Y-122400000D03*
X110975000Y-122400000D03*
X111625000Y-122400000D03*
X112275000Y-122400000D03*
X112925000Y-122400000D03*
X113575000Y-122400000D03*
D42*
X160115176Y-83212880D03*
X158660006Y-83990684D03*
D43*
X104038108Y-49467889D03*
X104199836Y-51109943D03*
D44*
X71489197Y-148510803D03*
X69314843Y-150685157D03*
D45*
X104100000Y-97600000D03*
X102550000Y-97600000D03*
D46*
X93504573Y-55621865D03*
X93983543Y-57200817D03*
D47*
X56583981Y-120625107D03*
X53568067Y-121225009D03*
D48*
X55621865Y-93504573D03*
X57200817Y-93983543D03*
D49*
X115875000Y-129600000D03*
X117525000Y-129600000D03*
D50*
X55621865Y-126495427D03*
X57200817Y-126016457D03*
D51*
X59884824Y-136787120D03*
X61339994Y-136009316D03*
D49*
X119875000Y-122400000D03*
X121525000Y-122400000D03*
D52*
X163416019Y-120625107D03*
X166431933Y-121225009D03*
D49*
X116675000Y-97600000D03*
X118325000Y-97600000D03*
D53*
X160115176Y-136787119D03*
X158660006Y-136009315D03*
D54*
X120625107Y-163416019D03*
X121225009Y-166431933D03*
D55*
X115569824Y-166551372D03*
X115408096Y-164909318D03*
D56*
X153926320Y-146049398D03*
X152650852Y-145002650D03*
D57*
X89158104Y-160316789D03*
X87981352Y-163157719D03*
D58*
X56583981Y-99374893D03*
X53568067Y-98774991D03*
D59*
X164378135Y-126495427D03*
X162799183Y-126016457D03*
D60*
X136787119Y-59884824D03*
X136009315Y-61339994D03*
D61*
X146049398Y-153926320D03*
X145002650Y-152650852D03*
D62*
X64716087Y-79742256D03*
X62159317Y-78033878D03*
D63*
X55537500Y-110000000D03*
X52462500Y-110000000D03*
D64*
X59683211Y-130841896D03*
X56842281Y-132018648D03*
D65*
X121600559Y-51680057D03*
X122200461Y-48664143D03*
D66*
X136787120Y-160115176D03*
X136009316Y-158660006D03*
D67*
X98399441Y-51680057D03*
X97799539Y-48664143D03*
D68*
X140257744Y-64716087D03*
X141966122Y-62159317D03*
D69*
X148510803Y-148510803D03*
X150685157Y-150685157D03*
D70*
X115925000Y-122400000D03*
X117475000Y-122400000D03*
D71*
X99374893Y-163416019D03*
X98774991Y-166431933D03*
D72*
X126495427Y-55621865D03*
X126016457Y-57200817D03*
D49*
X144925000Y-45750000D03*
X146575000Y-45750000D03*
D73*
X155283913Y-140257744D03*
X157840683Y-141966122D03*
D74*
X153926320Y-73950602D03*
X152650852Y-74997350D03*
D75*
X66073680Y-146049398D03*
X67349148Y-145002650D03*
D76*
X166551372Y-115569824D03*
X164909318Y-115408096D03*
D77*
X163416019Y-99374893D03*
X166431933Y-98774991D03*
D78*
X59683211Y-89158104D03*
X56842281Y-87981352D03*
D79*
X164462500Y-110000000D03*
X167537500Y-110000000D03*
D80*
X160316789Y-130841896D03*
X163157719Y-132018648D03*
D81*
X59884824Y-83212881D03*
X61339994Y-83990685D03*
D41*
X106425000Y-90400000D03*
X107075000Y-90400000D03*
X107725000Y-90400000D03*
X108375000Y-90400000D03*
X109025000Y-90400000D03*
X109675000Y-90400000D03*
X110325000Y-90400000D03*
X110975000Y-90400000D03*
X111625000Y-90400000D03*
X112275000Y-90400000D03*
X112925000Y-90400000D03*
X113575000Y-90400000D03*
X113575000Y-97600000D03*
X112925000Y-97600000D03*
X112275000Y-97600000D03*
X111625000Y-97600000D03*
X110975000Y-97600000D03*
X110325000Y-97600000D03*
X109675000Y-97600000D03*
X109025000Y-97600000D03*
X108375000Y-97600000D03*
X107725000Y-97600000D03*
X107075000Y-97600000D03*
X106425000Y-97600000D03*
D82*
X73950602Y-66073680D03*
X74997350Y-67349148D03*
D83*
X166551372Y-104430176D03*
X164909318Y-104591904D03*
D84*
X130841896Y-59683211D03*
X132018648Y-56842281D03*
D85*
X64716087Y-140257744D03*
X62159317Y-141966122D03*
D86*
X110000000Y-51037500D03*
X110000000Y-47962500D03*
D87*
X155283913Y-79742256D03*
X157840683Y-78033878D03*
D88*
X110000000Y-164462500D03*
X110000000Y-167537500D03*
D89*
X130841896Y-160316789D03*
X132018648Y-163157719D03*
D45*
X52775000Y-88000000D03*
X51225000Y-88000000D03*
D90*
X104430176Y-166551372D03*
X104591904Y-164909318D03*
M02*
