M48
; DRILL file {KiCad (6.0.7-1)-1} date 2023 February 20, Monday 20:57:32
; FORMAT={-:-/ absolute / metric / decimal}
; #@! TF.CreationDate,2023-02-20T20:57:32+08:00
; #@! TF.GenerationSoftware,Kicad,Pcbnew,(6.0.7-1)-1
; #@! TF.FileFunction,Plated,1,2,PTH
FMAT,2
METRIC
; #@! TA.AperFunction,Plated,PTH,ViaDrill
T1C0.400
; #@! TA.AperFunction,Plated,PTH,ComponentDrill
T2C1.000
; #@! TA.AperFunction,Plated,PTH,ComponentDrill
T3C1.016
; #@! TA.AperFunction,Plated,PTH,ComponentDrill
T4C1.100
; #@! TA.AperFunction,Plated,PTH,ComponentDrill
T5C1.200
; #@! TA.AperFunction,Plated,PTH,ComponentDrill
T6C1.800
%
G90
G05
T1
X41.75Y-88.25
X41.75Y-93.25
X48.5Y-90.75
X51.19Y-88.0
X55.5Y-110.0
X56.547Y-99.368
X56.547Y-120.632
X59.649Y-89.144
X59.649Y-130.856
X64.685Y-79.721
X64.685Y-140.279
X71.463Y-71.463
X71.463Y-148.537
X79.721Y-64.685
X79.721Y-155.315
X89.144Y-59.649
X89.144Y-160.351
X93.602Y-55.637
X98.5Y-51.834
X99.368Y-163.453
X103.75Y-95.25
X104.038Y-49.468
X105.3Y-129.6
X107.75Y-92.75
X110.0Y-51.0
X110.0Y-164.5
X111.543Y-99.793
X112.4Y-95.4
X112.925Y-99.825
X115.962Y-49.532
X116.75Y-120.5
X118.25Y-107.75
X118.275Y-93.975
X120.0Y-120.0
X120.632Y-163.453
X121.5Y-51.834
X121.5Y-87.0
X122.25Y-127.25
X122.25Y-130.5
X122.75Y-87.0
X123.5Y-126.25
X123.5Y-130.0
X124.5Y-126.25
X124.5Y-130.0
X125.5Y-126.25
X125.512Y-129.988
X126.398Y-55.637
X126.5Y-126.25
X126.512Y-129.988
X130.25Y-106.25
X130.25Y-109.0
X130.856Y-59.649
X130.856Y-160.351
X131.5Y-106.25
X131.5Y-109.0
X138.75Y-111.25
X139.25Y-53.25
X139.75Y-105.75
X139.75Y-108.25
X140.279Y-64.685
X140.279Y-155.315
X140.75Y-105.747
X143.5Y-49.0
X148.537Y-71.463
X148.537Y-148.537
X155.315Y-79.721
X155.315Y-140.279
X160.25Y-127.75
X160.351Y-89.144
X160.351Y-130.856
X163.453Y-99.368
X163.453Y-120.632
X164.5Y-110.0
X165.5Y-113.5
X166.75Y-93.25
X167.5Y-110.0
X167.5Y-113.5
X167.5Y-117.75
X167.75Y-106.75
X169.25Y-93.25
X169.25Y-96.5
X169.75Y-105.5
X170.0Y-99.0
X170.504Y-96.118
X171.0Y-95.25
X171.0Y-104.0
X173.0Y-112.0
X173.0Y-113.0
X173.0Y-103.615
X173.5Y-105.5
X173.75Y-109.589
X174.5Y-105.5
X174.887Y-111.863
X176.15Y-109.589
X176.75Y-117.5
X177.0Y-95.5
X177.15Y-120.415
X178.0Y-99.0
X178.5Y-127.5
X178.5Y-128.5
X178.5Y-134.75
X178.5Y-135.75
X178.5Y-136.75
X178.75Y-101.0
X179.0Y-115.615
X179.5Y-127.5
X179.5Y-128.5
X179.5Y-134.75
X179.5Y-135.75
X179.5Y-136.75
X179.75Y-107.75
X180.0Y-114.615
X180.75Y-107.75
X180.751Y-112.992
X181.75Y-107.75
X181.75Y-113.025
X182.25Y-85.5
X182.25Y-86.5
X182.25Y-89.25
X182.25Y-90.25
X182.25Y-93.0
X182.25Y-94.0
X182.75Y-107.75
X183.5Y-97.75
X183.698Y-108.066
X186.5Y-103.75
X186.5Y-104.75
X186.5Y-105.75
X186.5Y-106.75
X186.5Y-107.75
X191.0Y-97.75
T2
X27.0Y-92.475
X27.0Y-95.015
X27.0Y-97.555
X75.0Y-37.725
X75.0Y-40.265
X145.0Y-37.725
X145.0Y-40.265
T3
X32.282Y-91.0
X35.0Y-91.0
X37.718Y-91.0
X174.282Y-93.365
X177.0Y-93.365
X179.718Y-93.365
T4
X38.36Y-101.65
X40.9Y-101.65
X43.44Y-101.65
X44.55Y-106.32
X44.55Y-116.48
T5
X26.16Y-106.35
X29.213Y-117.75
X36.713Y-117.75
X41.4Y-106.35
T6
X49.5Y-101.55
X49.5Y-106.55
X49.5Y-115.25
X49.5Y-120.25
T0
M30
