%TF.GenerationSoftware,KiCad,Pcbnew,(6.0.7-1)-1*%
%TF.CreationDate,2023-02-20T20:58:05+08:00*%
%TF.ProjectId,layer3,6c617965-7233-42e6-9b69-6361645f7063,1.0*%
%TF.SameCoordinates,Original*%
%TF.FileFunction,Soldermask,Bot*%
%TF.FilePolarity,Negative*%
%FSLAX46Y46*%
G04 Gerber Fmt 4.6, Leading zero omitted, Abs format (unit mm)*
G04 Created by KiCad (PCBNEW (6.0.7-1)-1) date 2023-02-20 20:58:05*
%MOMM*%
%LPD*%
G01*
G04 APERTURE LIST*
G04 Aperture macros list*
%AMRoundRect*
0 Rectangle with rounded corners*
0 $1 Rounding radius*
0 $2 $3 $4 $5 $6 $7 $8 $9 X,Y pos of 4 corners*
0 Add a 4 corners polygon primitive as box body*
4,1,4,$2,$3,$4,$5,$6,$7,$8,$9,$2,$3,0*
0 Add four circle primitives for the rounded corners*
1,1,$1+$1,$2,$3*
1,1,$1+$1,$4,$5*
1,1,$1+$1,$6,$7*
1,1,$1+$1,$8,$9*
0 Add four rect primitives between the rounded corners*
20,1,$1+$1,$2,$3,$4,$5,0*
20,1,$1+$1,$4,$5,$6,$7,0*
20,1,$1+$1,$6,$7,$8,$9,0*
20,1,$1+$1,$8,$9,$2,$3,0*%
%AMHorizOval*
0 Thick line with rounded ends*
0 $1 width*
0 $2 $3 position (X,Y) of the first rounded end (center of the circle)*
0 $4 $5 position (X,Y) of the second rounded end (center of the circle)*
0 Add line between two ends*
20,1,$1,$2,$3,$4,$5,0*
0 Add two circle primitives to create the rounded ends*
1,1,$1,$2,$3*
1,1,$1,$4,$5*%
%AMRotRect*
0 Rectangle, with rotation*
0 The origin of the aperture is its center*
0 $1 length*
0 $2 width*
0 $3 Rotation angle, in degrees counterclockwise*
0 Add horizontal line*
21,1,$1,$2,0,0,$3*%
G04 Aperture macros list end*
%ADD10RoundRect,0.250000X0.936916X0.088388X0.088388X0.936916X-0.936916X-0.088388X-0.088388X-0.936916X0*%
%ADD11HorizOval,1.700000X0.088388X0.088388X-0.088388X-0.088388X0*%
%ADD12RotRect,1.700000X1.700000X315.000000*%
%ADD13HorizOval,1.700000X0.000000X0.000000X0.000000X0.000000X0*%
%ADD14C,2.082800*%
%ADD15R,1.700000X1.700000*%
%ADD16O,1.700000X1.700000*%
%ADD17R,3.000000X3.000000*%
%ADD18C,3.000000*%
%ADD19C,1.600000*%
%ADD20RoundRect,0.250002X-1.699998X-1.699998X1.699998X-1.699998X1.699998X1.699998X-1.699998X1.699998X0*%
%ADD21R,3.716000X3.716000*%
%ADD22C,3.716000*%
%ADD23O,2.400000X1.200000*%
%ADD24RoundRect,0.250002X1.699998X1.699998X-1.699998X1.699998X-1.699998X-1.699998X1.699998X-1.699998X0*%
%ADD25RoundRect,0.150000X0.512500X0.150000X-0.512500X0.150000X-0.512500X-0.150000X0.512500X-0.150000X0*%
G04 APERTURE END LIST*
D10*
X75000000Y-145000000D03*
D11*
X73232233Y-143232233D03*
X71464466Y-141464466D03*
X69696699Y-139696699D03*
X67928932Y-137928932D03*
D12*
X85490129Y-144509872D03*
D13*
X83694078Y-146305923D03*
X81898027Y-148101974D03*
X80101975Y-149898026D03*
X78305924Y-151694077D03*
X76509873Y-153490128D03*
D14*
X64717800Y-88000000D03*
X62000000Y-88000000D03*
X59282200Y-88000000D03*
D15*
X55550000Y-93719719D03*
D16*
X58090000Y-93719719D03*
X60630000Y-93719719D03*
X63170000Y-93719719D03*
X65710000Y-93719719D03*
X68250000Y-93719719D03*
D15*
X107475000Y-44000000D03*
D16*
X110015000Y-44000000D03*
X112555000Y-44000000D03*
D17*
X154000000Y-113500000D03*
D18*
X154000000Y-118500000D03*
D19*
X96030000Y-63620000D03*
X98570000Y-63620000D03*
X101110000Y-63620000D03*
X103650000Y-63620000D03*
X126510000Y-58540000D03*
X98570000Y-48380000D03*
X106190000Y-63620000D03*
X108730000Y-63620000D03*
X111270000Y-63620000D03*
X113810000Y-63620000D03*
X116350000Y-63620000D03*
X118890000Y-63620000D03*
X121430000Y-63620000D03*
X123970000Y-63620000D03*
X126510000Y-63620000D03*
X126510000Y-48380000D03*
X123970000Y-48380000D03*
X121430000Y-48380000D03*
X118890000Y-48380000D03*
X116350000Y-48380000D03*
X113810000Y-48380000D03*
X111270000Y-48380000D03*
X108730000Y-48380000D03*
X106190000Y-48380000D03*
X103650000Y-48380000D03*
X101110000Y-48380000D03*
X121430000Y-50920000D03*
X118890000Y-50920000D03*
X121430000Y-53460000D03*
X118890000Y-53460000D03*
X121430000Y-56000000D03*
X118890000Y-56000000D03*
X121430000Y-58540000D03*
X118890000Y-58540000D03*
X121430000Y-61080000D03*
X118890000Y-61080000D03*
X93490000Y-63620000D03*
X126510000Y-56000000D03*
X96030000Y-48380000D03*
X126510000Y-50920000D03*
X126510000Y-53460000D03*
X126510000Y-61080000D03*
X93490000Y-48380000D03*
X96030000Y-50920000D03*
D15*
X123525000Y-159200000D03*
D16*
X120985000Y-159200000D03*
X118445000Y-159200000D03*
D14*
X160717800Y-88000000D03*
X158000000Y-88000000D03*
X155282200Y-88000000D03*
D17*
X161999999Y-113500000D03*
D18*
X161999999Y-118500000D03*
D17*
X50000000Y-134500000D03*
D18*
X50000000Y-129500000D03*
D15*
X102525000Y-159200000D03*
D16*
X99985000Y-159200000D03*
X97445000Y-159200000D03*
D17*
X44250000Y-122000000D03*
D18*
X49250000Y-122000000D03*
D17*
X161999999Y-105500000D03*
D18*
X161999999Y-100500000D03*
D20*
X156000000Y-142000000D03*
D21*
X155869039Y-134067519D03*
D22*
X155869039Y-126867519D03*
D23*
X161869039Y-137217519D03*
X161869039Y-123717519D03*
D17*
X169999999Y-113750000D03*
D18*
X169999999Y-118750000D03*
D17*
X169999999Y-105500000D03*
D18*
X169999999Y-100500000D03*
D24*
X49000000Y-99000000D03*
D21*
X49000000Y-106400000D03*
D22*
X49000000Y-113600000D03*
D23*
X43000000Y-103250000D03*
X43000000Y-116750000D03*
D25*
X108137500Y-73050000D03*
X108137500Y-74000000D03*
X108137500Y-74950000D03*
X105862500Y-74950000D03*
X105862500Y-74000000D03*
X105862500Y-73050000D03*
X114137500Y-73050000D03*
X114137500Y-74000000D03*
X114137500Y-74950000D03*
X111862500Y-74950000D03*
X111862500Y-74000000D03*
X111862500Y-73050000D03*
M02*
