M48
; DRILL file {KiCad (6.0.7-1)-1} date 2023 February 20, Monday 20:58:07
; FORMAT={-:-/ absolute / metric / decimal}
; #@! TF.CreationDate,2023-02-20T20:58:07+08:00
; #@! TF.GenerationSoftware,Kicad,Pcbnew,(6.0.7-1)-1
; #@! TF.FileFunction,Plated,1,2,PTH
FMAT,2
METRIC
; #@! TA.AperFunction,Plated,PTH,ViaDrill
T1C0.400
; #@! TA.AperFunction,Plated,PTH,ComponentDrill
T2C0.600
; #@! TA.AperFunction,Plated,PTH,ComponentDrill
T3C0.950
; #@! TA.AperFunction,Plated,PTH,ComponentDrill
T4C1.000
; #@! TA.AperFunction,Plated,PTH,ComponentDrill
T5C1.016
; #@! TA.AperFunction,Plated,PTH,ComponentDrill
T6C1.100
; #@! TA.AperFunction,Plated,PTH,ComponentDrill
T7C1.800
; #@! TA.AperFunction,Plated,PTH,ComponentDrill
T8C2.100
; #@! TA.AperFunction,Plated,PTH,ComponentDrill
T9C2.700
%
G90
G05
T1
X61.0Y-65.8
X61.4Y-64.8
X63.4Y-64.6
X64.189Y-65.377
X64.374Y-69.805
X65.116Y-70.547
X65.426Y-65.2
X66.0Y-71.75
X66.0Y-73.8
X66.491Y-67.354
X66.5Y-83.75
X66.669Y-74.847
X67.098Y-78.394
X68.5Y-78.5
X69.0Y-83.75
X69.0Y-86.0
X70.0Y-71.0
X70.023Y-65.675
X70.8Y-70.4
X71.0Y-64.2
X71.0Y-103.0
X71.25Y-73.0
X71.341Y-65.666
X71.341Y-78.394
X71.6Y-69.6
X72.543Y-68.743
X73.068Y-65.243
X74.25Y-71.25
X74.4Y-86.2
X75.25Y-80.0
X75.4Y-85.4
X76.0Y-78.0
X78.25Y-72.25
X79.0Y-79.0
X79.0Y-88.0
X80.0Y-73.8
X80.6Y-74.6
X83.0Y-91.0
X83.493Y-70.293
X84.0Y-76.6
X84.2Y-71.0
X84.8Y-75.8
X87.8Y-73.4
X88.2Y-75.2
X88.6Y-74.2
X89.0Y-50.0
X90.212Y-75.212
X104.6Y-73.106
X105.017Y-65.008
X107.0Y-61.0
X107.0Y-76.0
X107.2Y-80.2
X107.258Y-117.831
X108.0Y-118.5
X108.2Y-68.0
X108.75Y-119.25
X109.5Y-120.0
X111.8Y-76.0
X112.997Y-71.421
X113.0Y-76.0
X113.2Y-72.4
X114.288Y-79.512
X115.0Y-51.0
X116.0Y-52.0
X121.0Y-44.0
X122.0Y-44.0
X126.302Y-44.316
X127.25Y-44.0
X134.0Y-74.2
X134.455Y-72.581
X134.8Y-75.2
X140.5Y-95.0
X142.25Y-95.724
X143.25Y-92.75
X143.4Y-83.8
X144.0Y-96.174
X144.2Y-84.6
X145.73Y-69.821
X145.73Y-68.406
X146.6Y-81.385
X146.79Y-72.296
X147.497Y-71.588
X149.25Y-62.0
X150.75Y-66.0
X151.033Y-70.174
X151.5Y-79.25
X155.0Y-73.0
X156.008Y-73.006
X158.458Y-72.649
X158.458Y-68.406
X158.75Y-78.75
X159.25Y-71.75
X159.5Y-78.0
X159.5Y-79.5
X160.25Y-77.25
X160.25Y-78.75
X161.0Y-78.0
X163.25Y-74.25
T3
X67.929Y-137.929
X69.697Y-139.697
X71.464Y-141.464
X73.232Y-143.232
X75.0Y-145.0
T4
X55.55Y-93.72
X58.09Y-93.72
X60.63Y-93.72
X63.17Y-93.72
X65.71Y-93.72
X68.25Y-93.72
X76.51Y-153.49
X78.306Y-151.694
X80.102Y-149.898
X81.898Y-148.102
X83.694Y-146.306
X85.49Y-144.51
X97.445Y-159.2
X99.985Y-159.2
X102.525Y-159.2
X107.475Y-44.0
X110.015Y-44.0
X112.555Y-44.0
X118.445Y-159.2
X120.985Y-159.2
X123.525Y-159.2
T5
X59.282Y-88.0
X62.0Y-88.0
X64.718Y-88.0
X155.282Y-88.0
X158.0Y-88.0
X160.718Y-88.0
T6
X93.49Y-48.38
X93.49Y-63.62
X96.03Y-48.38
X96.03Y-50.92
X96.03Y-63.62
X98.57Y-48.38
X98.57Y-63.62
X101.11Y-48.38
X101.11Y-63.62
X103.65Y-48.38
X103.65Y-63.62
X106.19Y-48.38
X106.19Y-63.62
X108.73Y-48.38
X108.73Y-63.62
X111.27Y-48.38
X111.27Y-63.62
X113.81Y-48.38
X113.81Y-63.62
X116.35Y-48.38
X116.35Y-63.62
X118.89Y-48.38
X118.89Y-50.92
X118.89Y-53.46
X118.89Y-56.0
X118.89Y-58.54
X118.89Y-61.08
X118.89Y-63.62
X121.43Y-48.38
X121.43Y-50.92
X121.43Y-53.46
X121.43Y-56.0
X121.43Y-58.54
X121.43Y-61.08
X121.43Y-63.62
X123.97Y-48.38
X123.97Y-63.62
X126.51Y-48.38
X126.51Y-50.92
X126.51Y-53.46
X126.51Y-56.0
X126.51Y-58.54
X126.51Y-61.08
X126.51Y-63.62
T7
X44.25Y-122.0
X49.25Y-122.0
X50.0Y-129.5
X50.0Y-134.5
X154.0Y-113.5
X154.0Y-118.5
X162.0Y-100.5
X162.0Y-105.5
X162.0Y-113.5
X162.0Y-118.5
X170.0Y-100.5
X170.0Y-105.5
X170.0Y-113.75
X170.0Y-118.75
T8
X49.0Y-99.0
X156.0Y-142.0
T9
X49.0Y-106.4
X49.0Y-113.6
X155.869Y-126.868
X155.869Y-134.068
T2
X42.45Y-103.25G85X43.55Y-103.25
G05
X42.45Y-116.75G85X43.55Y-116.75
G05
X162.419Y-123.718G85X161.319Y-123.718
G05
X162.419Y-137.218G85X161.319Y-137.218
G05
T0
M30
