%TF.GenerationSoftware,KiCad,Pcbnew,(6.0.7-1)-1*%
%TF.CreationDate,2023-02-20T20:58:05+08:00*%
%TF.ProjectId,layer3,6c617965-7233-42e6-9b69-6361645f7063,1.0*%
%TF.SameCoordinates,Original*%
%TF.FileFunction,Legend,Bot*%
%TF.FilePolarity,Positive*%
%FSLAX46Y46*%
G04 Gerber Fmt 4.6, Leading zero omitted, Abs format (unit mm)*
G04 Created by KiCad (PCBNEW (6.0.7-1)-1) date 2023-02-20 20:58:05*
%MOMM*%
%LPD*%
G01*
G04 APERTURE LIST*
G04 Aperture macros list*
%AMRoundRect*
0 Rectangle with rounded corners*
0 $1 Rounding radius*
0 $2 $3 $4 $5 $6 $7 $8 $9 X,Y pos of 4 corners*
0 Add a 4 corners polygon primitive as box body*
4,1,4,$2,$3,$4,$5,$6,$7,$8,$9,$2,$3,0*
0 Add four circle primitives for the rounded corners*
1,1,$1+$1,$2,$3*
1,1,$1+$1,$4,$5*
1,1,$1+$1,$6,$7*
1,1,$1+$1,$8,$9*
0 Add four rect primitives between the rounded corners*
20,1,$1+$1,$2,$3,$4,$5,0*
20,1,$1+$1,$4,$5,$6,$7,0*
20,1,$1+$1,$6,$7,$8,$9,0*
20,1,$1+$1,$8,$9,$2,$3,0*%
%AMHorizOval*
0 Thick line with rounded ends*
0 $1 width*
0 $2 $3 position (X,Y) of the first rounded end (center of the circle)*
0 $4 $5 position (X,Y) of the second rounded end (center of the circle)*
0 Add line between two ends*
20,1,$1,$2,$3,$4,$5,0*
0 Add two circle primitives to create the rounded ends*
1,1,$1,$2,$3*
1,1,$1,$4,$5*%
%AMRotRect*
0 Rectangle, with rotation*
0 The origin of the aperture is its center*
0 $1 length*
0 $2 width*
0 $3 Rotation angle, in degrees counterclockwise*
0 Add horizontal line*
21,1,$1,$2,0,0,$3*%
G04 Aperture macros list end*
%ADD10C,0.150000*%
%ADD11C,0.120000*%
%ADD12RoundRect,0.250000X0.936916X0.088388X0.088388X0.936916X-0.936916X-0.088388X-0.088388X-0.936916X0*%
%ADD13HorizOval,1.700000X0.088388X0.088388X-0.088388X-0.088388X0*%
%ADD14RotRect,1.700000X1.700000X315.000000*%
%ADD15HorizOval,1.700000X0.000000X0.000000X0.000000X0.000000X0*%
%ADD16C,2.082800*%
%ADD17R,1.700000X1.700000*%
%ADD18O,1.700000X1.700000*%
%ADD19R,3.000000X3.000000*%
%ADD20C,3.000000*%
%ADD21C,1.600000*%
%ADD22RoundRect,0.250002X-1.699998X-1.699998X1.699998X-1.699998X1.699998X1.699998X-1.699998X1.699998X0*%
%ADD23R,3.716000X3.716000*%
%ADD24C,3.716000*%
%ADD25O,2.400000X1.200000*%
%ADD26RoundRect,0.250002X1.699998X1.699998X-1.699998X1.699998X-1.699998X-1.699998X1.699998X-1.699998X0*%
%ADD27RoundRect,0.150000X0.512500X0.150000X-0.512500X0.150000X-0.512500X-0.150000X0.512500X-0.150000X0*%
G04 APERTURE END LIST*
D10*
X107761904Y-71052380D02*
X107761904Y-71861904D01*
X107714285Y-71957142D01*
X107666666Y-72004761D01*
X107571428Y-72052380D01*
X107380952Y-72052380D01*
X107285714Y-72004761D01*
X107238095Y-71957142D01*
X107190476Y-71861904D01*
X107190476Y-71052380D01*
X106285714Y-71385714D02*
X106285714Y-72052380D01*
X106523809Y-71004761D02*
X106761904Y-71719047D01*
X106142857Y-71719047D01*
X113761904Y-71052380D02*
X113761904Y-71861904D01*
X113714285Y-71957142D01*
X113666666Y-72004761D01*
X113571428Y-72052380D01*
X113380952Y-72052380D01*
X113285714Y-72004761D01*
X113238095Y-71957142D01*
X113190476Y-71861904D01*
X113190476Y-71052380D01*
X112238095Y-71052380D02*
X112714285Y-71052380D01*
X112761904Y-71528571D01*
X112714285Y-71480952D01*
X112619047Y-71433333D01*
X112380952Y-71433333D01*
X112285714Y-71480952D01*
X112238095Y-71528571D01*
X112190476Y-71623809D01*
X112190476Y-71861904D01*
X112238095Y-71957142D01*
X112285714Y-72004761D01*
X112380952Y-72052380D01*
X112619047Y-72052380D01*
X112714285Y-72004761D01*
X112761904Y-71957142D01*
D11*
X107000000Y-72440000D02*
X108800000Y-72440000D01*
X107000000Y-75560000D02*
X107800000Y-75560000D01*
X107000000Y-75560000D02*
X106200000Y-75560000D01*
X107000000Y-72440000D02*
X106200000Y-72440000D01*
X113000000Y-75560000D02*
X113800000Y-75560000D01*
X113000000Y-72440000D02*
X112200000Y-72440000D01*
X113000000Y-72440000D02*
X114800000Y-72440000D01*
X113000000Y-75560000D02*
X112200000Y-75560000D01*
%LPC*%
D12*
X75000000Y-145000000D03*
D13*
X73232233Y-143232233D03*
X71464466Y-141464466D03*
X69696699Y-139696699D03*
X67928932Y-137928932D03*
D14*
X85490129Y-144509872D03*
D15*
X83694078Y-146305923D03*
X81898027Y-148101974D03*
X80101975Y-149898026D03*
X78305924Y-151694077D03*
X76509873Y-153490128D03*
D16*
X64717800Y-88000000D03*
X62000000Y-88000000D03*
X59282200Y-88000000D03*
D17*
X55550000Y-93719719D03*
D18*
X58090000Y-93719719D03*
X60630000Y-93719719D03*
X63170000Y-93719719D03*
X65710000Y-93719719D03*
X68250000Y-93719719D03*
D17*
X107475000Y-44000000D03*
D18*
X110015000Y-44000000D03*
X112555000Y-44000000D03*
D19*
X154000000Y-113500000D03*
D20*
X154000000Y-118500000D03*
D21*
X96030000Y-63620000D03*
X98570000Y-63620000D03*
X101110000Y-63620000D03*
X103650000Y-63620000D03*
X126510000Y-58540000D03*
X98570000Y-48380000D03*
X106190000Y-63620000D03*
X108730000Y-63620000D03*
X111270000Y-63620000D03*
X113810000Y-63620000D03*
X116350000Y-63620000D03*
X118890000Y-63620000D03*
X121430000Y-63620000D03*
X123970000Y-63620000D03*
X126510000Y-63620000D03*
X126510000Y-48380000D03*
X123970000Y-48380000D03*
X121430000Y-48380000D03*
X118890000Y-48380000D03*
X116350000Y-48380000D03*
X113810000Y-48380000D03*
X111270000Y-48380000D03*
X108730000Y-48380000D03*
X106190000Y-48380000D03*
X103650000Y-48380000D03*
X101110000Y-48380000D03*
X121430000Y-50920000D03*
X118890000Y-50920000D03*
X121430000Y-53460000D03*
X118890000Y-53460000D03*
X121430000Y-56000000D03*
X118890000Y-56000000D03*
X121430000Y-58540000D03*
X118890000Y-58540000D03*
X121430000Y-61080000D03*
X118890000Y-61080000D03*
X93490000Y-63620000D03*
X126510000Y-56000000D03*
X96030000Y-48380000D03*
X126510000Y-50920000D03*
X126510000Y-53460000D03*
X126510000Y-61080000D03*
X93490000Y-48380000D03*
X96030000Y-50920000D03*
D17*
X123525000Y-159200000D03*
D18*
X120985000Y-159200000D03*
X118445000Y-159200000D03*
D16*
X160717800Y-88000000D03*
X158000000Y-88000000D03*
X155282200Y-88000000D03*
D19*
X161999999Y-113500000D03*
D20*
X161999999Y-118500000D03*
D19*
X50000000Y-134500000D03*
D20*
X50000000Y-129500000D03*
D17*
X102525000Y-159200000D03*
D18*
X99985000Y-159200000D03*
X97445000Y-159200000D03*
D19*
X44250000Y-122000000D03*
D20*
X49250000Y-122000000D03*
D19*
X161999999Y-105500000D03*
D20*
X161999999Y-100500000D03*
D22*
X156000000Y-142000000D03*
D23*
X155869039Y-134067519D03*
D24*
X155869039Y-126867519D03*
D25*
X161869039Y-137217519D03*
X161869039Y-123717519D03*
D19*
X169999999Y-113750000D03*
D20*
X169999999Y-118750000D03*
D19*
X169999999Y-105500000D03*
D20*
X169999999Y-100500000D03*
D26*
X49000000Y-99000000D03*
D23*
X49000000Y-106400000D03*
D24*
X49000000Y-113600000D03*
D25*
X43000000Y-103250000D03*
X43000000Y-116750000D03*
D27*
X108137500Y-73050000D03*
X108137500Y-74000000D03*
X108137500Y-74950000D03*
X105862500Y-74950000D03*
X105862500Y-74000000D03*
X105862500Y-73050000D03*
X114137500Y-73050000D03*
X114137500Y-74000000D03*
X114137500Y-74950000D03*
X111862500Y-74950000D03*
X111862500Y-74000000D03*
X111862500Y-73050000D03*
M02*
