%TF.GenerationSoftware,KiCad,Pcbnew,(6.0.7-1)-1*%
%TF.CreationDate,2023-02-20T20:58:05+08:00*%
%TF.ProjectId,layer3,6c617965-7233-42e6-9b69-6361645f7063,1.0*%
%TF.SameCoordinates,Original*%
%TF.FileFunction,Soldermask,Top*%
%TF.FilePolarity,Negative*%
%FSLAX46Y46*%
G04 Gerber Fmt 4.6, Leading zero omitted, Abs format (unit mm)*
G04 Created by KiCad (PCBNEW (6.0.7-1)-1) date 2023-02-20 20:58:05*
%MOMM*%
%LPD*%
G01*
G04 APERTURE LIST*
G04 Aperture macros list*
%AMRoundRect*
0 Rectangle with rounded corners*
0 $1 Rounding radius*
0 $2 $3 $4 $5 $6 $7 $8 $9 X,Y pos of 4 corners*
0 Add a 4 corners polygon primitive as box body*
4,1,4,$2,$3,$4,$5,$6,$7,$8,$9,$2,$3,0*
0 Add four circle primitives for the rounded corners*
1,1,$1+$1,$2,$3*
1,1,$1+$1,$4,$5*
1,1,$1+$1,$6,$7*
1,1,$1+$1,$8,$9*
0 Add four rect primitives between the rounded corners*
20,1,$1+$1,$2,$3,$4,$5,0*
20,1,$1+$1,$4,$5,$6,$7,0*
20,1,$1+$1,$6,$7,$8,$9,0*
20,1,$1+$1,$8,$9,$2,$3,0*%
%AMHorizOval*
0 Thick line with rounded ends*
0 $1 width*
0 $2 $3 position (X,Y) of the first rounded end (center of the circle)*
0 $4 $5 position (X,Y) of the second rounded end (center of the circle)*
0 Add line between two ends*
20,1,$1,$2,$3,$4,$5,0*
0 Add two circle primitives to create the rounded ends*
1,1,$1,$2,$3*
1,1,$1,$4,$5*%
%AMRotRect*
0 Rectangle, with rotation*
0 The origin of the aperture is its center*
0 $1 length*
0 $2 width*
0 $3 Rotation angle, in degrees counterclockwise*
0 Add horizontal line*
21,1,$1,$2,0,0,$3*%
G04 Aperture macros list end*
%ADD10RoundRect,0.200000X0.335876X0.053033X0.053033X0.335876X-0.335876X-0.053033X-0.053033X-0.335876X0*%
%ADD11RoundRect,0.150000X0.548008X0.335876X0.335876X0.548008X-0.548008X-0.335876X-0.335876X-0.548008X0*%
%ADD12RoundRect,0.250000X0.707107X0.212132X0.212132X0.707107X-0.707107X-0.212132X-0.212132X-0.707107X0*%
%ADD13RoundRect,0.150000X0.150000X0.625000X-0.150000X0.625000X-0.150000X-0.625000X0.150000X-0.625000X0*%
%ADD14RoundRect,0.250000X0.350000X0.650000X-0.350000X0.650000X-0.350000X-0.650000X0.350000X-0.650000X0*%
%ADD15RotRect,2.000000X2.400000X45.000000*%
%ADD16RoundRect,0.225000X0.017678X-0.335876X0.335876X-0.017678X-0.017678X0.335876X-0.335876X0.017678X0*%
%ADD17RoundRect,0.250000X0.936916X0.088388X0.088388X0.936916X-0.936916X-0.088388X-0.088388X-0.936916X0*%
%ADD18HorizOval,1.700000X0.088388X0.088388X-0.088388X-0.088388X0*%
%ADD19RoundRect,0.150000X-0.700000X0.150000X-0.700000X-0.150000X0.700000X-0.150000X0.700000X0.150000X0*%
%ADD20RoundRect,0.250000X-1.100000X0.250000X-1.100000X-0.250000X1.100000X-0.250000X1.100000X0.250000X0*%
%ADD21RotRect,1.700000X1.700000X315.000000*%
%ADD22HorizOval,1.700000X0.000000X0.000000X0.000000X0.000000X0*%
%ADD23C,2.082800*%
%ADD24RoundRect,0.225000X0.335876X0.017678X0.017678X0.335876X-0.335876X-0.017678X-0.017678X-0.335876X0*%
%ADD25R,1.700000X1.700000*%
%ADD26O,1.700000X1.700000*%
%ADD27RoundRect,0.200000X-0.335876X-0.053033X-0.053033X-0.335876X0.335876X0.053033X0.053033X0.335876X0*%
%ADD28R,3.000000X3.000000*%
%ADD29C,3.000000*%
%ADD30RoundRect,0.200000X-0.053033X0.335876X-0.335876X0.053033X0.053033X-0.335876X0.335876X-0.053033X0*%
%ADD31RoundRect,0.200000X0.053033X-0.335876X0.335876X-0.053033X-0.053033X0.335876X-0.335876X0.053033X0*%
%ADD32RoundRect,0.218750X-0.026517X0.335876X-0.335876X0.026517X0.026517X-0.335876X0.335876X-0.026517X0*%
%ADD33RoundRect,0.075000X0.415425X0.521491X-0.521491X-0.415425X-0.415425X-0.521491X0.521491X0.415425X0*%
%ADD34RoundRect,0.075000X-0.415425X0.521491X-0.521491X0.415425X0.415425X-0.521491X0.521491X-0.415425X0*%
%ADD35RoundRect,0.200000X-0.707107X-0.424264X-0.424264X-0.707107X0.707107X0.424264X0.424264X0.707107X0*%
%ADD36RoundRect,0.200000X-0.200000X-0.275000X0.200000X-0.275000X0.200000X0.275000X-0.200000X0.275000X0*%
%ADD37C,1.600000*%
%ADD38RoundRect,0.200000X0.424264X-0.707107X0.707107X-0.424264X-0.424264X0.707107X-0.707107X0.424264X0*%
%ADD39RoundRect,0.218750X-0.335876X-0.026517X-0.026517X-0.335876X0.335876X0.026517X0.026517X0.335876X0*%
%ADD40RotRect,2.000000X2.400000X315.000000*%
%ADD41RoundRect,0.225000X-0.017678X0.335876X-0.335876X0.017678X0.017678X-0.335876X0.335876X-0.017678X0*%
%ADD42RoundRect,0.225000X-0.335876X-0.017678X-0.017678X-0.335876X0.335876X0.017678X0.017678X0.335876X0*%
%ADD43RoundRect,0.150000X0.625000X-0.150000X0.625000X0.150000X-0.625000X0.150000X-0.625000X-0.150000X0*%
%ADD44RoundRect,0.250000X0.650000X-0.350000X0.650000X0.350000X-0.650000X0.350000X-0.650000X-0.350000X0*%
%ADD45RoundRect,0.250002X-1.699998X-1.699998X1.699998X-1.699998X1.699998X1.699998X-1.699998X1.699998X0*%
%ADD46R,3.716000X3.716000*%
%ADD47C,3.716000*%
%ADD48O,2.400000X1.200000*%
%ADD49RoundRect,0.075000X-0.521491X0.415425X0.415425X-0.521491X0.521491X-0.415425X-0.415425X0.521491X0*%
%ADD50RoundRect,0.075000X-0.521491X-0.415425X-0.415425X-0.521491X0.521491X0.415425X0.415425X0.521491X0*%
%ADD51RoundRect,0.250002X1.699998X1.699998X-1.699998X1.699998X-1.699998X-1.699998X1.699998X-1.699998X0*%
%ADD52RoundRect,0.150000X0.335876X-0.548008X0.548008X-0.335876X-0.335876X0.548008X-0.548008X0.335876X0*%
%ADD53RoundRect,0.250000X0.212132X-0.707107X0.707107X-0.212132X-0.212132X0.707107X-0.707107X0.212132X0*%
%ADD54RoundRect,0.150000X-0.335876X0.548008X-0.548008X0.335876X0.335876X-0.548008X0.548008X-0.335876X0*%
%ADD55RoundRect,0.250000X-0.212132X0.707107X-0.707107X0.212132X0.212132X-0.707107X0.707107X-0.212132X0*%
G04 APERTURE END LIST*
D10*
X150732374Y-60327802D03*
X149565648Y-59161076D03*
D11*
X148125835Y-86252002D03*
X147418728Y-85544895D03*
X146711622Y-84837789D03*
X146004515Y-84130682D03*
X145297408Y-83423575D03*
X144590301Y-82716468D03*
X143883195Y-82009362D03*
X143176088Y-81302255D03*
D12*
X147259629Y-88956686D03*
X140471404Y-82168461D03*
D13*
X149000000Y-152175000D03*
X148000000Y-152175000D03*
X147000000Y-152175000D03*
D14*
X150300000Y-154700000D03*
X145700000Y-154700000D03*
D15*
X142300126Y-60522257D03*
X144916422Y-57905961D03*
D16*
X66640269Y-81680797D03*
X67736285Y-80584781D03*
D17*
X75000000Y-145000000D03*
D18*
X73232233Y-143232233D03*
X71464466Y-141464466D03*
X69696699Y-139696699D03*
X67928932Y-137928932D03*
D19*
X134850000Y-48875000D03*
X134850000Y-50125000D03*
X134850000Y-51375000D03*
X134850000Y-52625000D03*
X134850000Y-53875000D03*
X134850000Y-55125000D03*
D20*
X131650000Y-56975000D03*
X131650000Y-47025000D03*
D21*
X85490129Y-144509872D03*
D22*
X83694078Y-146305923D03*
X81898027Y-148101974D03*
X80101975Y-149898026D03*
X78305924Y-151694077D03*
X76509873Y-153490128D03*
D23*
X64717800Y-88000000D03*
X62000000Y-88000000D03*
X59282200Y-88000000D03*
D10*
X144898745Y-73232503D03*
X143732019Y-72065777D03*
D24*
X157591312Y-77439788D03*
X156495296Y-76343772D03*
D11*
X155505345Y-80551055D03*
X154798239Y-79843949D03*
X154091132Y-79136842D03*
X153384025Y-78429735D03*
X152676918Y-77722628D03*
X151969812Y-77015522D03*
D12*
X154639140Y-83255739D03*
X149265128Y-77881727D03*
D25*
X55550000Y-93719719D03*
D26*
X58090000Y-93719719D03*
X60630000Y-93719719D03*
X63170000Y-93719719D03*
X65710000Y-93719719D03*
X68250000Y-93719719D03*
D25*
X107475000Y-44000000D03*
D26*
X110015000Y-44000000D03*
X112555000Y-44000000D03*
D27*
X133125416Y-61459173D03*
X134292142Y-62625899D03*
D16*
X62397629Y-77438157D03*
X63493645Y-76342141D03*
D11*
X138697745Y-76823912D03*
X137990638Y-76116805D03*
X137283532Y-75409699D03*
X136576425Y-74702592D03*
X135869318Y-73995485D03*
X135162211Y-73288378D03*
X134455105Y-72581272D03*
X133747998Y-71874165D03*
D12*
X137831539Y-79528596D03*
X131043314Y-72740371D03*
D28*
X154000000Y-113500000D03*
D29*
X154000000Y-118500000D03*
D30*
X78378242Y-52972262D03*
X77211516Y-54138988D03*
D31*
X79509613Y-70579220D03*
X80676339Y-69412494D03*
D32*
X70446272Y-60875947D03*
X69332578Y-61989641D03*
D33*
X77025901Y-70941613D03*
X76672347Y-70588059D03*
X76318794Y-70234506D03*
X75965240Y-69880952D03*
X75611687Y-69527399D03*
X75258134Y-69173846D03*
X74904580Y-68820292D03*
X74551027Y-68466739D03*
X74197474Y-68113186D03*
X73843920Y-67759632D03*
X73490367Y-67406079D03*
X73136813Y-67052525D03*
D34*
X71139237Y-67052525D03*
X70785683Y-67406079D03*
X70432130Y-67759632D03*
X70078576Y-68113186D03*
X69725023Y-68466739D03*
X69371470Y-68820292D03*
X69017916Y-69173846D03*
X68664363Y-69527399D03*
X68310810Y-69880952D03*
X67957256Y-70234506D03*
X67603703Y-70588059D03*
X67250149Y-70941613D03*
D33*
X67250149Y-72939189D03*
X67603703Y-73292743D03*
X67957256Y-73646296D03*
X68310810Y-73999850D03*
X68664363Y-74353403D03*
X69017916Y-74706956D03*
X69371470Y-75060510D03*
X69725023Y-75414063D03*
X70078576Y-75767616D03*
X70432130Y-76121170D03*
X70785683Y-76474723D03*
X71139237Y-76828277D03*
D34*
X73136813Y-76828277D03*
X73490367Y-76474723D03*
X73843920Y-76121170D03*
X74197474Y-75767616D03*
X74551027Y-75414063D03*
X74904580Y-75060510D03*
X75258134Y-74706956D03*
X75611687Y-74353403D03*
X75965240Y-73999850D03*
X76318794Y-73646296D03*
X76672347Y-73292743D03*
X77025901Y-72939189D03*
D35*
X74188635Y-57020448D03*
X77158483Y-59990296D03*
D16*
X63811842Y-78852370D03*
X64907858Y-77756354D03*
D36*
X84350000Y-150875000D03*
X86000000Y-150875000D03*
D37*
X96030000Y-63620000D03*
X98570000Y-63620000D03*
X101110000Y-63620000D03*
X103650000Y-63620000D03*
X126510000Y-58540000D03*
X98570000Y-48380000D03*
X106190000Y-63620000D03*
X108730000Y-63620000D03*
X111270000Y-63620000D03*
X113810000Y-63620000D03*
X116350000Y-63620000D03*
X118890000Y-63620000D03*
X121430000Y-63620000D03*
X123970000Y-63620000D03*
X126510000Y-63620000D03*
X126510000Y-48380000D03*
X123970000Y-48380000D03*
X121430000Y-48380000D03*
X118890000Y-48380000D03*
X116350000Y-48380000D03*
X113810000Y-48380000D03*
X111270000Y-48380000D03*
X108730000Y-48380000D03*
X106190000Y-48380000D03*
X103650000Y-48380000D03*
X101110000Y-48380000D03*
X121430000Y-50920000D03*
X118890000Y-50920000D03*
X121430000Y-53460000D03*
X118890000Y-53460000D03*
X121430000Y-56000000D03*
X118890000Y-56000000D03*
X121430000Y-58540000D03*
X118890000Y-58540000D03*
X121430000Y-61080000D03*
X118890000Y-61080000D03*
X93490000Y-63620000D03*
X126510000Y-56000000D03*
X96030000Y-48380000D03*
X126510000Y-50920000D03*
X126510000Y-53460000D03*
X126510000Y-61080000D03*
X93490000Y-48380000D03*
X96030000Y-50920000D03*
D38*
X137173604Y-65648779D03*
X140143452Y-62678931D03*
D30*
X74135601Y-62871757D03*
X72968875Y-64038483D03*
D25*
X123525000Y-159200000D03*
D26*
X120985000Y-159200000D03*
X118445000Y-159200000D03*
D23*
X160717800Y-88000000D03*
X158000000Y-88000000D03*
X155282200Y-88000000D03*
D39*
X140930108Y-69263865D03*
X142043802Y-70377559D03*
D28*
X161999999Y-113500000D03*
D29*
X161999999Y-118500000D03*
D16*
X65226057Y-80266584D03*
X66322073Y-79170568D03*
D40*
X79315158Y-62146972D03*
X81931454Y-64763268D03*
D28*
X50000000Y-134500000D03*
D29*
X50000000Y-129500000D03*
D25*
X102525000Y-159200000D03*
D26*
X99985000Y-159200000D03*
X97445000Y-159200000D03*
D41*
X86121062Y-60785791D03*
X85025046Y-61881807D03*
D42*
X138110520Y-56544782D03*
X139206536Y-57640798D03*
D28*
X44250000Y-122000000D03*
D29*
X49250000Y-122000000D03*
D28*
X161999999Y-105500000D03*
D29*
X161999999Y-100500000D03*
D43*
X87325000Y-53000000D03*
X87325000Y-52000000D03*
X87325000Y-51000000D03*
X87325000Y-50000000D03*
X87325000Y-49000000D03*
D44*
X84800000Y-47700000D03*
X84800000Y-54300000D03*
D24*
X161833953Y-73197148D03*
X160737937Y-72101132D03*
D45*
X156000000Y-142000000D03*
D36*
X84350000Y-155125000D03*
X86000000Y-155125000D03*
D46*
X155869039Y-134067519D03*
D47*
X155869039Y-126867519D03*
D48*
X161869039Y-137217519D03*
X161869039Y-123717519D03*
D42*
X140938947Y-53716355D03*
X142034963Y-54812371D03*
D28*
X169999999Y-113750000D03*
D29*
X169999999Y-118750000D03*
D28*
X169999999Y-105500000D03*
D29*
X169999999Y-100500000D03*
D24*
X160419738Y-74611360D03*
X159323722Y-73515344D03*
D49*
X151094768Y-62811515D03*
X150741214Y-63165069D03*
X150387661Y-63518622D03*
X150034107Y-63872176D03*
X149680554Y-64225729D03*
X149327001Y-64579282D03*
X148973447Y-64932836D03*
X148619894Y-65286389D03*
X148266341Y-65639942D03*
X147912787Y-65993496D03*
X147559234Y-66347049D03*
X147205680Y-66700603D03*
D50*
X147205680Y-68698179D03*
X147559234Y-69051733D03*
X147912787Y-69405286D03*
X148266341Y-69758840D03*
X148619894Y-70112393D03*
X148973447Y-70465946D03*
X149327001Y-70819500D03*
X149680554Y-71173053D03*
X150034107Y-71526606D03*
X150387661Y-71880160D03*
X150741214Y-72233713D03*
X151094768Y-72587267D03*
D49*
X153092344Y-72587267D03*
X153445898Y-72233713D03*
X153799451Y-71880160D03*
X154153005Y-71526606D03*
X154506558Y-71173053D03*
X154860111Y-70819500D03*
X155213665Y-70465946D03*
X155567218Y-70112393D03*
X155920771Y-69758840D03*
X156274325Y-69405286D03*
X156627878Y-69051733D03*
X156981432Y-68698179D03*
D50*
X156981432Y-66700603D03*
X156627878Y-66347049D03*
X156274325Y-65993496D03*
X155920771Y-65639942D03*
X155567218Y-65286389D03*
X155213665Y-64932836D03*
X154860111Y-64579282D03*
X154506558Y-64225729D03*
X154153005Y-63872176D03*
X153799451Y-63518622D03*
X153445898Y-63165069D03*
X153092344Y-62811515D03*
D51*
X49000000Y-99000000D03*
D52*
X59286360Y-75352192D03*
X59993466Y-74645086D03*
X60700573Y-73937979D03*
X61407680Y-73230872D03*
X62114787Y-72523765D03*
X62821893Y-71816659D03*
D53*
X61955688Y-69111975D03*
X56581676Y-74485987D03*
D54*
X86252002Y-71874165D03*
X85544895Y-72581272D03*
X84837789Y-73288378D03*
X84130682Y-73995485D03*
X83423575Y-74702592D03*
X82716468Y-75409699D03*
X82009362Y-76116805D03*
X81302255Y-76823912D03*
D55*
X82168461Y-79528596D03*
X88956686Y-72740371D03*
D27*
X143024911Y-65701813D03*
X144191637Y-66868539D03*
D31*
X66604914Y-64745590D03*
X67771640Y-63578864D03*
D46*
X49000000Y-106400000D03*
D47*
X49000000Y-113600000D03*
D48*
X43000000Y-103250000D03*
X43000000Y-116750000D03*
D41*
X83292635Y-57957364D03*
X82196619Y-59053380D03*
D24*
X159005525Y-76025573D03*
X157909509Y-74929557D03*
D54*
X76823912Y-81302255D03*
X76116805Y-82009362D03*
X75409699Y-82716468D03*
X74702592Y-83423575D03*
X73995485Y-84130682D03*
X73288378Y-84837789D03*
X72581272Y-85544895D03*
X71874165Y-86252002D03*
D55*
X79528596Y-82168461D03*
X72740371Y-88956686D03*
M02*
