0
SECTION
2
HEADER
9
$INSUNITS
70
4
9
$ACADVER
1
AC1014
9
$HANDSEED
5
FFFF
0
ENDSEC
0
SECTION
2
TABLES
0
TABLE
2
VPORT
5
8
100
AcDbSymbolTable
0
ENDTAB
0
TABLE
2
LTYPE
5
5
100
AcDbSymbolTable
0
LTYPE
5
14
100
AcDbSymbolTableRecord
100
AcDbLinetypeTableRecord
2
BYBLOCK
70
0
0
LTYPE
5
15
100
AcDbSymbolTableRecord
100
AcDbLinetypeTableRecord
2
BYLAYER
70
0
0
ENDTAB
0
TABLE
2
LAYER
5
2
100
AcDbSymbolTable
70
2
0
LAYER
5
50
100
AcDbSymbolTableRecord
100
AcDbLayerTableRecord
2
0
70
0
6
CONTINUOUS
0
ENDTAB
0
TABLE
2
STYLE
5
3
100
AcDbSymbolTable
70
1
0
STYLE
5
11
100
AcDbSymbolTableRecord
100
AcDbTextStyleTableRecord
2
STANDARD
70
0
0
ENDTAB
0
TABLE
2
VIEW
5
6
100
AcDbSymbolTable
70
0
0
ENDTAB
0
TABLE
2
UCS
5
7
100
AcDbSymbolTable
70
0
0
ENDTAB
0
TABLE
2
APPID
5
9
100
AcDbSymbolTable
70
2
0
APPID
5
12
100
AcDbSymbolTableRecord
100
AcDbRegAppTableRecord
2
ACAD
70
0
0
ENDTAB
0
TABLE
2
DIMSTYLE
5
A
100
AcDbSymbolTable
70
1
0
ENDTAB
0
TABLE
2
BLOCK_RECORD
5
1
100
AcDbSymbolTable
70
1
0
BLOCK_RECORD
5
1F
100
AcDbSymbolTableRecord
100
AcDbBlockTableRecord
2
*MODEL_SPACE
0
BLOCK_RECORD
5
1B
100
AcDbSymbolTableRecord
100
AcDbBlockTableRecord
2
*PAPER_SPACE
0
ENDTAB
0
ENDSEC
0
SECTION
2
BLOCKS
0
BLOCK
5
20
100
AcDbEntity
100
AcDbBlockBegin
2
*MODEL_SPACE
0
ENDBLK
5
21
100
AcDbEntity
100
AcDbBlockEnd
0
BLOCK
5
1C
100
AcDbEntity
100
AcDbBlockBegin
2
*PAPER_SPACE
0
ENDBLK
5
1D
100
AcDbEntity
100
AcDbBlockEnd
0
ENDSEC
0
SECTION
2
ENTITIES
0
LWPOLYLINE
5
100
100
AcDbEntity
8
0
100
AcDbPolyline
90
4
70
1
43
0.0
10
-21.634506512209573
20
-53.088628989390642
10
-18.993074451682151
20
-54.510893616531959
10
-27.526662214530198
20
-70.359485979696856
10
-30.16809427505769
20
-68.937221352555511
0
CIRCLE
5
101
100
AcDbEntity
8
0
100
AcDbCircle
10
-29.999412592778448
20
-71.787913635153458
30
0
40
1.6000000000000014
210
0
220
0
230
1
0
CIRCLE
5
102
100
AcDbEntity
8
0
100
AcDbCircle
10
-19.16175613396134
20
-51.660201333934026
30
0
40
1.6000000000000036
210
0
220
0
230
1
0
CIRCLE
5
103
100
AcDbEntity
8
0
100
AcDbCircle
10
-43.417887460258058
20
-64.562809329275382
30
0
40
1.6000000000000014
210
0
220
0
230
1
0
CIRCLE
5
104
100
AcDbEntity
8
0
100
AcDbCircle
10
-32.580231001440964
20
-44.435097028055957
30
0
40
1.6000000000000014
210
0
220
0
230
1
0
CIRCLE
5
105
100
AcDbEntity
8
0
100
AcDbCircle
10
0
20
0
30
0
40
3.1000000000000005
210
0
220
0
230
1
0
CIRCLE
5
106
100
AcDbEntity
8
0
100
AcDbCircle
10
-39.823409559957781
20
-73.960097694769601
30
0
40
1.6000000000000014
210
0
220
0
230
1
0
CIRCLE
5
107
100
AcDbEntity
8
0
100
AcDbCircle
10
39.823409559957753
20
-73.96009769476963
30
0
40
1.6000000000000014
210
0
220
0
230
1
0
CIRCLE
5
108
100
AcDbEntity
8
0
100
AcDbCircle
10
-39.823409559957767
20
73.960097694769615
30
0
40
1.6000000000000014
210
0
220
0
230
1
0
CIRCLE
5
109
100
AcDbEntity
8
0
100
AcDbCircle
10
39.823409559957774
20
73.960097694769615
30
0
40
1.6000000000000014
210
0
220
0
230
1
0
LWPOLYLINE
5
110
100
AcDbEntity
8
0
100
AcDbPolyline
90
32
70
1
43
0.0
10
35.421022792412018
20
-76.330538740005395
42
0.99999999999999989
10
44.225796327503495
20
-71.58965664953385
10
41.656792077355561
20
-66.818497991379473
42
-0.35998803145149444
10
44.153869910891295
20
-54.317913913294653
42
0.4758306832321616
10
44.153869910891181
20
54.317913913294689
42
-0.35998803145149366
10
41.656792077355469
20
66.81849799137936
10
44.225796327503588
20
71.589656649534035
42
0.99999999999999989
10
35.421022792411975
20
76.330538740005196
10
32.852018542263899
20
71.559380081850605
42
-0.35998803145149322
10
21.041339381275673
20
66.76272940078151
42
0.15385287697508787
10
-21.041339381275669
20
66.76272940078151
42
-0.35998803145149483
10
-32.852018542263849
20
71.559380081850549
10
-35.421022792411961
20
76.330538740005181
42
0.99999999999999989
10
-44.225796327503573
20
71.589656649534064
10
-41.65679207735554
20
66.818497991379516
42
-0.35998803145149422
10
-44.153869910891302
20
54.317913913294625
42
0.47143082078426141
10
-44.930090424308951
20
-53.677620797343629
42
-0.35593384608710721
10
-43.736995829928077
20
-59.882177613818058
10
-45.619080844030961
20
-63.377588806657585
42
0.41421356237309592
10
-44.603107982875841
20
-66.764002713048271
10
-42.736495993436407
20
-67.769069716228188
42
-0.41421356237310203
10
-42.53330142120538
20
-68.446352497506325
10
-44.225796327503588
20
-71.589656649534021
42
0.99999999999999989
10
-35.421022792411982
20
-76.330538740005181
10
-33.728527886113774
20
-73.1872345879775
42
-0.41421356237308693
10
-33.051245104835637
20
-72.984040015746487
10
-31.184633115396238
20
-73.989107018926362
42
0.41421356237309453
10
-27.798219209005545
20
-72.973134157771256
10
-25.916134194902604
20
-69.477722964931672
42
-0.35593384608710504
10
-20.079497598866357
20
-67.058286409489455
42
0.15017612840864319
10
21.041339381275659
20
-66.76272940078151
42
-0.35998803145149388
10
32.852018542263863
20
-71.559380081850577
0
ENDSEC
0
SECTION
2
OBJECTS
0
DICTIONARY
5
C
100
AcDbDictionary
3
ACAD_GROUP
350
D
3
ACAD_MLINESTYLE
350
17
0
DICTIONARY
5
D
100
AcDbDictionary
0
DICTIONARY
5
1A
330
C
100
AcDbDictionary
0
DICTIONARY
5
17
100
AcDbDictionary
0
ENDSEC
0
EOF
