%TF.GenerationSoftware,KiCad,Pcbnew,(6.0.7-1)-1*%
%TF.CreationDate,2023-02-20T21:04:05+08:00*%
%TF.ProjectId,driver,64726976-6572-42e6-9b69-6361645f7063,1.1*%
%TF.SameCoordinates,Original*%
%TF.FileFunction,Soldermask,Top*%
%TF.FilePolarity,Negative*%
%FSLAX46Y46*%
G04 Gerber Fmt 4.6, Leading zero omitted, Abs format (unit mm)*
G04 Created by KiCad (PCBNEW (6.0.7-1)-1) date 2023-02-20 21:04:05*
%MOMM*%
%LPD*%
G01*
G04 APERTURE LIST*
G04 Aperture macros list*
%AMRoundRect*
0 Rectangle with rounded corners*
0 $1 Rounding radius*
0 $2 $3 $4 $5 $6 $7 $8 $9 X,Y pos of 4 corners*
0 Add a 4 corners polygon primitive as box body*
4,1,4,$2,$3,$4,$5,$6,$7,$8,$9,$2,$3,0*
0 Add four circle primitives for the rounded corners*
1,1,$1+$1,$2,$3*
1,1,$1+$1,$4,$5*
1,1,$1+$1,$6,$7*
1,1,$1+$1,$8,$9*
0 Add four rect primitives between the rounded corners*
20,1,$1+$1,$2,$3,$4,$5,0*
20,1,$1+$1,$4,$5,$6,$7,0*
20,1,$1+$1,$6,$7,$8,$9,0*
20,1,$1+$1,$8,$9,$2,$3,0*%
G04 Aperture macros list end*
%ADD10RoundRect,0.200000X0.200000X0.275000X-0.200000X0.275000X-0.200000X-0.275000X0.200000X-0.275000X0*%
%ADD11RoundRect,0.250000X0.350000X0.625000X-0.350000X0.625000X-0.350000X-0.625000X0.350000X-0.625000X0*%
%ADD12O,1.200000X1.750000*%
%ADD13RoundRect,0.218750X-0.256250X0.218750X-0.256250X-0.218750X0.256250X-0.218750X0.256250X0.218750X0*%
%ADD14RoundRect,0.014000X-0.881000X-0.161000X0.881000X-0.161000X0.881000X0.161000X-0.881000X0.161000X0*%
%ADD15R,2.100000X3.250000*%
%ADD16R,0.808000X0.808000*%
%ADD17R,4.950000X3.250000*%
%ADD18RoundRect,0.200000X-0.200000X-0.275000X0.200000X-0.275000X0.200000X0.275000X-0.200000X0.275000X0*%
%ADD19C,1.400000*%
%ADD20R,3.500000X3.500000*%
%ADD21C,3.500000*%
%ADD22RoundRect,0.218750X0.256250X-0.218750X0.256250X0.218750X-0.256250X0.218750X-0.256250X-0.218750X0*%
%ADD23RoundRect,0.200000X-0.275000X0.200000X-0.275000X-0.200000X0.275000X-0.200000X0.275000X0.200000X0*%
%ADD24RoundRect,0.225000X0.225000X0.250000X-0.225000X0.250000X-0.225000X-0.250000X0.225000X-0.250000X0*%
%ADD25RoundRect,0.150000X0.625000X-0.150000X0.625000X0.150000X-0.625000X0.150000X-0.625000X-0.150000X0*%
%ADD26RoundRect,0.250000X0.650000X-0.350000X0.650000X0.350000X-0.650000X0.350000X-0.650000X-0.350000X0*%
%ADD27RoundRect,0.250000X-1.000000X1.950000X-1.000000X-1.950000X1.000000X-1.950000X1.000000X1.950000X0*%
%ADD28R,1.200000X2.200000*%
%ADD29R,5.800000X6.400000*%
G04 APERTURE END LIST*
D10*
X121195700Y-106164350D03*
X119545700Y-106164350D03*
D11*
X115000000Y-95863750D03*
D12*
X113000000Y-95863750D03*
X111000000Y-95863750D03*
X109000000Y-95863750D03*
X107000000Y-95863750D03*
X105000000Y-95863750D03*
D13*
X120263900Y-92845050D03*
X120263900Y-94420050D03*
D10*
X101270700Y-107895950D03*
X99620700Y-107895950D03*
D14*
X105695000Y-101128150D03*
X105695000Y-101628150D03*
X105695000Y-102128150D03*
X105695000Y-102628150D03*
X105695000Y-103128150D03*
X105695000Y-103628150D03*
X105695000Y-104128150D03*
X105695000Y-104628150D03*
X105695000Y-105128150D03*
X105695000Y-105628150D03*
X105695000Y-106128150D03*
X105695000Y-106628150D03*
X105695000Y-107128150D03*
X105695000Y-107628150D03*
X105695000Y-108128150D03*
X105695000Y-108628150D03*
X105695000Y-109128150D03*
X105695000Y-109628150D03*
X115125000Y-109628150D03*
X115125000Y-109128150D03*
X115125000Y-108628150D03*
X115125000Y-108128150D03*
X115125000Y-107628150D03*
X115125000Y-107128150D03*
X115125000Y-106628150D03*
X115125000Y-106128150D03*
X115125000Y-105628150D03*
X115125000Y-105128150D03*
X115125000Y-104628150D03*
X115125000Y-104128150D03*
X115125000Y-103628150D03*
X115125000Y-103128150D03*
X115125000Y-102628150D03*
X115125000Y-102128150D03*
X115125000Y-101628150D03*
X115125000Y-101128150D03*
D15*
X111860000Y-103353150D03*
D16*
X112385000Y-104436150D03*
X111335000Y-104436150D03*
X112385000Y-103353150D03*
X111335000Y-103353150D03*
X112385000Y-102270150D03*
X111335000Y-102270150D03*
D15*
X108960000Y-103353150D03*
D16*
X109485000Y-104436150D03*
X108435000Y-104436150D03*
X109485000Y-103353150D03*
X108435000Y-103353150D03*
X109485000Y-102270150D03*
X108435000Y-102270150D03*
D17*
X110410000Y-107403150D03*
D16*
X112266250Y-108486150D03*
X111028750Y-108486150D03*
X109791250Y-108486150D03*
X108553750Y-108486150D03*
X112266250Y-107403150D03*
X111028750Y-107403150D03*
X109791250Y-107403150D03*
X108553750Y-107403150D03*
X112266250Y-106320150D03*
X111028750Y-106320150D03*
X109791250Y-106320150D03*
X108553750Y-106320150D03*
D18*
X99620700Y-106194150D03*
X101270700Y-106194150D03*
D19*
X94420700Y-120083750D03*
X105420700Y-120083750D03*
D20*
X102420700Y-115083750D03*
D21*
X97420700Y-115083750D03*
D18*
X99620700Y-109623150D03*
X101270700Y-109623150D03*
D22*
X121965700Y-94380050D03*
X121965700Y-92805050D03*
D10*
X121195700Y-100982750D03*
X119545700Y-100982750D03*
D18*
X119545700Y-104439550D03*
X121195700Y-104439550D03*
X119545700Y-102712350D03*
X121195700Y-102712350D03*
D23*
X118587500Y-92787550D03*
X118587500Y-94437550D03*
D24*
X121145700Y-109618750D03*
X119595700Y-109618750D03*
D25*
X99325000Y-98500000D03*
X99325000Y-97500000D03*
X99325000Y-96500000D03*
X99325000Y-95500000D03*
X99325000Y-94500000D03*
X99325000Y-93500000D03*
X99325000Y-92500000D03*
X99325000Y-91500000D03*
D26*
X96800000Y-90200000D03*
X96800000Y-99800000D03*
D27*
X119425000Y-114733750D03*
X119425000Y-122133750D03*
D10*
X121195700Y-107886350D03*
X119545700Y-107886350D03*
D28*
X113200700Y-114233750D03*
D29*
X110920700Y-120533750D03*
D28*
X108640700Y-114233750D03*
M02*
