M48
; DRILL file {KiCad (6.0.7-1)-1} date 2023 February 20, Monday 21:04:10
; FORMAT={-:-/ absolute / metric / decimal}
; #@! TF.CreationDate,2023-02-20T21:04:10+08:00
; #@! TF.GenerationSoftware,Kicad,Pcbnew,(6.0.7-1)-1
; #@! TF.FileFunction,Plated,1,2,PTH
FMAT,2
METRIC
; #@! TA.AperFunction,Plated,PTH,ComponentDrill
T1C0.300
; #@! TA.AperFunction,Plated,PTH,ViaDrill
T2C0.400
; #@! TA.AperFunction,Plated,PTH,ComponentDrill
T3C0.750
; #@! TA.AperFunction,Plated,PTH,ComponentDrill
T4C1.000
; #@! TA.AperFunction,Plated,PTH,ComponentDrill
T5C1.900
%
G90
G05
T1
X108.435Y-102.27
X108.435Y-103.353
X108.435Y-104.436
X108.554Y-106.32
X108.554Y-107.403
X108.554Y-108.486
X109.485Y-102.27
X109.485Y-103.353
X109.485Y-104.436
X109.791Y-106.32
X109.791Y-107.403
X109.791Y-108.486
X111.029Y-106.32
X111.029Y-107.403
X111.029Y-108.486
X111.335Y-102.27
X111.335Y-103.353
X111.335Y-104.436
X112.266Y-106.32
X112.266Y-107.403
X112.266Y-108.486
X112.385Y-102.27
X112.385Y-103.353
X112.385Y-104.436
T2
X95.0Y-91.5
X99.5Y-91.5
X100.5Y-102.5
X100.5Y-103.5
X100.5Y-104.5
X101.25Y-92.5
X101.25Y-100.75
X101.5Y-102.5
X101.5Y-103.5
X101.5Y-104.5
X117.0Y-106.0
X118.0Y-97.0
X118.0Y-98.0
X118.0Y-100.5
X118.0Y-101.5
X118.75Y-94.5
X119.0Y-98.0
X119.553Y-109.62
X120.25Y-94.5
X121.0Y-96.0
X121.0Y-97.0
X121.204Y-104.438
X121.204Y-106.166
X122.0Y-96.0
X122.0Y-97.0
T3
X105.0Y-95.864
X107.0Y-95.864
X109.0Y-95.864
X111.0Y-95.864
X113.0Y-95.864
X115.0Y-95.864
T4
X94.421Y-120.084
X105.421Y-120.084
T5
X97.421Y-115.084
X102.421Y-115.084
T0
M30
