%TF.GenerationSoftware,KiCad,Pcbnew,(6.0.7-1)-1*%
%TF.CreationDate,2022-08-20T15:22:06+08:00*%
%TF.ProjectId,VNH5050A (test),564e4835-3035-4304-9120-287465737429,rev?*%
%TF.SameCoordinates,Original*%
%TF.FileFunction,Legend,Top*%
%TF.FilePolarity,Positive*%
%FSLAX46Y46*%
G04 Gerber Fmt 4.6, Leading zero omitted, Abs format (unit mm)*
G04 Created by KiCad (PCBNEW (6.0.7-1)-1) date 2022-08-20 15:22:06*
%MOMM*%
%LPD*%
G01*
G04 APERTURE LIST*
G04 Aperture macros list*
%AMRoundRect*
0 Rectangle with rounded corners*
0 $1 Rounding radius*
0 $2 $3 $4 $5 $6 $7 $8 $9 X,Y pos of 4 corners*
0 Add a 4 corners polygon primitive as box body*
4,1,4,$2,$3,$4,$5,$6,$7,$8,$9,$2,$3,0*
0 Add four circle primitives for the rounded corners*
1,1,$1+$1,$2,$3*
1,1,$1+$1,$4,$5*
1,1,$1+$1,$6,$7*
1,1,$1+$1,$8,$9*
0 Add four rect primitives between the rounded corners*
20,1,$1+$1,$2,$3,$4,$5,0*
20,1,$1+$1,$4,$5,$6,$7,0*
20,1,$1+$1,$6,$7,$8,$9,0*
20,1,$1+$1,$8,$9,$2,$3,0*%
G04 Aperture macros list end*
%ADD10C,0.150000*%
%ADD11C,0.127000*%
%ADD12C,0.120000*%
%ADD13C,0.203200*%
%ADD14C,0.200000*%
%ADD15RoundRect,0.250000X-1.000000X1.950000X-1.000000X-1.950000X1.000000X-1.950000X1.000000X1.950000X0*%
%ADD16RoundRect,0.200000X0.200000X0.275000X-0.200000X0.275000X-0.200000X-0.275000X0.200000X-0.275000X0*%
%ADD17R,1.200000X2.200000*%
%ADD18R,5.800000X6.400000*%
%ADD19R,3.000000X3.000000*%
%ADD20C,3.000000*%
%ADD21RoundRect,0.225000X0.225000X0.250000X-0.225000X0.250000X-0.225000X-0.250000X0.225000X-0.250000X0*%
%ADD22C,2.082800*%
%ADD23RoundRect,0.250000X0.350000X0.625000X-0.350000X0.625000X-0.350000X-0.625000X0.350000X-0.625000X0*%
%ADD24O,1.200000X1.750000*%
%ADD25RoundRect,0.200000X-0.200000X-0.275000X0.200000X-0.275000X0.200000X0.275000X-0.200000X0.275000X0*%
%ADD26RoundRect,0.218750X0.256250X-0.218750X0.256250X0.218750X-0.256250X0.218750X-0.256250X-0.218750X0*%
%ADD27RoundRect,0.200000X-0.275000X0.200000X-0.275000X-0.200000X0.275000X-0.200000X0.275000X0.200000X0*%
%ADD28RoundRect,0.218750X-0.256250X0.218750X-0.256250X-0.218750X0.256250X-0.218750X0.256250X0.218750X0*%
%ADD29RoundRect,0.014000X-0.881000X-0.161000X0.881000X-0.161000X0.881000X0.161000X-0.881000X0.161000X0*%
%ADD30R,2.100000X3.250000*%
%ADD31R,0.808000X0.808000*%
%ADD32R,4.950000X3.250000*%
G04 APERTURE END LIST*
D10*
X167874542Y-113881266D02*
X167922161Y-113928885D01*
X167969780Y-114071742D01*
X167969780Y-114166980D01*
X167922161Y-114309838D01*
X167826923Y-114405076D01*
X167731685Y-114452695D01*
X167541209Y-114500314D01*
X167398352Y-114500314D01*
X167207876Y-114452695D01*
X167112638Y-114405076D01*
X167017400Y-114309838D01*
X166969780Y-114166980D01*
X166969780Y-114071742D01*
X167017400Y-113928885D01*
X167065019Y-113881266D01*
X167969780Y-112928885D02*
X167969780Y-113500314D01*
X167969780Y-113214600D02*
X166969780Y-113214600D01*
X167112638Y-113309838D01*
X167207876Y-113405076D01*
X167255495Y-113500314D01*
X162094142Y-96715980D02*
X161760809Y-96239790D01*
X161522713Y-96715980D02*
X161522713Y-95715980D01*
X161903666Y-95715980D01*
X161998904Y-95763600D01*
X162046523Y-95811219D01*
X162094142Y-95906457D01*
X162094142Y-96049314D01*
X162046523Y-96144552D01*
X161998904Y-96192171D01*
X161903666Y-96239790D01*
X161522713Y-96239790D01*
X162475094Y-95811219D02*
X162522713Y-95763600D01*
X162617951Y-95715980D01*
X162856047Y-95715980D01*
X162951285Y-95763600D01*
X162998904Y-95811219D01*
X163046523Y-95906457D01*
X163046523Y-96001695D01*
X162998904Y-96144552D01*
X162427475Y-96715980D01*
X163046523Y-96715980D01*
X167094761Y-96715980D02*
X166523332Y-96715980D01*
X166809047Y-96715980D02*
X166809047Y-95715980D01*
X166713809Y-95858838D01*
X166618570Y-95954076D01*
X166523332Y-96001695D01*
X167523332Y-96715980D02*
X167523332Y-95715980D01*
X167618570Y-96335028D02*
X167904285Y-96715980D01*
X167904285Y-96049314D02*
X167523332Y-96430266D01*
X158760719Y-113809838D02*
X158713100Y-113905076D01*
X158617861Y-114000314D01*
X158475004Y-114143171D01*
X158427385Y-114238409D01*
X158427385Y-114333647D01*
X158665480Y-114286028D02*
X158617861Y-114381266D01*
X158522623Y-114476504D01*
X158332147Y-114524123D01*
X157998814Y-114524123D01*
X157808338Y-114476504D01*
X157713100Y-114381266D01*
X157665480Y-114286028D01*
X157665480Y-114095552D01*
X157713100Y-114000314D01*
X157808338Y-113905076D01*
X157998814Y-113857457D01*
X158332147Y-113857457D01*
X158522623Y-113905076D01*
X158617861Y-114000314D01*
X158665480Y-114095552D01*
X158665480Y-114286028D01*
X158665480Y-112905076D02*
X158665480Y-113476504D01*
X158665480Y-113190790D02*
X157665480Y-113190790D01*
X157808338Y-113286028D01*
X157903576Y-113381266D01*
X157951195Y-113476504D01*
X141692380Y-114047933D02*
X142406666Y-114047933D01*
X142549523Y-114095552D01*
X142644761Y-114190790D01*
X142692380Y-114333647D01*
X142692380Y-114428885D01*
X142692380Y-113047933D02*
X142692380Y-113619361D01*
X142692380Y-113333647D02*
X141692380Y-113333647D01*
X141835238Y-113428885D01*
X141930476Y-113524123D01*
X141978095Y-113619361D01*
X146715942Y-120786028D02*
X146715942Y-119643171D01*
X147287371Y-120214600D02*
X146144514Y-120214600D01*
X146715942Y-107786028D02*
X146715942Y-106643171D01*
X162094142Y-105261142D02*
X162046523Y-105308761D01*
X161903666Y-105356380D01*
X161808428Y-105356380D01*
X161665570Y-105308761D01*
X161570332Y-105213523D01*
X161522713Y-105118285D01*
X161475094Y-104927809D01*
X161475094Y-104784952D01*
X161522713Y-104594476D01*
X161570332Y-104499238D01*
X161665570Y-104404000D01*
X161808428Y-104356380D01*
X161903666Y-104356380D01*
X162046523Y-104404000D01*
X162094142Y-104451619D01*
X162475094Y-104451619D02*
X162522713Y-104404000D01*
X162617951Y-104356380D01*
X162856047Y-104356380D01*
X162951285Y-104404000D01*
X162998904Y-104451619D01*
X163046523Y-104546857D01*
X163046523Y-104642095D01*
X162998904Y-104784952D01*
X162427475Y-105356380D01*
X163046523Y-105356380D01*
D11*
X142999571Y-98322200D02*
X143435000Y-98322200D01*
X143522085Y-98351228D01*
X143580142Y-98409285D01*
X143609171Y-98496371D01*
X143609171Y-98554428D01*
X142999571Y-98089971D02*
X142999571Y-97712600D01*
X143231800Y-97915800D01*
X143231800Y-97828714D01*
X143260828Y-97770657D01*
X143289857Y-97741628D01*
X143347914Y-97712600D01*
X143493057Y-97712600D01*
X143551114Y-97741628D01*
X143580142Y-97770657D01*
X143609171Y-97828714D01*
X143609171Y-98002885D01*
X143580142Y-98060942D01*
X143551114Y-98089971D01*
D10*
X155725466Y-91039780D02*
X155725466Y-91754066D01*
X155677847Y-91896923D01*
X155582609Y-91992161D01*
X155439752Y-92039780D01*
X155344514Y-92039780D01*
X156154038Y-91135019D02*
X156201657Y-91087400D01*
X156296895Y-91039780D01*
X156534990Y-91039780D01*
X156630228Y-91087400D01*
X156677847Y-91135019D01*
X156725466Y-91230257D01*
X156725466Y-91325495D01*
X156677847Y-91468352D01*
X156106419Y-92039780D01*
X156725466Y-92039780D01*
X162094142Y-98445580D02*
X161760809Y-97969390D01*
X161522713Y-98445580D02*
X161522713Y-97445580D01*
X161903666Y-97445580D01*
X161998904Y-97493200D01*
X162046523Y-97540819D01*
X162094142Y-97636057D01*
X162094142Y-97778914D01*
X162046523Y-97874152D01*
X161998904Y-97921771D01*
X161903666Y-97969390D01*
X161522713Y-97969390D01*
X162998904Y-97445580D02*
X162522713Y-97445580D01*
X162475094Y-97921771D01*
X162522713Y-97874152D01*
X162617951Y-97826533D01*
X162856047Y-97826533D01*
X162951285Y-97874152D01*
X162998904Y-97921771D01*
X163046523Y-98017009D01*
X163046523Y-98255104D01*
X162998904Y-98350342D01*
X162951285Y-98397961D01*
X162856047Y-98445580D01*
X162617951Y-98445580D01*
X162522713Y-98397961D01*
X162475094Y-98350342D01*
X167069361Y-98420180D02*
X166497932Y-98420180D01*
X166783647Y-98420180D02*
X166783647Y-97420180D01*
X166688409Y-97563038D01*
X166593170Y-97658276D01*
X166497932Y-97705895D01*
X167497932Y-98420180D02*
X167497932Y-97420180D01*
X167593170Y-98039228D02*
X167878885Y-98420180D01*
X167878885Y-97753514D02*
X167497932Y-98134466D01*
X173630780Y-92126095D02*
X172630780Y-92126095D01*
X172630780Y-91888000D01*
X172678400Y-91745142D01*
X172773638Y-91649904D01*
X172868876Y-91602285D01*
X173059352Y-91554666D01*
X173202209Y-91554666D01*
X173392685Y-91602285D01*
X173487923Y-91649904D01*
X173583161Y-91745142D01*
X173630780Y-91888000D01*
X173630780Y-92126095D01*
X173630780Y-90602285D02*
X173630780Y-91173714D01*
X173630780Y-90888000D02*
X172630780Y-90888000D01*
X172773638Y-90983238D01*
X172868876Y-91078476D01*
X172916495Y-91173714D01*
X162094142Y-100172780D02*
X161760809Y-99696590D01*
X161522713Y-100172780D02*
X161522713Y-99172780D01*
X161903666Y-99172780D01*
X161998904Y-99220400D01*
X162046523Y-99268019D01*
X162094142Y-99363257D01*
X162094142Y-99506114D01*
X162046523Y-99601352D01*
X161998904Y-99648971D01*
X161903666Y-99696590D01*
X161522713Y-99696590D01*
X162570332Y-100172780D02*
X162760809Y-100172780D01*
X162856047Y-100125161D01*
X162903666Y-100077542D01*
X162998904Y-99934685D01*
X163046523Y-99744209D01*
X163046523Y-99363257D01*
X162998904Y-99268019D01*
X162951285Y-99220400D01*
X162856047Y-99172780D01*
X162665570Y-99172780D01*
X162570332Y-99220400D01*
X162522713Y-99268019D01*
X162475094Y-99363257D01*
X162475094Y-99601352D01*
X162522713Y-99696590D01*
X162570332Y-99744209D01*
X162665570Y-99791828D01*
X162856047Y-99791828D01*
X162951285Y-99744209D01*
X162998904Y-99696590D01*
X163046523Y-99601352D01*
X167075770Y-100172780D02*
X166504342Y-100172780D01*
X166790056Y-100172780D02*
X166790056Y-99172780D01*
X166694818Y-99315638D01*
X166599580Y-99410876D01*
X166504342Y-99458495D01*
X167694818Y-99172780D02*
X167790056Y-99172780D01*
X167885294Y-99220400D01*
X167932913Y-99268019D01*
X167980532Y-99363257D01*
X168028151Y-99553733D01*
X168028151Y-99791828D01*
X167980532Y-99982304D01*
X167932913Y-100077542D01*
X167885294Y-100125161D01*
X167790056Y-100172780D01*
X167694818Y-100172780D01*
X167599580Y-100125161D01*
X167551961Y-100077542D01*
X167504342Y-99982304D01*
X167456723Y-99791828D01*
X167456723Y-99553733D01*
X167504342Y-99363257D01*
X167551961Y-99268019D01*
X167599580Y-99220400D01*
X167694818Y-99172780D01*
X168456723Y-100172780D02*
X168456723Y-99172780D01*
X168551961Y-99791828D02*
X168837675Y-100172780D01*
X168837675Y-99506114D02*
X168456723Y-99887066D01*
X147920942Y-105330980D02*
X147587609Y-104854790D01*
X147349513Y-105330980D02*
X147349513Y-104330980D01*
X147730466Y-104330980D01*
X147825704Y-104378600D01*
X147873323Y-104426219D01*
X147920942Y-104521457D01*
X147920942Y-104664314D01*
X147873323Y-104759552D01*
X147825704Y-104807171D01*
X147730466Y-104854790D01*
X147349513Y-104854790D01*
X148254275Y-104330980D02*
X148873323Y-104330980D01*
X148539989Y-104711933D01*
X148682847Y-104711933D01*
X148778085Y-104759552D01*
X148825704Y-104807171D01*
X148873323Y-104902409D01*
X148873323Y-105140504D01*
X148825704Y-105235742D01*
X148778085Y-105283361D01*
X148682847Y-105330980D01*
X148397132Y-105330980D01*
X148301894Y-105283361D01*
X148254275Y-105235742D01*
X143091761Y-105356380D02*
X142520332Y-105356380D01*
X142806047Y-105356380D02*
X142806047Y-104356380D01*
X142710809Y-104499238D01*
X142615570Y-104594476D01*
X142520332Y-104642095D01*
X143520332Y-105356380D02*
X143520332Y-104356380D01*
X143615570Y-104975428D02*
X143901285Y-105356380D01*
X143901285Y-104689714D02*
X143520332Y-105070666D01*
X147920942Y-101927380D02*
X147587609Y-101451190D01*
X147349513Y-101927380D02*
X147349513Y-100927380D01*
X147730466Y-100927380D01*
X147825704Y-100975000D01*
X147873323Y-101022619D01*
X147920942Y-101117857D01*
X147920942Y-101260714D01*
X147873323Y-101355952D01*
X147825704Y-101403571D01*
X147730466Y-101451190D01*
X147349513Y-101451190D01*
X148873323Y-101927380D02*
X148301894Y-101927380D01*
X148587609Y-101927380D02*
X148587609Y-100927380D01*
X148492370Y-101070238D01*
X148397132Y-101165476D01*
X148301894Y-101213095D01*
X143091761Y-101927380D02*
X142520332Y-101927380D01*
X142806047Y-101927380D02*
X142806047Y-100927380D01*
X142710809Y-101070238D01*
X142615570Y-101165476D01*
X142520332Y-101213095D01*
X143520332Y-101927380D02*
X143520332Y-100927380D01*
X143615570Y-101546428D02*
X143901285Y-101927380D01*
X143901285Y-101260714D02*
X143520332Y-101641666D01*
X162094142Y-101872180D02*
X161760809Y-101395990D01*
X161522713Y-101872180D02*
X161522713Y-100872180D01*
X161903666Y-100872180D01*
X161998904Y-100919800D01*
X162046523Y-100967419D01*
X162094142Y-101062657D01*
X162094142Y-101205514D01*
X162046523Y-101300752D01*
X161998904Y-101348371D01*
X161903666Y-101395990D01*
X161522713Y-101395990D01*
X162665570Y-101300752D02*
X162570332Y-101253133D01*
X162522713Y-101205514D01*
X162475094Y-101110276D01*
X162475094Y-101062657D01*
X162522713Y-100967419D01*
X162570332Y-100919800D01*
X162665570Y-100872180D01*
X162856047Y-100872180D01*
X162951285Y-100919800D01*
X162998904Y-100967419D01*
X163046523Y-101062657D01*
X163046523Y-101110276D01*
X162998904Y-101205514D01*
X162951285Y-101253133D01*
X162856047Y-101300752D01*
X162665570Y-101300752D01*
X162570332Y-101348371D01*
X162522713Y-101395990D01*
X162475094Y-101491228D01*
X162475094Y-101681704D01*
X162522713Y-101776942D01*
X162570332Y-101824561D01*
X162665570Y-101872180D01*
X162856047Y-101872180D01*
X162951285Y-101824561D01*
X162998904Y-101776942D01*
X163046523Y-101681704D01*
X163046523Y-101491228D01*
X162998904Y-101395990D01*
X162951285Y-101348371D01*
X162856047Y-101300752D01*
X167075770Y-101872180D02*
X166504342Y-101872180D01*
X166790056Y-101872180D02*
X166790056Y-100872180D01*
X166694818Y-101015038D01*
X166599580Y-101110276D01*
X166504342Y-101157895D01*
X167504342Y-101872180D02*
X167504342Y-100872180D01*
X167599580Y-101491228D02*
X167885294Y-101872180D01*
X167885294Y-101205514D02*
X167504342Y-101586466D01*
X168790056Y-100872180D02*
X168313866Y-100872180D01*
X168266247Y-101348371D01*
X168313866Y-101300752D01*
X168409104Y-101253133D01*
X168647199Y-101253133D01*
X168742437Y-101300752D01*
X168790056Y-101348371D01*
X168837675Y-101443609D01*
X168837675Y-101681704D01*
X168790056Y-101776942D01*
X168742437Y-101824561D01*
X168647199Y-101872180D01*
X168409104Y-101872180D01*
X168313866Y-101824561D01*
X168266247Y-101776942D01*
X170227180Y-86367666D02*
X169750990Y-86701000D01*
X170227180Y-86939095D02*
X169227180Y-86939095D01*
X169227180Y-86558142D01*
X169274800Y-86462904D01*
X169322419Y-86415285D01*
X169417657Y-86367666D01*
X169560514Y-86367666D01*
X169655752Y-86415285D01*
X169703371Y-86462904D01*
X169750990Y-86558142D01*
X169750990Y-86939095D01*
X169227180Y-85510523D02*
X169227180Y-85701000D01*
X169274800Y-85796238D01*
X169322419Y-85843857D01*
X169465276Y-85939095D01*
X169655752Y-85986714D01*
X170036704Y-85986714D01*
X170131942Y-85939095D01*
X170179561Y-85891476D01*
X170227180Y-85796238D01*
X170227180Y-85605761D01*
X170179561Y-85510523D01*
X170131942Y-85462904D01*
X170036704Y-85415285D01*
X169798609Y-85415285D01*
X169703371Y-85462904D01*
X169655752Y-85510523D01*
X169608133Y-85605761D01*
X169608133Y-85796238D01*
X169655752Y-85891476D01*
X169703371Y-85939095D01*
X169798609Y-85986714D01*
X169560514Y-93022371D02*
X170227180Y-93022371D01*
X169179561Y-93260466D02*
X169893847Y-93498561D01*
X169893847Y-92879514D01*
X170131942Y-92498561D02*
X170179561Y-92450942D01*
X170227180Y-92498561D01*
X170179561Y-92546180D01*
X170131942Y-92498561D01*
X170227180Y-92498561D01*
X169227180Y-92117609D02*
X169227180Y-91450942D01*
X170227180Y-91879514D01*
X170227180Y-91069990D02*
X169227180Y-91069990D01*
X169846228Y-90974752D02*
X170227180Y-90689038D01*
X169560514Y-90689038D02*
X169941466Y-91069990D01*
X162043342Y-103624780D02*
X161710009Y-103148590D01*
X161471913Y-103624780D02*
X161471913Y-102624780D01*
X161852866Y-102624780D01*
X161948104Y-102672400D01*
X161995723Y-102720019D01*
X162043342Y-102815257D01*
X162043342Y-102958114D01*
X161995723Y-103053352D01*
X161948104Y-103100971D01*
X161852866Y-103148590D01*
X161471913Y-103148590D01*
X162376675Y-102624780D02*
X163043342Y-102624780D01*
X162614770Y-103624780D01*
X167075770Y-103599380D02*
X166504342Y-103599380D01*
X166790056Y-103599380D02*
X166790056Y-102599380D01*
X166694818Y-102742238D01*
X166599580Y-102837476D01*
X166504342Y-102885095D01*
X167694818Y-102599380D02*
X167790056Y-102599380D01*
X167885294Y-102647000D01*
X167932913Y-102694619D01*
X167980532Y-102789857D01*
X168028151Y-102980333D01*
X168028151Y-103218428D01*
X167980532Y-103408904D01*
X167932913Y-103504142D01*
X167885294Y-103551761D01*
X167790056Y-103599380D01*
X167694818Y-103599380D01*
X167599580Y-103551761D01*
X167551961Y-103504142D01*
X167504342Y-103408904D01*
X167456723Y-103218428D01*
X167456723Y-102980333D01*
X167504342Y-102789857D01*
X167551961Y-102694619D01*
X167599580Y-102647000D01*
X167694818Y-102599380D01*
X168456723Y-103599380D02*
X168456723Y-102599380D01*
X168551961Y-103218428D02*
X168837675Y-103599380D01*
X168837675Y-102932714D02*
X168456723Y-103313666D01*
X171928980Y-86959095D02*
X170928980Y-86959095D01*
X170928980Y-86721000D01*
X170976600Y-86578142D01*
X171071838Y-86482904D01*
X171167076Y-86435285D01*
X171357552Y-86387666D01*
X171500409Y-86387666D01*
X171690885Y-86435285D01*
X171786123Y-86482904D01*
X171881361Y-86578142D01*
X171928980Y-86721000D01*
X171928980Y-86959095D01*
X171024219Y-86006714D02*
X170976600Y-85959095D01*
X170928980Y-85863857D01*
X170928980Y-85625761D01*
X170976600Y-85530523D01*
X171024219Y-85482904D01*
X171119457Y-85435285D01*
X171214695Y-85435285D01*
X171357552Y-85482904D01*
X171928980Y-86054333D01*
X171928980Y-85435285D01*
X151950104Y-94049380D02*
X151950104Y-94858904D01*
X151997723Y-94954142D01*
X152045342Y-95001761D01*
X152140580Y-95049380D01*
X152331056Y-95049380D01*
X152426294Y-95001761D01*
X152473913Y-94954142D01*
X152521532Y-94858904D01*
X152521532Y-94049380D01*
X153521532Y-95049380D02*
X152950104Y-95049380D01*
X153235818Y-95049380D02*
X153235818Y-94049380D01*
X153140580Y-94192238D01*
X153045342Y-94287476D01*
X152950104Y-94335095D01*
X147920942Y-103578380D02*
X147587609Y-103102190D01*
X147349513Y-103578380D02*
X147349513Y-102578380D01*
X147730466Y-102578380D01*
X147825704Y-102626000D01*
X147873323Y-102673619D01*
X147920942Y-102768857D01*
X147920942Y-102911714D01*
X147873323Y-103006952D01*
X147825704Y-103054571D01*
X147730466Y-103102190D01*
X147349513Y-103102190D01*
X148778085Y-102911714D02*
X148778085Y-103578380D01*
X148539989Y-102530761D02*
X148301894Y-103245047D01*
X148920942Y-103245047D01*
X143091761Y-103629180D02*
X142520332Y-103629180D01*
X142806047Y-103629180D02*
X142806047Y-102629180D01*
X142710809Y-102772038D01*
X142615570Y-102867276D01*
X142520332Y-102914895D01*
X143520332Y-103629180D02*
X143520332Y-102629180D01*
X143615570Y-103248228D02*
X143901285Y-103629180D01*
X143901285Y-102962514D02*
X143520332Y-103343466D01*
D12*
X157857400Y-110419037D02*
X157857400Y-118074600D01*
X158921837Y-109354600D02*
X160707400Y-109354600D01*
X164727400Y-108114600D02*
X164727400Y-109114600D01*
X158921837Y-109354600D02*
X157857400Y-110419037D01*
X166577400Y-118074600D02*
X163727400Y-118074600D01*
X165227400Y-108614600D02*
X164227400Y-108614600D01*
X157857400Y-118074600D02*
X160707400Y-118074600D01*
X165512963Y-109354600D02*
X166577400Y-110419037D01*
X166577400Y-110419037D02*
X166577400Y-118074600D01*
X165512963Y-109354600D02*
X163727400Y-109354600D01*
X165038067Y-95741100D02*
X164563551Y-95741100D01*
X165038067Y-96786100D02*
X164563551Y-96786100D01*
X156893100Y-111244600D02*
X156893100Y-108414600D01*
X150263100Y-112744600D02*
X150263100Y-111244600D01*
X157163100Y-111244600D02*
X156893100Y-111244600D01*
X150533100Y-111244600D02*
X150533100Y-110144600D01*
X157163100Y-112744600D02*
X157163100Y-111244600D01*
X150263100Y-111244600D02*
X150533100Y-111244600D01*
X149318800Y-118924600D02*
X143898800Y-118924600D01*
X145198800Y-108504600D02*
X143898800Y-110204600D01*
X148018800Y-108504600D02*
X145198800Y-108504600D01*
X149318800Y-110204600D02*
X149318800Y-118924600D01*
X148018800Y-108504600D02*
X149318800Y-110204600D01*
X143898800Y-110204600D02*
X143898800Y-118924600D01*
X164941389Y-105409600D02*
X164660229Y-105409600D01*
X164941389Y-104389600D02*
X164660229Y-104389600D01*
D13*
X146508400Y-86054000D02*
X145873400Y-86689000D01*
X145873400Y-99389000D02*
X146508400Y-98754000D01*
X143968400Y-84784000D02*
X144603400Y-84149000D01*
X146508400Y-94944000D02*
X146508400Y-96214000D01*
X145873400Y-84149000D02*
X146508400Y-84784000D01*
X145873400Y-89229000D02*
X146508400Y-89864000D01*
X143968400Y-86054000D02*
X143968400Y-84784000D01*
X143968400Y-89864000D02*
X144603400Y-89229000D01*
X143968400Y-88594000D02*
X143968400Y-87324000D01*
X143968400Y-87324000D02*
X144603400Y-86689000D01*
X143968400Y-91134000D02*
X144603400Y-91769000D01*
X146508400Y-82244000D02*
X146508400Y-83514000D01*
X145873400Y-91769000D02*
X146508400Y-91134000D01*
X145873400Y-96849000D02*
X146508400Y-97484000D01*
X146508400Y-97484000D02*
X146508400Y-98754000D01*
X143968400Y-97484000D02*
X144603400Y-96849000D01*
X143968400Y-91134000D02*
X143968400Y-89864000D01*
X143968400Y-83514000D02*
X144603400Y-84149000D01*
X144603400Y-94309000D02*
X143968400Y-93674000D01*
X143968400Y-96214000D02*
X143968400Y-94944000D01*
X144603400Y-89229000D02*
X143968400Y-88594000D01*
X144603400Y-81609000D02*
X145873400Y-81609000D01*
X145873400Y-84149000D02*
X146508400Y-83514000D01*
X143968400Y-92404000D02*
X144603400Y-91769000D01*
X146508400Y-84784000D02*
X146508400Y-86054000D01*
X145873400Y-91769000D02*
X146508400Y-92404000D01*
X143968400Y-83514000D02*
X143968400Y-82244000D01*
X146508400Y-87324000D02*
X146508400Y-88594000D01*
X143968400Y-94944000D02*
X144603400Y-94309000D01*
X144603400Y-99389000D02*
X145873400Y-99389000D01*
X146508400Y-88594000D02*
X145873400Y-89229000D01*
X146508400Y-96214000D02*
X145873400Y-96849000D01*
X143968400Y-82244000D02*
X144603400Y-81609000D01*
X144603400Y-96849000D02*
X143968400Y-96214000D01*
X143968400Y-98754000D02*
X144603400Y-99389000D01*
X146508400Y-89864000D02*
X146508400Y-91134000D01*
X145873400Y-81609000D02*
X146508400Y-82244000D01*
X145873400Y-86689000D02*
X146508400Y-87324000D01*
X146508400Y-93674000D02*
X145873400Y-94309000D01*
X146508400Y-92404000D02*
X146508400Y-93674000D01*
X145873400Y-94309000D02*
X146508400Y-94944000D01*
X144603400Y-86689000D02*
X143968400Y-86054000D01*
X143968400Y-93674000D02*
X143968400Y-92404000D01*
X143968400Y-98754000D02*
X143968400Y-97484000D01*
D12*
X162358800Y-84937400D02*
X161358800Y-84937400D01*
X162198800Y-90497400D02*
X163118800Y-90497400D01*
X161358800Y-84937400D02*
X161358800Y-86537400D01*
X163118800Y-82677400D02*
X148998800Y-82677400D01*
X149758800Y-84937400D02*
X150758800Y-84937400D01*
X150758800Y-84937400D02*
X150758800Y-86537400D01*
X162358800Y-86537400D02*
X162358800Y-84937400D01*
X161918800Y-88897400D02*
X162198800Y-88897400D01*
X151558800Y-87037400D02*
X151558800Y-82677400D01*
X149758800Y-86537400D02*
X149758800Y-84937400D01*
X161358800Y-86537400D02*
X162358800Y-86537400D01*
X163118800Y-88897400D02*
X162198800Y-88897400D01*
X161358800Y-84937400D02*
X161358800Y-82677400D01*
X163118800Y-90497400D02*
X163118800Y-82677400D01*
X161858800Y-84937400D02*
X161858800Y-82677400D01*
X148998800Y-90497400D02*
X149918800Y-90497400D01*
X160558800Y-82677400D02*
X160558800Y-87037400D01*
X149918800Y-90497400D02*
X149918800Y-88897400D01*
X150758800Y-86537400D02*
X149758800Y-86537400D01*
X148998800Y-82677400D02*
X148998800Y-90497400D01*
X161918800Y-88897400D02*
X161918800Y-90112400D01*
X162198800Y-88897400D02*
X162198800Y-90497400D01*
X148998800Y-88897400D02*
X149918800Y-88897400D01*
X149918800Y-88897400D02*
X150198800Y-88897400D01*
X160558800Y-87037400D02*
X151558800Y-87037400D01*
X164563551Y-97470700D02*
X165038067Y-97470700D01*
X164563551Y-98515700D02*
X165038067Y-98515700D01*
X172418000Y-90358400D02*
X173888000Y-90358400D01*
X172418000Y-88073400D02*
X172418000Y-90358400D01*
X173888000Y-90358400D02*
X173888000Y-88073400D01*
X164563551Y-99197900D02*
X165038067Y-99197900D01*
X164563551Y-100242900D02*
X165038067Y-100242900D01*
X145386551Y-104381500D02*
X145861067Y-104381500D01*
X145386551Y-105426500D02*
X145861067Y-105426500D01*
X145386551Y-101997500D02*
X145861067Y-101997500D01*
X145386551Y-100952500D02*
X145861067Y-100952500D01*
X165038067Y-100922700D02*
X164563551Y-100922700D01*
X165038067Y-101967700D02*
X164563551Y-101967700D01*
X169252300Y-88656142D02*
X169252300Y-89130658D01*
X170297300Y-88656142D02*
X170297300Y-89130658D01*
X165038067Y-103689700D02*
X164563551Y-103689700D01*
X165038067Y-102644700D02*
X164563551Y-102644700D01*
X172186200Y-89713400D02*
X172186200Y-87428400D01*
X172186200Y-87428400D02*
X170716200Y-87428400D01*
X170716200Y-87428400D02*
X170716200Y-89713400D01*
D11*
X151327009Y-105909000D02*
X158927009Y-105909000D01*
X151327009Y-95409000D02*
X158927009Y-95409000D01*
D14*
X148722009Y-96059000D02*
G75*
G03*
X148722009Y-96059000I-100000J0D01*
G01*
D12*
X145861067Y-103699300D02*
X145386551Y-103699300D01*
X145861067Y-102654300D02*
X145386551Y-102654300D01*
%LPC*%
D15*
X162217400Y-110014600D03*
X162217400Y-117414600D03*
D16*
X165625809Y-96263600D03*
X163975809Y-96263600D03*
D17*
X155993100Y-109514600D03*
D18*
X153713100Y-115814600D03*
D17*
X151433100Y-109514600D03*
D19*
X146608800Y-111214600D03*
D20*
X146608800Y-116214600D03*
D21*
X165575809Y-104899600D03*
X164025809Y-104899600D03*
D22*
X145111400Y-98119000D03*
X145365400Y-95579000D03*
X145111400Y-93039000D03*
X145365400Y-90499000D03*
X145111400Y-87959000D03*
X145365400Y-85419000D03*
X145111400Y-82879000D03*
D23*
X161058800Y-89037400D03*
D24*
X159058800Y-89037400D03*
X157058800Y-89037400D03*
X155058800Y-89037400D03*
X153058800Y-89037400D03*
X151058800Y-89037400D03*
D25*
X163975809Y-97993200D03*
X165625809Y-97993200D03*
D26*
X173153000Y-89660900D03*
X173153000Y-88085900D03*
D25*
X163975809Y-99720400D03*
X165625809Y-99720400D03*
X144798809Y-104904000D03*
X146448809Y-104904000D03*
X144798809Y-101475000D03*
X146448809Y-101475000D03*
D16*
X165625809Y-101445200D03*
X163975809Y-101445200D03*
D27*
X169774800Y-88068400D03*
X169774800Y-89718400D03*
D16*
X165625809Y-103167200D03*
X163975809Y-103167200D03*
D28*
X171451200Y-88125900D03*
X171451200Y-89700900D03*
D29*
X150412009Y-96409000D03*
X150412009Y-96909000D03*
X150412009Y-97409000D03*
X150412009Y-97909000D03*
X150412009Y-98409000D03*
X150412009Y-98909000D03*
X150412009Y-99409000D03*
X150412009Y-99909000D03*
X150412009Y-100409000D03*
X150412009Y-100909000D03*
X150412009Y-101409000D03*
X150412009Y-101909000D03*
X150412009Y-102409000D03*
X150412009Y-102909000D03*
X150412009Y-103409000D03*
X150412009Y-103909000D03*
X150412009Y-104409000D03*
X150412009Y-104909000D03*
X159842009Y-104909000D03*
X159842009Y-104409000D03*
X159842009Y-103909000D03*
X159842009Y-103409000D03*
X159842009Y-102909000D03*
X159842009Y-102409000D03*
X159842009Y-101909000D03*
X159842009Y-101409000D03*
X159842009Y-100909000D03*
X159842009Y-100409000D03*
X159842009Y-99909000D03*
X159842009Y-99409000D03*
X159842009Y-98909000D03*
X159842009Y-98409000D03*
X159842009Y-97909000D03*
X159842009Y-97409000D03*
X159842009Y-96909000D03*
X159842009Y-96409000D03*
D30*
X156577009Y-98634000D03*
D31*
X157102009Y-99717000D03*
X156052009Y-99717000D03*
X157102009Y-98634000D03*
X156052009Y-98634000D03*
X157102009Y-97551000D03*
X156052009Y-97551000D03*
D30*
X153677009Y-98634000D03*
D31*
X154202009Y-99717000D03*
X153152009Y-99717000D03*
X154202009Y-98634000D03*
X153152009Y-98634000D03*
X154202009Y-97551000D03*
X153152009Y-97551000D03*
D32*
X155127009Y-102684000D03*
D31*
X156983259Y-103767000D03*
X155745759Y-103767000D03*
X154508259Y-103767000D03*
X153270759Y-103767000D03*
X156983259Y-102684000D03*
X155745759Y-102684000D03*
X154508259Y-102684000D03*
X153270759Y-102684000D03*
X156983259Y-101601000D03*
X155745759Y-101601000D03*
X154508259Y-101601000D03*
X153270759Y-101601000D03*
D16*
X146448809Y-103176800D03*
X144798809Y-103176800D03*
M02*
