%TF.GenerationSoftware,KiCad,Pcbnew,(6.0.7-1)-1*%
%TF.CreationDate,2022-08-20T15:22:06+08:00*%
%TF.ProjectId,VNH5050A (test),564e4835-3035-4304-9120-287465737429,rev?*%
%TF.SameCoordinates,Original*%
%TF.FileFunction,Soldermask,Top*%
%TF.FilePolarity,Negative*%
%FSLAX46Y46*%
G04 Gerber Fmt 4.6, Leading zero omitted, Abs format (unit mm)*
G04 Created by KiCad (PCBNEW (6.0.7-1)-1) date 2022-08-20 15:22:06*
%MOMM*%
%LPD*%
G01*
G04 APERTURE LIST*
G04 Aperture macros list*
%AMRoundRect*
0 Rectangle with rounded corners*
0 $1 Rounding radius*
0 $2 $3 $4 $5 $6 $7 $8 $9 X,Y pos of 4 corners*
0 Add a 4 corners polygon primitive as box body*
4,1,4,$2,$3,$4,$5,$6,$7,$8,$9,$2,$3,0*
0 Add four circle primitives for the rounded corners*
1,1,$1+$1,$2,$3*
1,1,$1+$1,$4,$5*
1,1,$1+$1,$6,$7*
1,1,$1+$1,$8,$9*
0 Add four rect primitives between the rounded corners*
20,1,$1+$1,$2,$3,$4,$5,0*
20,1,$1+$1,$4,$5,$6,$7,0*
20,1,$1+$1,$6,$7,$8,$9,0*
20,1,$1+$1,$8,$9,$2,$3,0*%
G04 Aperture macros list end*
%ADD10RoundRect,0.250000X-1.000000X1.950000X-1.000000X-1.950000X1.000000X-1.950000X1.000000X1.950000X0*%
%ADD11RoundRect,0.200000X0.200000X0.275000X-0.200000X0.275000X-0.200000X-0.275000X0.200000X-0.275000X0*%
%ADD12R,1.200000X2.200000*%
%ADD13R,5.800000X6.400000*%
%ADD14R,3.000000X3.000000*%
%ADD15C,3.000000*%
%ADD16RoundRect,0.225000X0.225000X0.250000X-0.225000X0.250000X-0.225000X-0.250000X0.225000X-0.250000X0*%
%ADD17C,2.082800*%
%ADD18RoundRect,0.250000X0.350000X0.625000X-0.350000X0.625000X-0.350000X-0.625000X0.350000X-0.625000X0*%
%ADD19O,1.200000X1.750000*%
%ADD20RoundRect,0.200000X-0.200000X-0.275000X0.200000X-0.275000X0.200000X0.275000X-0.200000X0.275000X0*%
%ADD21RoundRect,0.218750X0.256250X-0.218750X0.256250X0.218750X-0.256250X0.218750X-0.256250X-0.218750X0*%
%ADD22RoundRect,0.200000X-0.275000X0.200000X-0.275000X-0.200000X0.275000X-0.200000X0.275000X0.200000X0*%
%ADD23RoundRect,0.218750X-0.256250X0.218750X-0.256250X-0.218750X0.256250X-0.218750X0.256250X0.218750X0*%
%ADD24RoundRect,0.014000X-0.881000X-0.161000X0.881000X-0.161000X0.881000X0.161000X-0.881000X0.161000X0*%
%ADD25R,2.100000X3.250000*%
%ADD26R,0.808000X0.808000*%
%ADD27R,4.950000X3.250000*%
G04 APERTURE END LIST*
D10*
X162217400Y-110014600D03*
X162217400Y-117414600D03*
D11*
X165625809Y-96263600D03*
X163975809Y-96263600D03*
D12*
X155993100Y-109514600D03*
D13*
X153713100Y-115814600D03*
D12*
X151433100Y-109514600D03*
D14*
X146608800Y-111214600D03*
D15*
X146608800Y-116214600D03*
D16*
X165575809Y-104899600D03*
X164025809Y-104899600D03*
D17*
X145111400Y-98119000D03*
X145365400Y-95579000D03*
X145111400Y-93039000D03*
X145365400Y-90499000D03*
X145111400Y-87959000D03*
X145365400Y-85419000D03*
X145111400Y-82879000D03*
D18*
X161058800Y-89037400D03*
D19*
X159058800Y-89037400D03*
X157058800Y-89037400D03*
X155058800Y-89037400D03*
X153058800Y-89037400D03*
X151058800Y-89037400D03*
D20*
X163975809Y-97993200D03*
X165625809Y-97993200D03*
D21*
X173153000Y-89660900D03*
X173153000Y-88085900D03*
D20*
X163975809Y-99720400D03*
X165625809Y-99720400D03*
X144798809Y-104904000D03*
X146448809Y-104904000D03*
X144798809Y-101475000D03*
X146448809Y-101475000D03*
D11*
X165625809Y-101445200D03*
X163975809Y-101445200D03*
D22*
X169774800Y-88068400D03*
X169774800Y-89718400D03*
D11*
X165625809Y-103167200D03*
X163975809Y-103167200D03*
D23*
X171451200Y-88125900D03*
X171451200Y-89700900D03*
D24*
X150412009Y-96409000D03*
X150412009Y-96909000D03*
X150412009Y-97409000D03*
X150412009Y-97909000D03*
X150412009Y-98409000D03*
X150412009Y-98909000D03*
X150412009Y-99409000D03*
X150412009Y-99909000D03*
X150412009Y-100409000D03*
X150412009Y-100909000D03*
X150412009Y-101409000D03*
X150412009Y-101909000D03*
X150412009Y-102409000D03*
X150412009Y-102909000D03*
X150412009Y-103409000D03*
X150412009Y-103909000D03*
X150412009Y-104409000D03*
X150412009Y-104909000D03*
X159842009Y-104909000D03*
X159842009Y-104409000D03*
X159842009Y-103909000D03*
X159842009Y-103409000D03*
X159842009Y-102909000D03*
X159842009Y-102409000D03*
X159842009Y-101909000D03*
X159842009Y-101409000D03*
X159842009Y-100909000D03*
X159842009Y-100409000D03*
X159842009Y-99909000D03*
X159842009Y-99409000D03*
X159842009Y-98909000D03*
X159842009Y-98409000D03*
X159842009Y-97909000D03*
X159842009Y-97409000D03*
X159842009Y-96909000D03*
X159842009Y-96409000D03*
D25*
X156577009Y-98634000D03*
D26*
X157102009Y-99717000D03*
X156052009Y-99717000D03*
X157102009Y-98634000D03*
X156052009Y-98634000D03*
X157102009Y-97551000D03*
X156052009Y-97551000D03*
D25*
X153677009Y-98634000D03*
D26*
X154202009Y-99717000D03*
X153152009Y-99717000D03*
X154202009Y-98634000D03*
X153152009Y-98634000D03*
X154202009Y-97551000D03*
X153152009Y-97551000D03*
D27*
X155127009Y-102684000D03*
D26*
X156983259Y-103767000D03*
X155745759Y-103767000D03*
X154508259Y-103767000D03*
X153270759Y-103767000D03*
X156983259Y-102684000D03*
X155745759Y-102684000D03*
X154508259Y-102684000D03*
X153270759Y-102684000D03*
X156983259Y-101601000D03*
X155745759Y-101601000D03*
X154508259Y-101601000D03*
X153270759Y-101601000D03*
D11*
X146448809Y-103176800D03*
X144798809Y-103176800D03*
M02*
