%TF.GenerationSoftware,KiCad,Pcbnew,(6.0.7-1)-1*%
%TF.CreationDate,2022-08-20T15:23:22+08:00*%
%TF.ProjectId,VNH5050A (test),564e4835-3035-4304-9120-287465737429,rev?*%
%TF.SameCoordinates,Original*%
%TF.FileFunction,Drillmap*%
%TF.FilePolarity,Positive*%
%FSLAX45Y45*%
G04 Gerber Fmt 4.5, Leading zero omitted, Abs format (unit mm)*
G04 Created by KiCad (PCBNEW (6.0.7-1)-1) date 2022-08-20 15:23:22*
%MOMM*%
%LPD*%
G01*
G04 APERTURE LIST*
%ADD10C,0.200000*%
G04 APERTURE END LIST*
D10*
X14048740Y-7747000D02*
X17610740Y-7747000D01*
X17610740Y-7747000D02*
X17610740Y-12201000D01*
X17610740Y-12201000D02*
X14048740Y-12201000D01*
X14048740Y-12201000D02*
X14048740Y-7747000D01*
X14296359Y-12521476D02*
X14296359Y-12321476D01*
X14343978Y-12321476D01*
X14372549Y-12331000D01*
X14391597Y-12350048D01*
X14401121Y-12369095D01*
X14410645Y-12407190D01*
X14410645Y-12435762D01*
X14401121Y-12473857D01*
X14391597Y-12492905D01*
X14372549Y-12511952D01*
X14343978Y-12521476D01*
X14296359Y-12521476D01*
X14496359Y-12521476D02*
X14496359Y-12388143D01*
X14496359Y-12426238D02*
X14505883Y-12407190D01*
X14515407Y-12397667D01*
X14534454Y-12388143D01*
X14553502Y-12388143D01*
X14620168Y-12521476D02*
X14620168Y-12388143D01*
X14620168Y-12321476D02*
X14610645Y-12331000D01*
X14620168Y-12340524D01*
X14629692Y-12331000D01*
X14620168Y-12321476D01*
X14620168Y-12340524D01*
X14743978Y-12521476D02*
X14724930Y-12511952D01*
X14715407Y-12492905D01*
X14715407Y-12321476D01*
X14848740Y-12521476D02*
X14829692Y-12511952D01*
X14820168Y-12492905D01*
X14820168Y-12321476D01*
X15077311Y-12521476D02*
X15077311Y-12321476D01*
X15143978Y-12464333D01*
X15210645Y-12321476D01*
X15210645Y-12521476D01*
X15391597Y-12521476D02*
X15391597Y-12416714D01*
X15382073Y-12397667D01*
X15363026Y-12388143D01*
X15324930Y-12388143D01*
X15305883Y-12397667D01*
X15391597Y-12511952D02*
X15372549Y-12521476D01*
X15324930Y-12521476D01*
X15305883Y-12511952D01*
X15296359Y-12492905D01*
X15296359Y-12473857D01*
X15305883Y-12454809D01*
X15324930Y-12445286D01*
X15372549Y-12445286D01*
X15391597Y-12435762D01*
X15486835Y-12388143D02*
X15486835Y-12588143D01*
X15486835Y-12397667D02*
X15505883Y-12388143D01*
X15543978Y-12388143D01*
X15563026Y-12397667D01*
X15572549Y-12407190D01*
X15582073Y-12426238D01*
X15582073Y-12483381D01*
X15572549Y-12502428D01*
X15563026Y-12511952D01*
X15543978Y-12521476D01*
X15505883Y-12521476D01*
X15486835Y-12511952D01*
X15667788Y-12502428D02*
X15677311Y-12511952D01*
X15667788Y-12521476D01*
X15658264Y-12511952D01*
X15667788Y-12502428D01*
X15667788Y-12521476D01*
X15667788Y-12397667D02*
X15677311Y-12407190D01*
X15667788Y-12416714D01*
X15658264Y-12407190D01*
X15667788Y-12397667D01*
X15667788Y-12416714D01*
M02*
