%TF.GenerationSoftware,KiCad,Pcbnew,(6.0.7-1)-1*%
%TF.CreationDate,2022-08-20T15:22:06+08:00*%
%TF.ProjectId,VNH5050A (test),564e4835-3035-4304-9120-287465737429,rev?*%
%TF.SameCoordinates,Original*%
%TF.FileFunction,Paste,Top*%
%TF.FilePolarity,Positive*%
%FSLAX46Y46*%
G04 Gerber Fmt 4.6, Leading zero omitted, Abs format (unit mm)*
G04 Created by KiCad (PCBNEW (6.0.7-1)-1) date 2022-08-20 15:22:06*
%MOMM*%
%LPD*%
G01*
G04 APERTURE LIST*
G04 Aperture macros list*
%AMRoundRect*
0 Rectangle with rounded corners*
0 $1 Rounding radius*
0 $2 $3 $4 $5 $6 $7 $8 $9 X,Y pos of 4 corners*
0 Add a 4 corners polygon primitive as box body*
4,1,4,$2,$3,$4,$5,$6,$7,$8,$9,$2,$3,0*
0 Add four circle primitives for the rounded corners*
1,1,$1+$1,$2,$3*
1,1,$1+$1,$4,$5*
1,1,$1+$1,$6,$7*
1,1,$1+$1,$8,$9*
0 Add four rect primitives between the rounded corners*
20,1,$1+$1,$2,$3,$4,$5,0*
20,1,$1+$1,$4,$5,$6,$7,0*
20,1,$1+$1,$6,$7,$8,$9,0*
20,1,$1+$1,$8,$9,$2,$3,0*%
G04 Aperture macros list end*
%ADD10C,0.010000*%
%ADD11RoundRect,0.250000X-1.000000X1.950000X-1.000000X-1.950000X1.000000X-1.950000X1.000000X1.950000X0*%
%ADD12RoundRect,0.200000X0.200000X0.275000X-0.200000X0.275000X-0.200000X-0.275000X0.200000X-0.275000X0*%
%ADD13R,2.750000X3.050000*%
%ADD14R,1.200000X2.200000*%
%ADD15RoundRect,0.225000X0.225000X0.250000X-0.225000X0.250000X-0.225000X-0.250000X0.225000X-0.250000X0*%
%ADD16RoundRect,0.200000X-0.200000X-0.275000X0.200000X-0.275000X0.200000X0.275000X-0.200000X0.275000X0*%
%ADD17RoundRect,0.218750X0.256250X-0.218750X0.256250X0.218750X-0.256250X0.218750X-0.256250X-0.218750X0*%
%ADD18RoundRect,0.200000X-0.275000X0.200000X-0.275000X-0.200000X0.275000X-0.200000X0.275000X0.200000X0*%
%ADD19RoundRect,0.218750X-0.256250X0.218750X-0.256250X-0.218750X0.256250X-0.218750X0.256250X0.218750X0*%
%ADD20RoundRect,0.014000X-0.881000X-0.161000X0.881000X-0.161000X0.881000X0.161000X-0.881000X0.161000X0*%
G04 APERTURE END LIST*
G36*
X157319009Y-99783000D02*
G01*
X155835009Y-99783000D01*
X155835009Y-97485000D01*
X157319009Y-97485000D01*
X157319009Y-99783000D01*
G37*
D10*
X157319009Y-99783000D02*
X155835009Y-99783000D01*
X155835009Y-97485000D01*
X157319009Y-97485000D01*
X157319009Y-99783000D01*
G36*
X154419009Y-99783000D02*
G01*
X152935009Y-99783000D01*
X152935009Y-97485000D01*
X154419009Y-97485000D01*
X154419009Y-99783000D01*
G37*
X154419009Y-99783000D02*
X152935009Y-99783000D01*
X152935009Y-97485000D01*
X154419009Y-97485000D01*
X154419009Y-99783000D01*
G36*
X156877009Y-103833000D02*
G01*
X153377009Y-103833000D01*
X153377009Y-101535000D01*
X156877009Y-101535000D01*
X156877009Y-103833000D01*
G37*
X156877009Y-103833000D02*
X153377009Y-103833000D01*
X153377009Y-101535000D01*
X156877009Y-101535000D01*
X156877009Y-103833000D01*
D11*
X162217400Y-110014600D03*
X162217400Y-117414600D03*
D12*
X165625809Y-96263600D03*
X163975809Y-96263600D03*
D13*
X152188100Y-114139600D03*
X155238100Y-114139600D03*
X152188100Y-117489600D03*
X155238100Y-117489600D03*
D14*
X155993100Y-109514600D03*
X151433100Y-109514600D03*
D15*
X165575809Y-104899600D03*
X164025809Y-104899600D03*
D16*
X163975809Y-97993200D03*
X165625809Y-97993200D03*
D17*
X173153000Y-89660900D03*
X173153000Y-88085900D03*
D16*
X163975809Y-99720400D03*
X165625809Y-99720400D03*
X144798809Y-104904000D03*
X146448809Y-104904000D03*
X144798809Y-101475000D03*
X146448809Y-101475000D03*
D12*
X165625809Y-101445200D03*
X163975809Y-101445200D03*
D18*
X169774800Y-88068400D03*
X169774800Y-89718400D03*
D12*
X165625809Y-103167200D03*
X163975809Y-103167200D03*
D19*
X171451200Y-88125900D03*
X171451200Y-89700900D03*
D20*
X150412009Y-96409000D03*
X150412009Y-96909000D03*
X150412009Y-97409000D03*
X150412009Y-97909000D03*
X150412009Y-98409000D03*
X150412009Y-98909000D03*
X150412009Y-99409000D03*
X150412009Y-99909000D03*
X150412009Y-100409000D03*
X150412009Y-100909000D03*
X150412009Y-101409000D03*
X150412009Y-101909000D03*
X150412009Y-102409000D03*
X150412009Y-102909000D03*
X150412009Y-103409000D03*
X150412009Y-103909000D03*
X150412009Y-104409000D03*
X150412009Y-104909000D03*
X159842009Y-104909000D03*
X159842009Y-104409000D03*
X159842009Y-103909000D03*
X159842009Y-103409000D03*
X159842009Y-102909000D03*
X159842009Y-102409000D03*
X159842009Y-101909000D03*
X159842009Y-101409000D03*
X159842009Y-100909000D03*
X159842009Y-100409000D03*
X159842009Y-99909000D03*
X159842009Y-99409000D03*
X159842009Y-98909000D03*
X159842009Y-98409000D03*
X159842009Y-97909000D03*
X159842009Y-97409000D03*
X159842009Y-96909000D03*
X159842009Y-96409000D03*
D12*
X146448809Y-103176800D03*
X144798809Y-103176800D03*
M02*
