M48
; DRILL file {KiCad (6.0.7-1)-1} date 2022 August 20, Saturday 15:22:46
; FORMAT={-:-/ absolute / metric / decimal}
; #@! TF.CreationDate,2022-08-20T15:22:46+08:00
; #@! TF.GenerationSoftware,Kicad,Pcbnew,(6.0.7-1)-1
; #@! TF.FileFunction,Plated,1,2,PTH
FMAT,2
METRIC
; #@! TA.AperFunction,Plated,PTH,ComponentDrill
T1C0.300
; #@! TA.AperFunction,Plated,PTH,ViaDrill
T2C0.400
; #@! TA.AperFunction,Plated,PTH,ComponentDrill
T3C0.750
; #@! TA.AperFunction,Plated,PTH,ComponentDrill
T4C1.016
; #@! TA.AperFunction,Plated,PTH,ComponentDrill
T5C1.800
%
G90
G05
T1
X153.152Y-97.551
X153.152Y-98.634
X153.152Y-99.717
X153.271Y-101.601
X153.271Y-102.684
X153.271Y-103.767
X154.202Y-97.551
X154.202Y-98.634
X154.202Y-99.717
X154.508Y-101.601
X154.508Y-102.684
X154.508Y-103.767
X155.746Y-101.601
X155.746Y-102.684
X155.746Y-103.767
X156.052Y-97.551
X156.052Y-98.634
X156.052Y-99.717
X156.983Y-101.601
X156.983Y-102.684
X156.983Y-103.767
X157.102Y-97.551
X157.102Y-98.634
X157.102Y-99.717
T2
X143.867Y-102.843
X146.686Y-99.211
X146.686Y-100.126
X147.677Y-99.211
X147.677Y-100.1
X163.984Y-104.901
X164.441Y-87.324
X164.441Y-88.238
X164.441Y-89.153
X164.441Y-90.067
X164.466Y-92.15
X164.466Y-93.064
X165.431Y-87.324
X165.431Y-88.213
X165.431Y-89.153
X165.431Y-90.042
X165.457Y-92.15
X165.457Y-93.039
X165.635Y-99.719
X165.635Y-101.446
X167.87Y-91.109
X168.098Y-85.038
T3
X151.059Y-89.037
X153.059Y-89.037
X155.059Y-89.037
X157.059Y-89.037
X159.059Y-89.037
X161.059Y-89.037
T4
X145.111Y-82.879
X145.111Y-87.959
X145.111Y-93.039
X145.111Y-98.119
X145.365Y-85.419
X145.365Y-90.499
X145.365Y-95.579
T5
X146.609Y-111.215
X146.609Y-116.215
T0
M30
