%TF.GenerationSoftware,KiCad,Pcbnew,(6.0.7-1)-1*%
%TF.CreationDate,2022-08-20T15:22:06+08:00*%
%TF.ProjectId,VNH5050A (test),564e4835-3035-4304-9120-287465737429,rev?*%
%TF.SameCoordinates,Original*%
%TF.FileFunction,Copper,L2,Bot*%
%TF.FilePolarity,Positive*%
%FSLAX46Y46*%
G04 Gerber Fmt 4.6, Leading zero omitted, Abs format (unit mm)*
G04 Created by KiCad (PCBNEW (6.0.7-1)-1) date 2022-08-20 15:22:06*
%MOMM*%
%LPD*%
G01*
G04 APERTURE LIST*
G04 Aperture macros list*
%AMRoundRect*
0 Rectangle with rounded corners*
0 $1 Rounding radius*
0 $2 $3 $4 $5 $6 $7 $8 $9 X,Y pos of 4 corners*
0 Add a 4 corners polygon primitive as box body*
4,1,4,$2,$3,$4,$5,$6,$7,$8,$9,$2,$3,0*
0 Add four circle primitives for the rounded corners*
1,1,$1+$1,$2,$3*
1,1,$1+$1,$4,$5*
1,1,$1+$1,$6,$7*
1,1,$1+$1,$8,$9*
0 Add four rect primitives between the rounded corners*
20,1,$1+$1,$2,$3,$4,$5,0*
20,1,$1+$1,$4,$5,$6,$7,0*
20,1,$1+$1,$6,$7,$8,$9,0*
20,1,$1+$1,$8,$9,$2,$3,0*%
G04 Aperture macros list end*
%TA.AperFunction,ComponentPad*%
%ADD10R,3.000000X3.000000*%
%TD*%
%TA.AperFunction,ComponentPad*%
%ADD11C,3.000000*%
%TD*%
%TA.AperFunction,ComponentPad*%
%ADD12C,1.879600*%
%TD*%
%TA.AperFunction,ComponentPad*%
%ADD13RoundRect,0.250000X0.350000X0.625000X-0.350000X0.625000X-0.350000X-0.625000X0.350000X-0.625000X0*%
%TD*%
%TA.AperFunction,ComponentPad*%
%ADD14O,1.200000X1.750000*%
%TD*%
%TA.AperFunction,ComponentPad*%
%ADD15R,0.808000X0.808000*%
%TD*%
%TA.AperFunction,ViaPad*%
%ADD16C,0.800000*%
%TD*%
%TA.AperFunction,Conductor*%
%ADD17C,0.250000*%
%TD*%
G04 APERTURE END LIST*
D10*
X146608800Y-111214600D03*
D11*
X146608800Y-116214600D03*
D12*
X145111400Y-98119000D03*
X145365400Y-95579000D03*
X145111400Y-93039000D03*
X145365400Y-90499000D03*
X145111400Y-87959000D03*
X145365400Y-85419000D03*
X145111400Y-82879000D03*
D13*
X161058800Y-89037400D03*
D14*
X159058800Y-89037400D03*
X157058800Y-89037400D03*
X155058800Y-89037400D03*
X153058800Y-89037400D03*
X151058800Y-89037400D03*
D15*
X157102009Y-99717000D03*
X156052009Y-99717000D03*
X157102009Y-98634000D03*
X156052009Y-98634000D03*
X157102009Y-97551000D03*
X156052009Y-97551000D03*
X154202009Y-99717000D03*
X153152009Y-99717000D03*
X154202009Y-98634000D03*
X153152009Y-98634000D03*
X154202009Y-97551000D03*
X153152009Y-97551000D03*
X156983259Y-103767000D03*
X155745759Y-103767000D03*
X154508259Y-103767000D03*
X153270759Y-103767000D03*
X156983259Y-102684000D03*
X155745759Y-102684000D03*
X154508259Y-102684000D03*
X153270759Y-102684000D03*
X156983259Y-101601000D03*
X155745759Y-101601000D03*
X154508259Y-101601000D03*
X153270759Y-101601000D03*
D16*
X165431400Y-90041800D03*
X146686200Y-100125600D03*
X165634600Y-99719200D03*
X165456800Y-93039000D03*
X163983600Y-104900800D03*
X164440800Y-88238400D03*
X165431400Y-88213000D03*
X164440800Y-87324000D03*
X164466200Y-93064400D03*
X165431400Y-89152800D03*
X165431400Y-87324000D03*
X146686200Y-99211200D03*
X147676800Y-100100200D03*
X164440800Y-89152800D03*
X164440800Y-90067200D03*
X147676800Y-99211200D03*
X165456800Y-92150000D03*
X165634600Y-101446400D03*
X164466200Y-92150000D03*
X168098400Y-85038000D03*
X167869800Y-91108600D03*
X143866800Y-102843400D03*
D17*
X167488800Y-84428400D02*
X152020200Y-84428400D01*
X168098400Y-85038000D02*
X167488800Y-84428400D01*
X151058800Y-85389800D02*
X151058800Y-89037400D01*
X152020200Y-84428400D02*
X151058800Y-85389800D01*
X163130000Y-91108600D02*
X161058800Y-89037400D01*
X167869800Y-91108600D02*
X163130000Y-91108600D01*
X143866800Y-102843400D02*
X143499100Y-102475700D01*
X143499100Y-102475700D02*
X143499100Y-84491300D01*
X143499100Y-84491300D02*
X145111400Y-82879000D01*
%TA.AperFunction,Conductor*%
G36*
X174949021Y-78590502D02*
G01*
X174995514Y-78644158D01*
X175006900Y-78696500D01*
X175006900Y-120783500D01*
X174986898Y-120851621D01*
X174933242Y-120898114D01*
X174880900Y-120909500D01*
X141713900Y-120909500D01*
X141645779Y-120889498D01*
X141599286Y-120835842D01*
X141587900Y-120783500D01*
X141587900Y-116193518D01*
X144595717Y-116193518D01*
X144611482Y-116466920D01*
X144612307Y-116471125D01*
X144612308Y-116471133D01*
X144622927Y-116525257D01*
X144664205Y-116735653D01*
X144665592Y-116739703D01*
X144665593Y-116739708D01*
X144686405Y-116800495D01*
X144752912Y-116994744D01*
X144875960Y-117239399D01*
X144878386Y-117242928D01*
X144878389Y-117242934D01*
X145028643Y-117461553D01*
X145031074Y-117465090D01*
X145215382Y-117667643D01*
X145425475Y-117843307D01*
X145429116Y-117845591D01*
X145653824Y-117986551D01*
X145653828Y-117986553D01*
X145657464Y-117988834D01*
X145725344Y-118019483D01*
X145903145Y-118099764D01*
X145903149Y-118099766D01*
X145907057Y-118101530D01*
X145911177Y-118102750D01*
X145911176Y-118102750D01*
X146165523Y-118178091D01*
X146165527Y-118178092D01*
X146169636Y-118179309D01*
X146173870Y-118179957D01*
X146173875Y-118179958D01*
X146436098Y-118220083D01*
X146436100Y-118220083D01*
X146440340Y-118220732D01*
X146579712Y-118222922D01*
X146709871Y-118224967D01*
X146709877Y-118224967D01*
X146714162Y-118225034D01*
X146986035Y-118192134D01*
X147250927Y-118122641D01*
X147254887Y-118121001D01*
X147254892Y-118120999D01*
X147377431Y-118070241D01*
X147503936Y-118017841D01*
X147740382Y-117879673D01*
X147955889Y-117710694D01*
X147997609Y-117667643D01*
X148143486Y-117517109D01*
X148146469Y-117514031D01*
X148149002Y-117510583D01*
X148149006Y-117510578D01*
X148306057Y-117296778D01*
X148308595Y-117293323D01*
X148335954Y-117242934D01*
X148437218Y-117056430D01*
X148437219Y-117056428D01*
X148439268Y-117052654D01*
X148536069Y-116796477D01*
X148597207Y-116529533D01*
X148621551Y-116256761D01*
X148621993Y-116214600D01*
X148603367Y-115941378D01*
X148547832Y-115673212D01*
X148456417Y-115415065D01*
X148330813Y-115171712D01*
X148320840Y-115157521D01*
X148175808Y-114951162D01*
X148173345Y-114947657D01*
X147986925Y-114747045D01*
X147983610Y-114744331D01*
X147983606Y-114744328D01*
X147778323Y-114576306D01*
X147775005Y-114573590D01*
X147541504Y-114430501D01*
X147537568Y-114428773D01*
X147294673Y-114322149D01*
X147294669Y-114322148D01*
X147290745Y-114320425D01*
X147027366Y-114245400D01*
X147023124Y-114244796D01*
X147023118Y-114244795D01*
X146822634Y-114216262D01*
X146756243Y-114206813D01*
X146612389Y-114206060D01*
X146486677Y-114205402D01*
X146486671Y-114205402D01*
X146482391Y-114205380D01*
X146478147Y-114205939D01*
X146478143Y-114205939D01*
X146359102Y-114221611D01*
X146210878Y-114241125D01*
X146206738Y-114242258D01*
X146206736Y-114242258D01*
X146133808Y-114262209D01*
X145946728Y-114313388D01*
X145942780Y-114315072D01*
X145698782Y-114419146D01*
X145698778Y-114419148D01*
X145694830Y-114420832D01*
X145674925Y-114432745D01*
X145463525Y-114559264D01*
X145463521Y-114559267D01*
X145459843Y-114561468D01*
X145246118Y-114732694D01*
X145057608Y-114931342D01*
X144897802Y-115153736D01*
X144769657Y-115395761D01*
X144768185Y-115399784D01*
X144768183Y-115399788D01*
X144761114Y-115419106D01*
X144675543Y-115652937D01*
X144617204Y-115920507D01*
X144595717Y-116193518D01*
X141587900Y-116193518D01*
X141587900Y-112759269D01*
X144600801Y-112759269D01*
X144601171Y-112766090D01*
X144606695Y-112816952D01*
X144610321Y-112832204D01*
X144655476Y-112952654D01*
X144664014Y-112968249D01*
X144740515Y-113070324D01*
X144753076Y-113082885D01*
X144855151Y-113159386D01*
X144870746Y-113167924D01*
X144991194Y-113213078D01*
X145006449Y-113216705D01*
X145057314Y-113222231D01*
X145064128Y-113222600D01*
X146336685Y-113222600D01*
X146351924Y-113218125D01*
X146353129Y-113216735D01*
X146354800Y-113209052D01*
X146354800Y-113204484D01*
X146862800Y-113204484D01*
X146867275Y-113219723D01*
X146868665Y-113220928D01*
X146876348Y-113222599D01*
X148153469Y-113222599D01*
X148160290Y-113222229D01*
X148211152Y-113216705D01*
X148226404Y-113213079D01*
X148346854Y-113167924D01*
X148362449Y-113159386D01*
X148464524Y-113082885D01*
X148477085Y-113070324D01*
X148553586Y-112968249D01*
X148562124Y-112952654D01*
X148607278Y-112832206D01*
X148610905Y-112816951D01*
X148616431Y-112766086D01*
X148616800Y-112759272D01*
X148616800Y-111486715D01*
X148612325Y-111471476D01*
X148610935Y-111470271D01*
X148603252Y-111468600D01*
X146880915Y-111468600D01*
X146865676Y-111473075D01*
X146864471Y-111474465D01*
X146862800Y-111482148D01*
X146862800Y-113204484D01*
X146354800Y-113204484D01*
X146354800Y-111486715D01*
X146350325Y-111471476D01*
X146348935Y-111470271D01*
X146341252Y-111468600D01*
X144618916Y-111468600D01*
X144603677Y-111473075D01*
X144602472Y-111474465D01*
X144600801Y-111482148D01*
X144600801Y-112759269D01*
X141587900Y-112759269D01*
X141587900Y-110942485D01*
X144600800Y-110942485D01*
X144605275Y-110957724D01*
X144606665Y-110958929D01*
X144614348Y-110960600D01*
X146336685Y-110960600D01*
X146351924Y-110956125D01*
X146353129Y-110954735D01*
X146354800Y-110947052D01*
X146354800Y-110942485D01*
X146862800Y-110942485D01*
X146867275Y-110957724D01*
X146868665Y-110958929D01*
X146876348Y-110960600D01*
X148598684Y-110960600D01*
X148613923Y-110956125D01*
X148615128Y-110954735D01*
X148616799Y-110947052D01*
X148616799Y-109669931D01*
X148616429Y-109663110D01*
X148610905Y-109612248D01*
X148607279Y-109596996D01*
X148562124Y-109476546D01*
X148553586Y-109460951D01*
X148477085Y-109358876D01*
X148464524Y-109346315D01*
X148362449Y-109269814D01*
X148346854Y-109261276D01*
X148226406Y-109216122D01*
X148211151Y-109212495D01*
X148160286Y-109206969D01*
X148153472Y-109206600D01*
X146880915Y-109206600D01*
X146865676Y-109211075D01*
X146864471Y-109212465D01*
X146862800Y-109220148D01*
X146862800Y-110942485D01*
X146354800Y-110942485D01*
X146354800Y-109224716D01*
X146350325Y-109209477D01*
X146348935Y-109208272D01*
X146341252Y-109206601D01*
X145064131Y-109206601D01*
X145057310Y-109206971D01*
X145006448Y-109212495D01*
X144991196Y-109216121D01*
X144870746Y-109261276D01*
X144855151Y-109269814D01*
X144753076Y-109346315D01*
X144740515Y-109358876D01*
X144664014Y-109460951D01*
X144655476Y-109476546D01*
X144610322Y-109596994D01*
X144606695Y-109612249D01*
X144601169Y-109663114D01*
X144600800Y-109669928D01*
X144600800Y-110942485D01*
X141587900Y-110942485D01*
X141587900Y-84471243D01*
X142860880Y-84471243D01*
X142861626Y-84479135D01*
X142865041Y-84515261D01*
X142865600Y-84527119D01*
X142865600Y-102396933D01*
X142865073Y-102408116D01*
X142863398Y-102415609D01*
X142863647Y-102423535D01*
X142863647Y-102423536D01*
X142865538Y-102483686D01*
X142865600Y-102487645D01*
X142865600Y-102515556D01*
X142866097Y-102519490D01*
X142866097Y-102519491D01*
X142866105Y-102519556D01*
X142867038Y-102531393D01*
X142868427Y-102575589D01*
X142874078Y-102595039D01*
X142878087Y-102614400D01*
X142880626Y-102634497D01*
X142883545Y-102641868D01*
X142883545Y-102641870D01*
X142896904Y-102675612D01*
X142900749Y-102686842D01*
X142913082Y-102729293D01*
X142917115Y-102736112D01*
X142917117Y-102736117D01*
X142923393Y-102746728D01*
X142932088Y-102764476D01*
X142939548Y-102783317D01*
X142939475Y-102783346D01*
X142953760Y-102838987D01*
X142953296Y-102843400D01*
X142973258Y-103033328D01*
X143032273Y-103214956D01*
X143035576Y-103220678D01*
X143035577Y-103220679D01*
X143069486Y-103279410D01*
X143127760Y-103380344D01*
X143255547Y-103522266D01*
X143410048Y-103634518D01*
X143416076Y-103637202D01*
X143416078Y-103637203D01*
X143578481Y-103709509D01*
X143584512Y-103712194D01*
X143677913Y-103732047D01*
X143764856Y-103750528D01*
X143764861Y-103750528D01*
X143771313Y-103751900D01*
X143962287Y-103751900D01*
X143968739Y-103750528D01*
X143968744Y-103750528D01*
X144055687Y-103732047D01*
X144149088Y-103712194D01*
X144155119Y-103709509D01*
X144317522Y-103637203D01*
X144317524Y-103637202D01*
X144323552Y-103634518D01*
X144478053Y-103522266D01*
X144605840Y-103380344D01*
X144664114Y-103279410D01*
X144698023Y-103220679D01*
X144698024Y-103220678D01*
X144701327Y-103214956D01*
X144760342Y-103033328D01*
X144780304Y-102843400D01*
X144771041Y-102755263D01*
X144761032Y-102660035D01*
X144761032Y-102660033D01*
X144760342Y-102653472D01*
X144701327Y-102471844D01*
X144605840Y-102306456D01*
X144478053Y-102164534D01*
X144378957Y-102092536D01*
X144328894Y-102056163D01*
X144328893Y-102056162D01*
X144323552Y-102052282D01*
X144317524Y-102049598D01*
X144317522Y-102049597D01*
X144207351Y-102000546D01*
X144153255Y-101954566D01*
X144132600Y-101885439D01*
X144132600Y-100533000D01*
X148052300Y-100533000D01*
X148052660Y-100536346D01*
X148052660Y-100536351D01*
X148063031Y-100632815D01*
X148064034Y-100642149D01*
X148064752Y-100645449D01*
X148064752Y-100645450D01*
X148070450Y-100671642D01*
X148075420Y-100694491D01*
X148110090Y-100798657D01*
X148189108Y-100921612D01*
X148235601Y-100975268D01*
X148238994Y-100978208D01*
X148339250Y-101065081D01*
X148339253Y-101065083D01*
X148346061Y-101070982D01*
X148479010Y-101131698D01*
X148502764Y-101138673D01*
X148542808Y-101150431D01*
X148542812Y-101150432D01*
X148547131Y-101151700D01*
X148551580Y-101152340D01*
X148551586Y-101152341D01*
X148687353Y-101171861D01*
X148687358Y-101171861D01*
X148691800Y-101172500D01*
X152232259Y-101172500D01*
X152300380Y-101192502D01*
X152346873Y-101246158D01*
X152358259Y-101298500D01*
X152358259Y-102053134D01*
X152365014Y-102115316D01*
X152365561Y-102116775D01*
X152365561Y-102168225D01*
X152365014Y-102169684D01*
X152358259Y-102231866D01*
X152358259Y-103136134D01*
X152365014Y-103198316D01*
X152365561Y-103199775D01*
X152365561Y-103251225D01*
X152365014Y-103252684D01*
X152358259Y-103314866D01*
X152358259Y-104219134D01*
X152365014Y-104281316D01*
X152416144Y-104417705D01*
X152503498Y-104534261D01*
X152620054Y-104621615D01*
X152756443Y-104672745D01*
X152818625Y-104679500D01*
X153722893Y-104679500D01*
X153785075Y-104672745D01*
X153845280Y-104650175D01*
X153916086Y-104644992D01*
X153933736Y-104650174D01*
X153993943Y-104672745D01*
X154056125Y-104679500D01*
X154960393Y-104679500D01*
X155022575Y-104672745D01*
X155082780Y-104650175D01*
X155153586Y-104644992D01*
X155171236Y-104650174D01*
X155231443Y-104672745D01*
X155293625Y-104679500D01*
X156197893Y-104679500D01*
X156260075Y-104672745D01*
X156320280Y-104650175D01*
X156391086Y-104644992D01*
X156408736Y-104650174D01*
X156468943Y-104672745D01*
X156531125Y-104679500D01*
X157435393Y-104679500D01*
X157497575Y-104672745D01*
X157633964Y-104621615D01*
X157750520Y-104534261D01*
X157837874Y-104417705D01*
X157889004Y-104281316D01*
X157895759Y-104219134D01*
X157895759Y-103314866D01*
X157889004Y-103252684D01*
X157888457Y-103251225D01*
X157888457Y-103199775D01*
X157889004Y-103198316D01*
X157895759Y-103136134D01*
X157895759Y-102231866D01*
X157889004Y-102169684D01*
X157888457Y-102168225D01*
X157888457Y-102116775D01*
X157889004Y-102115316D01*
X157895759Y-102053134D01*
X157895759Y-101298072D01*
X157915761Y-101229951D01*
X157969417Y-101183458D01*
X158021738Y-101172072D01*
X163432447Y-101171276D01*
X163541700Y-101159502D01*
X163594085Y-101148087D01*
X163597284Y-101147021D01*
X163597290Y-101147019D01*
X163648859Y-101129829D01*
X163698332Y-101113338D01*
X163758340Y-101074726D01*
X163817453Y-101036690D01*
X163817456Y-101036688D01*
X163821243Y-101034251D01*
X163874873Y-100987728D01*
X163970525Y-100877216D01*
X163974265Y-100869015D01*
X164029300Y-100748325D01*
X164029302Y-100748320D01*
X164031166Y-100744232D01*
X164032431Y-100739916D01*
X164049865Y-100680419D01*
X164049867Y-100680412D01*
X164051130Y-100676100D01*
X164071850Y-100531422D01*
X164071775Y-100394841D01*
X164068844Y-95105924D01*
X164067725Y-93085194D01*
X164067250Y-93067357D01*
X164067247Y-93060761D01*
X164067679Y-93043974D01*
X164067701Y-93043120D01*
X164067571Y-92806805D01*
X164067437Y-92565924D01*
X164067216Y-92165952D01*
X164066870Y-92152962D01*
X164066867Y-92146364D01*
X164067176Y-92134359D01*
X164067198Y-92133507D01*
X164067134Y-92017100D01*
X164067051Y-91868170D01*
X164087015Y-91800038D01*
X164140645Y-91753515D01*
X164193051Y-91742100D01*
X167161600Y-91742100D01*
X167229721Y-91762102D01*
X167248947Y-91778443D01*
X167249220Y-91778140D01*
X167254132Y-91782563D01*
X167258547Y-91787466D01*
X167275851Y-91800038D01*
X167320110Y-91832194D01*
X167413048Y-91899718D01*
X167419076Y-91902402D01*
X167419078Y-91902403D01*
X167581481Y-91974709D01*
X167587512Y-91977394D01*
X167680912Y-91997247D01*
X167767856Y-92015728D01*
X167767861Y-92015728D01*
X167774313Y-92017100D01*
X167965287Y-92017100D01*
X167971739Y-92015728D01*
X167971744Y-92015728D01*
X168058688Y-91997247D01*
X168152088Y-91977394D01*
X168158119Y-91974709D01*
X168320522Y-91902403D01*
X168320524Y-91902402D01*
X168326552Y-91899718D01*
X168481053Y-91787466D01*
X168489450Y-91778140D01*
X168604421Y-91650452D01*
X168604422Y-91650451D01*
X168608840Y-91645544D01*
X168704327Y-91480156D01*
X168763342Y-91298528D01*
X168768266Y-91251685D01*
X168782614Y-91115165D01*
X168783304Y-91108600D01*
X168775949Y-91038624D01*
X168764032Y-90925235D01*
X168764032Y-90925233D01*
X168763342Y-90918672D01*
X168704327Y-90737044D01*
X168608840Y-90571656D01*
X168540401Y-90495646D01*
X168485475Y-90434645D01*
X168485474Y-90434644D01*
X168481053Y-90429734D01*
X168326552Y-90317482D01*
X168320524Y-90314798D01*
X168320522Y-90314797D01*
X168158119Y-90242491D01*
X168158118Y-90242491D01*
X168152088Y-90239806D01*
X168058687Y-90219953D01*
X167971744Y-90201472D01*
X167971739Y-90201472D01*
X167965287Y-90200100D01*
X167774313Y-90200100D01*
X167767861Y-90201472D01*
X167767856Y-90201472D01*
X167680913Y-90219953D01*
X167587512Y-90239806D01*
X167581482Y-90242491D01*
X167581481Y-90242491D01*
X167419078Y-90314797D01*
X167419076Y-90314798D01*
X167413048Y-90317482D01*
X167258547Y-90429734D01*
X167254132Y-90434637D01*
X167249220Y-90439060D01*
X167248095Y-90437811D01*
X167194786Y-90470651D01*
X167161600Y-90475100D01*
X164192208Y-90475100D01*
X164124087Y-90455098D01*
X164077594Y-90401442D01*
X164066208Y-90349169D01*
X164066178Y-90293817D01*
X164066178Y-90293813D01*
X164066177Y-90292194D01*
X164064298Y-90256625D01*
X164063435Y-90240285D01*
X164063434Y-90240273D01*
X164063349Y-90238663D01*
X164060596Y-90212539D01*
X164056079Y-90184047D01*
X164055217Y-90177502D01*
X164045008Y-90080371D01*
X164045008Y-90054028D01*
X164046938Y-90035675D01*
X164055349Y-89955647D01*
X164056205Y-89949142D01*
X164060120Y-89924379D01*
X164060376Y-89922762D01*
X164063130Y-89896493D01*
X164065929Y-89842667D01*
X164065702Y-89432947D01*
X164065671Y-89377027D01*
X164065671Y-89377023D01*
X164065670Y-89375404D01*
X164062841Y-89321860D01*
X164060087Y-89295733D01*
X164059832Y-89294120D01*
X164056311Y-89271860D01*
X164055453Y-89265344D01*
X164045008Y-89165971D01*
X164045008Y-89139629D01*
X164053126Y-89062401D01*
X164056612Y-89029228D01*
X164058670Y-89016232D01*
X164059905Y-89010417D01*
X164062626Y-88984456D01*
X164065423Y-88930645D01*
X164065207Y-88539739D01*
X164065163Y-88460243D01*
X164065163Y-88460239D01*
X164065162Y-88458618D01*
X164062335Y-88405096D01*
X164059681Y-88379907D01*
X164058718Y-88375381D01*
X164056650Y-88362335D01*
X164047056Y-88271055D01*
X164045008Y-88251568D01*
X164045008Y-88225229D01*
X164050745Y-88170653D01*
X164056739Y-88113621D01*
X164058799Y-88100613D01*
X164058835Y-88100442D01*
X164058835Y-88100440D01*
X164059526Y-88097189D01*
X164062120Y-88072444D01*
X164064155Y-88033313D01*
X164064833Y-88020262D01*
X164064833Y-88020256D01*
X164064918Y-88018624D01*
X164064654Y-87541826D01*
X164063105Y-87512513D01*
X164061913Y-87489947D01*
X164061912Y-87489938D01*
X164061825Y-87488286D01*
X164059299Y-87464320D01*
X164058613Y-87461096D01*
X164058098Y-87457847D01*
X164058156Y-87457838D01*
X164056777Y-87449140D01*
X164045008Y-87337171D01*
X164045008Y-87310829D01*
X164056869Y-87197986D01*
X164058061Y-87190466D01*
X164057945Y-87190448D01*
X164058461Y-87187186D01*
X164059147Y-87183956D01*
X164061614Y-87160424D01*
X164064413Y-87106600D01*
X164063772Y-85949031D01*
X164063507Y-85470580D01*
X164063507Y-85470578D01*
X164063505Y-85467209D01*
X164051731Y-85358163D01*
X164040337Y-85305875D01*
X164014303Y-85227719D01*
X164011751Y-85156770D01*
X164047963Y-85095703D01*
X164111443Y-85063908D01*
X164133845Y-85061900D01*
X167073957Y-85061900D01*
X167142078Y-85081902D01*
X167188571Y-85135558D01*
X167199267Y-85174728D01*
X167204858Y-85227928D01*
X167263873Y-85409556D01*
X167267176Y-85415278D01*
X167267177Y-85415279D01*
X167271268Y-85422365D01*
X167359360Y-85574944D01*
X167487147Y-85716866D01*
X167641648Y-85829118D01*
X167647676Y-85831802D01*
X167647678Y-85831803D01*
X167810081Y-85904109D01*
X167816112Y-85906794D01*
X167909513Y-85926647D01*
X167996456Y-85945128D01*
X167996461Y-85945128D01*
X168002913Y-85946500D01*
X168193887Y-85946500D01*
X168200339Y-85945128D01*
X168200344Y-85945128D01*
X168287287Y-85926647D01*
X168380688Y-85906794D01*
X168386719Y-85904109D01*
X168549122Y-85831803D01*
X168549124Y-85831802D01*
X168555152Y-85829118D01*
X168709653Y-85716866D01*
X168837440Y-85574944D01*
X168925532Y-85422365D01*
X168929623Y-85415279D01*
X168929624Y-85415278D01*
X168932927Y-85409556D01*
X168991942Y-85227928D01*
X169011904Y-85038000D01*
X169009591Y-85015994D01*
X168992632Y-84854635D01*
X168992632Y-84854633D01*
X168991942Y-84848072D01*
X168932927Y-84666444D01*
X168837440Y-84501056D01*
X168783764Y-84441442D01*
X168714075Y-84364045D01*
X168714074Y-84364044D01*
X168709653Y-84359134D01*
X168555152Y-84246882D01*
X168549124Y-84244198D01*
X168549122Y-84244197D01*
X168386719Y-84171891D01*
X168386718Y-84171891D01*
X168380688Y-84169206D01*
X168287287Y-84149353D01*
X168200344Y-84130872D01*
X168200339Y-84130872D01*
X168193887Y-84129500D01*
X168137995Y-84129500D01*
X168069874Y-84109498D01*
X168048900Y-84092595D01*
X167992452Y-84036147D01*
X167984912Y-84027861D01*
X167980800Y-84021382D01*
X167954834Y-83996998D01*
X167931149Y-83974757D01*
X167928307Y-83972002D01*
X167908570Y-83952265D01*
X167905373Y-83949785D01*
X167896351Y-83942080D01*
X167882922Y-83929469D01*
X167864121Y-83911814D01*
X167857175Y-83907995D01*
X167857172Y-83907993D01*
X167846366Y-83902052D01*
X167829847Y-83891201D01*
X167829383Y-83890841D01*
X167813841Y-83878786D01*
X167806572Y-83875641D01*
X167806568Y-83875638D01*
X167773263Y-83861226D01*
X167762613Y-83856009D01*
X167723860Y-83834705D01*
X167704237Y-83829667D01*
X167685534Y-83823263D01*
X167674220Y-83818367D01*
X167674219Y-83818367D01*
X167666945Y-83815219D01*
X167659122Y-83813980D01*
X167659112Y-83813977D01*
X167623276Y-83808301D01*
X167611656Y-83805895D01*
X167576511Y-83796872D01*
X167576510Y-83796872D01*
X167568830Y-83794900D01*
X167548576Y-83794900D01*
X167528865Y-83793349D01*
X167516686Y-83791420D01*
X167508857Y-83790180D01*
X167479586Y-83792947D01*
X167464839Y-83794341D01*
X167452981Y-83794900D01*
X152098967Y-83794900D01*
X152087784Y-83794373D01*
X152080291Y-83792698D01*
X152072365Y-83792947D01*
X152072364Y-83792947D01*
X152012201Y-83794838D01*
X152008243Y-83794900D01*
X151980344Y-83794900D01*
X151976354Y-83795404D01*
X151964520Y-83796336D01*
X151920311Y-83797726D01*
X151912697Y-83799938D01*
X151912692Y-83799939D01*
X151900859Y-83803377D01*
X151881496Y-83807388D01*
X151861403Y-83809926D01*
X151854036Y-83812843D01*
X151854031Y-83812844D01*
X151820292Y-83826202D01*
X151809065Y-83830046D01*
X151766607Y-83842382D01*
X151759781Y-83846419D01*
X151749172Y-83852693D01*
X151731424Y-83861388D01*
X151712583Y-83868848D01*
X151706167Y-83873510D01*
X151706166Y-83873510D01*
X151676813Y-83894836D01*
X151666893Y-83901352D01*
X151635665Y-83919820D01*
X151635662Y-83919822D01*
X151628838Y-83923858D01*
X151614517Y-83938179D01*
X151599484Y-83951019D01*
X151583093Y-83962928D01*
X151578043Y-83969032D01*
X151578038Y-83969037D01*
X151554907Y-83996998D01*
X151546917Y-84005779D01*
X150760299Y-84792396D01*
X150697987Y-84826421D01*
X150671204Y-84829300D01*
X148691800Y-84829300D01*
X148688454Y-84829660D01*
X148688449Y-84829660D01*
X148586015Y-84840672D01*
X148586008Y-84840673D01*
X148582651Y-84841034D01*
X148579351Y-84841752D01*
X148579350Y-84841752D01*
X148533590Y-84851706D01*
X148533585Y-84851707D01*
X148530309Y-84852420D01*
X148426143Y-84887090D01*
X148303188Y-84966108D01*
X148249532Y-85012601D01*
X148246592Y-85015994D01*
X148159719Y-85116250D01*
X148159717Y-85116253D01*
X148153818Y-85123061D01*
X148093102Y-85256010D01*
X148073100Y-85324131D01*
X148072460Y-85328580D01*
X148072459Y-85328586D01*
X148059995Y-85415279D01*
X148052300Y-85468800D01*
X148052300Y-98989981D01*
X148055113Y-99043660D01*
X148057803Y-99069252D01*
X148058488Y-99072476D01*
X148058489Y-99072480D01*
X148058910Y-99074463D01*
X148060972Y-99087481D01*
X148071629Y-99188862D01*
X148072592Y-99198028D01*
X148072592Y-99224368D01*
X148065891Y-99288122D01*
X148060972Y-99334919D01*
X148058910Y-99347937D01*
X148058489Y-99349920D01*
X148057803Y-99353148D01*
X148055113Y-99378740D01*
X148052300Y-99432419D01*
X148052300Y-99878981D01*
X148055113Y-99932660D01*
X148057803Y-99958252D01*
X148058488Y-99961476D01*
X148058489Y-99961480D01*
X148058910Y-99963463D01*
X148060972Y-99976481D01*
X148072592Y-100087028D01*
X148072592Y-100113372D01*
X148060972Y-100223919D01*
X148058910Y-100236937D01*
X148058489Y-100238920D01*
X148057803Y-100242148D01*
X148055113Y-100267740D01*
X148052300Y-100321419D01*
X148052300Y-100533000D01*
X144132600Y-100533000D01*
X144132600Y-99444136D01*
X144152602Y-99376015D01*
X144206258Y-99329522D01*
X144276532Y-99319418D01*
X144322171Y-99335348D01*
X144380733Y-99369569D01*
X144483465Y-99429601D01*
X144705952Y-99514560D01*
X144711018Y-99515591D01*
X144711019Y-99515591D01*
X144765356Y-99526646D01*
X144939328Y-99562041D01*
X145073521Y-99566962D01*
X145172160Y-99570579D01*
X145172164Y-99570579D01*
X145177324Y-99570768D01*
X145182444Y-99570112D01*
X145182446Y-99570112D01*
X145408423Y-99541164D01*
X145408424Y-99541164D01*
X145413551Y-99540507D01*
X145496600Y-99515591D01*
X145636716Y-99473554D01*
X145636717Y-99473553D01*
X145641662Y-99472070D01*
X145855533Y-99367295D01*
X145859736Y-99364297D01*
X145859741Y-99364294D01*
X146045216Y-99231996D01*
X146045218Y-99231994D01*
X146049420Y-99228997D01*
X146218116Y-99060889D01*
X146231699Y-99041987D01*
X146267868Y-98991651D01*
X146357090Y-98867486D01*
X146462611Y-98653982D01*
X146531843Y-98426111D01*
X146562929Y-98189992D01*
X146564664Y-98119000D01*
X146545150Y-97881644D01*
X146487131Y-97650663D01*
X146392167Y-97432259D01*
X146262806Y-97232298D01*
X146102524Y-97056150D01*
X146083385Y-97041035D01*
X146042323Y-96983117D01*
X146039093Y-96912194D01*
X146074719Y-96850783D01*
X146100735Y-96832697D01*
X146100449Y-96832217D01*
X146104892Y-96829569D01*
X146109533Y-96827295D01*
X146113736Y-96824297D01*
X146113741Y-96824294D01*
X146299216Y-96691996D01*
X146299218Y-96691994D01*
X146303420Y-96688997D01*
X146472116Y-96520889D01*
X146611090Y-96327486D01*
X146716611Y-96113982D01*
X146785843Y-95886111D01*
X146816929Y-95649992D01*
X146818664Y-95579000D01*
X146799150Y-95341644D01*
X146741131Y-95110663D01*
X146646167Y-94892259D01*
X146596841Y-94816012D01*
X146519616Y-94696642D01*
X146516806Y-94692298D01*
X146356524Y-94516150D01*
X146352473Y-94512951D01*
X146352469Y-94512947D01*
X146173678Y-94371747D01*
X146173673Y-94371744D01*
X146169624Y-94368546D01*
X146165106Y-94366052D01*
X146165100Y-94366048D01*
X146097411Y-94328682D01*
X146047440Y-94278249D01*
X146032668Y-94208806D01*
X146057784Y-94142401D01*
X146069361Y-94129126D01*
X146218116Y-93980889D01*
X146357090Y-93787486D01*
X146462611Y-93573982D01*
X146531843Y-93346111D01*
X146562929Y-93109992D01*
X146564132Y-93060761D01*
X146564582Y-93042365D01*
X146564582Y-93042361D01*
X146564664Y-93039000D01*
X146545150Y-92801644D01*
X146487131Y-92570663D01*
X146392167Y-92352259D01*
X146262806Y-92152298D01*
X146257407Y-92146364D01*
X146211758Y-92096197D01*
X146102524Y-91976150D01*
X146083385Y-91961035D01*
X146042323Y-91903117D01*
X146039093Y-91832194D01*
X146074719Y-91770783D01*
X146100735Y-91752697D01*
X146100449Y-91752217D01*
X146104892Y-91749569D01*
X146109533Y-91747295D01*
X146113736Y-91744297D01*
X146113741Y-91744294D01*
X146299216Y-91611996D01*
X146299218Y-91611994D01*
X146303420Y-91608997D01*
X146472116Y-91440889D01*
X146611090Y-91247486D01*
X146716611Y-91033982D01*
X146785843Y-90806111D01*
X146786518Y-90800985D01*
X146816492Y-90573313D01*
X146816492Y-90573309D01*
X146816929Y-90569992D01*
X146818664Y-90499000D01*
X146799150Y-90261644D01*
X146741131Y-90030663D01*
X146665125Y-89855860D01*
X146648227Y-89816996D01*
X146648225Y-89816993D01*
X146646167Y-89812259D01*
X146596841Y-89736012D01*
X146519616Y-89616642D01*
X146516806Y-89612298D01*
X146496234Y-89589689D01*
X146437432Y-89525067D01*
X146356524Y-89436150D01*
X146352473Y-89432951D01*
X146352469Y-89432947D01*
X146173678Y-89291747D01*
X146173673Y-89291744D01*
X146169624Y-89288546D01*
X146165106Y-89286052D01*
X146165100Y-89286048D01*
X146097411Y-89248682D01*
X146047440Y-89198249D01*
X146032668Y-89128806D01*
X146057784Y-89062401D01*
X146069361Y-89049126D01*
X146218116Y-88900889D01*
X146357090Y-88707486D01*
X146439997Y-88539739D01*
X146460317Y-88498624D01*
X146460318Y-88498622D01*
X146462611Y-88493982D01*
X146531843Y-88266111D01*
X146538053Y-88218940D01*
X146562492Y-88033313D01*
X146562492Y-88033309D01*
X146562929Y-88029992D01*
X146564664Y-87959000D01*
X146545150Y-87721644D01*
X146487131Y-87490663D01*
X146420391Y-87337171D01*
X146394227Y-87276996D01*
X146394225Y-87276993D01*
X146392167Y-87272259D01*
X146320877Y-87162061D01*
X146265616Y-87076642D01*
X146262806Y-87072298D01*
X146102524Y-86896150D01*
X146083385Y-86881035D01*
X146042323Y-86823117D01*
X146039093Y-86752194D01*
X146074719Y-86690783D01*
X146100735Y-86672697D01*
X146100449Y-86672217D01*
X146104892Y-86669569D01*
X146109533Y-86667295D01*
X146113736Y-86664297D01*
X146113741Y-86664294D01*
X146299216Y-86531996D01*
X146299218Y-86531994D01*
X146303420Y-86528997D01*
X146472116Y-86360889D01*
X146611090Y-86167486D01*
X146716611Y-85953982D01*
X146785843Y-85726111D01*
X146816929Y-85489992D01*
X146817337Y-85473296D01*
X146818582Y-85422365D01*
X146818582Y-85422361D01*
X146818664Y-85419000D01*
X146799150Y-85181644D01*
X146741131Y-84950663D01*
X146646167Y-84732259D01*
X146516806Y-84532298D01*
X146512094Y-84527119D01*
X146461250Y-84471243D01*
X146356524Y-84356150D01*
X146352473Y-84352951D01*
X146352469Y-84352947D01*
X146173678Y-84211747D01*
X146173673Y-84211744D01*
X146169624Y-84208546D01*
X146165106Y-84206052D01*
X146165100Y-84206048D01*
X146097411Y-84168682D01*
X146047440Y-84118249D01*
X146032668Y-84048806D01*
X146057784Y-83982401D01*
X146069361Y-83969126D01*
X146218116Y-83820889D01*
X146227818Y-83807388D01*
X146244531Y-83784128D01*
X146357090Y-83627486D01*
X146462611Y-83413982D01*
X146531843Y-83186111D01*
X146562929Y-82949992D01*
X146564664Y-82879000D01*
X146545150Y-82641644D01*
X146487131Y-82410663D01*
X146392167Y-82192259D01*
X146375094Y-82165867D01*
X146265616Y-81996642D01*
X146262806Y-81992298D01*
X146102524Y-81816150D01*
X146098473Y-81812951D01*
X146098469Y-81812947D01*
X145919678Y-81671747D01*
X145919673Y-81671744D01*
X145915624Y-81668546D01*
X145911108Y-81666053D01*
X145911105Y-81666051D01*
X145711650Y-81555946D01*
X145711646Y-81555944D01*
X145707126Y-81553449D01*
X145702257Y-81551725D01*
X145702253Y-81551723D01*
X145487505Y-81475676D01*
X145487501Y-81475675D01*
X145482630Y-81473950D01*
X145477540Y-81473043D01*
X145477535Y-81473042D01*
X145350214Y-81450364D01*
X145248164Y-81432186D01*
X145159037Y-81431097D01*
X145015195Y-81429339D01*
X145015193Y-81429339D01*
X145010025Y-81429276D01*
X144774609Y-81465300D01*
X144548238Y-81539289D01*
X144336990Y-81649258D01*
X144332857Y-81652361D01*
X144332854Y-81652363D01*
X144307037Y-81671747D01*
X144146540Y-81792252D01*
X143982002Y-81964431D01*
X143847794Y-82161172D01*
X143747522Y-82377191D01*
X143683877Y-82606685D01*
X143683328Y-82611819D01*
X143683328Y-82611821D01*
X143677849Y-82663089D01*
X143658570Y-82843494D01*
X143658867Y-82848646D01*
X143658867Y-82848650D01*
X143664902Y-82953313D01*
X143672279Y-83081255D01*
X143673418Y-83086308D01*
X143673418Y-83086310D01*
X143719726Y-83291796D01*
X143715190Y-83362647D01*
X143685904Y-83408591D01*
X143106847Y-83987648D01*
X143098561Y-83995188D01*
X143092082Y-83999300D01*
X143086657Y-84005077D01*
X143045457Y-84048951D01*
X143042702Y-84051793D01*
X143022965Y-84071530D01*
X143020485Y-84074727D01*
X143012782Y-84083747D01*
X142982514Y-84115979D01*
X142978695Y-84122925D01*
X142978693Y-84122928D01*
X142972752Y-84133734D01*
X142961901Y-84150253D01*
X142949486Y-84166259D01*
X142946341Y-84173528D01*
X142946338Y-84173532D01*
X142931926Y-84206837D01*
X142926709Y-84217487D01*
X142905405Y-84256240D01*
X142903434Y-84263915D01*
X142903434Y-84263916D01*
X142900367Y-84275862D01*
X142893963Y-84294566D01*
X142885919Y-84313155D01*
X142884680Y-84320978D01*
X142884677Y-84320988D01*
X142879001Y-84356824D01*
X142876595Y-84368444D01*
X142865600Y-84411270D01*
X142865600Y-84431524D01*
X142864049Y-84451234D01*
X142860880Y-84471243D01*
X141587900Y-84471243D01*
X141587900Y-78696500D01*
X141607902Y-78628379D01*
X141661558Y-78581886D01*
X141713900Y-78570500D01*
X174880900Y-78570500D01*
X174949021Y-78590502D01*
G37*
%TD.AperFunction*%
%TA.AperFunction,Conductor*%
G36*
X163492110Y-85361556D02*
G01*
X163538611Y-85415205D01*
X163550005Y-85467493D01*
X163550913Y-87106884D01*
X163548446Y-87130416D01*
X163547258Y-87134072D01*
X163527296Y-87324000D01*
X163547258Y-87513928D01*
X163548628Y-87518144D01*
X163551154Y-87542110D01*
X163551418Y-88018908D01*
X163548824Y-88043653D01*
X163547258Y-88048472D01*
X163527296Y-88238400D01*
X163547258Y-88428328D01*
X163549008Y-88433713D01*
X163551662Y-88458902D01*
X163551923Y-88930929D01*
X163549202Y-88956890D01*
X163547258Y-88962872D01*
X163527296Y-89152800D01*
X163527986Y-89159365D01*
X163542334Y-89295875D01*
X163547258Y-89342728D01*
X163549298Y-89349005D01*
X163549416Y-89349562D01*
X163552170Y-89375689D01*
X163552359Y-89715962D01*
X163552429Y-89842952D01*
X163549675Y-89869221D01*
X163549299Y-89870992D01*
X163547258Y-89877272D01*
X163527296Y-90067200D01*
X163527986Y-90073765D01*
X163543246Y-90218952D01*
X163547258Y-90257128D01*
X163549296Y-90263400D01*
X163549924Y-90266355D01*
X163552677Y-90292479D01*
X163553698Y-92133792D01*
X163553387Y-92139767D01*
X163553387Y-92143427D01*
X163552696Y-92150000D01*
X163553386Y-92156567D01*
X163553386Y-92159976D01*
X163553716Y-92166236D01*
X163554201Y-93043404D01*
X163553512Y-93056635D01*
X163552696Y-93064400D01*
X163553386Y-93070965D01*
X163553386Y-93070967D01*
X163553534Y-93072375D01*
X163554225Y-93085478D01*
X163558350Y-100531706D01*
X163538386Y-100599838D01*
X163484756Y-100646361D01*
X163432371Y-100657776D01*
X159439139Y-100658364D01*
X157989912Y-100658577D01*
X157921788Y-100638585D01*
X157875287Y-100584936D01*
X157865173Y-100514664D01*
X157889067Y-100457012D01*
X157950795Y-100374648D01*
X157959333Y-100359054D01*
X158004487Y-100238606D01*
X158008114Y-100223351D01*
X158013640Y-100172486D01*
X158014009Y-100165672D01*
X158014009Y-99989115D01*
X158009534Y-99973876D01*
X158008144Y-99972671D01*
X158000461Y-99971000D01*
X155924009Y-99971000D01*
X155855888Y-99950998D01*
X155809395Y-99897342D01*
X155798009Y-99845000D01*
X155798009Y-99444885D01*
X156306009Y-99444885D01*
X156310484Y-99460124D01*
X156311874Y-99461329D01*
X156319557Y-99463000D01*
X156829894Y-99463000D01*
X156845133Y-99458525D01*
X156846338Y-99457135D01*
X156848009Y-99449452D01*
X156848009Y-99444885D01*
X157356009Y-99444885D01*
X157360484Y-99460124D01*
X157361874Y-99461329D01*
X157369557Y-99463000D01*
X157995893Y-99463000D01*
X158011132Y-99458525D01*
X158012337Y-99457135D01*
X158014008Y-99449452D01*
X158014008Y-99268331D01*
X158013638Y-99261510D01*
X158008114Y-99210649D01*
X158006686Y-99204641D01*
X158006688Y-99146353D01*
X158008114Y-99140357D01*
X158013640Y-99089486D01*
X158014009Y-99082672D01*
X158014009Y-98906115D01*
X158009534Y-98890876D01*
X158008144Y-98889671D01*
X158000461Y-98888000D01*
X157374124Y-98888000D01*
X157358885Y-98892475D01*
X157357680Y-98893865D01*
X157356009Y-98901548D01*
X157356009Y-99444885D01*
X156848009Y-99444885D01*
X156848009Y-98906115D01*
X156843534Y-98890876D01*
X156842144Y-98889671D01*
X156834461Y-98888000D01*
X156324124Y-98888000D01*
X156308885Y-98892475D01*
X156307680Y-98893865D01*
X156306009Y-98901548D01*
X156306009Y-99444885D01*
X155798009Y-99444885D01*
X155798009Y-98361885D01*
X156306009Y-98361885D01*
X156310484Y-98377124D01*
X156311874Y-98378329D01*
X156319557Y-98380000D01*
X156829894Y-98380000D01*
X156845133Y-98375525D01*
X156846338Y-98374135D01*
X156848009Y-98366452D01*
X156848009Y-98361885D01*
X157356009Y-98361885D01*
X157360484Y-98377124D01*
X157361874Y-98378329D01*
X157369557Y-98380000D01*
X157995893Y-98380000D01*
X158011132Y-98375525D01*
X158012337Y-98374135D01*
X158014008Y-98366452D01*
X158014008Y-98185331D01*
X158013638Y-98178510D01*
X158008114Y-98127649D01*
X158006686Y-98121641D01*
X158006688Y-98063353D01*
X158008114Y-98057357D01*
X158013640Y-98006486D01*
X158014009Y-97999672D01*
X158014009Y-97823115D01*
X158009534Y-97807876D01*
X158008144Y-97806671D01*
X158000461Y-97805000D01*
X157374124Y-97805000D01*
X157358885Y-97809475D01*
X157357680Y-97810865D01*
X157356009Y-97818548D01*
X157356009Y-98361885D01*
X156848009Y-98361885D01*
X156848009Y-97823115D01*
X156843534Y-97807876D01*
X156842144Y-97806671D01*
X156834461Y-97805000D01*
X156324124Y-97805000D01*
X156308885Y-97809475D01*
X156307680Y-97810865D01*
X156306009Y-97818548D01*
X156306009Y-98361885D01*
X155798009Y-98361885D01*
X155798009Y-97278885D01*
X156306009Y-97278885D01*
X156310484Y-97294124D01*
X156311874Y-97295329D01*
X156319557Y-97297000D01*
X156829894Y-97297000D01*
X156845133Y-97292525D01*
X156846338Y-97291135D01*
X156848009Y-97283452D01*
X156848009Y-97278885D01*
X157356009Y-97278885D01*
X157360484Y-97294124D01*
X157361874Y-97295329D01*
X157369557Y-97297000D01*
X157995893Y-97297000D01*
X158011132Y-97292525D01*
X158012337Y-97291135D01*
X158014008Y-97283452D01*
X158014008Y-97102331D01*
X158013638Y-97095510D01*
X158008114Y-97044648D01*
X158004488Y-97029396D01*
X157959333Y-96908946D01*
X157950795Y-96893351D01*
X157874294Y-96791276D01*
X157861733Y-96778715D01*
X157759658Y-96702214D01*
X157744063Y-96693676D01*
X157623615Y-96648522D01*
X157608360Y-96644895D01*
X157557495Y-96639369D01*
X157550681Y-96639000D01*
X157374124Y-96639000D01*
X157358885Y-96643475D01*
X157357680Y-96644865D01*
X157356009Y-96652548D01*
X157356009Y-97278885D01*
X156848009Y-97278885D01*
X156848009Y-96657116D01*
X156843534Y-96641877D01*
X156842144Y-96640672D01*
X156834461Y-96639001D01*
X156653340Y-96639001D01*
X156646518Y-96639371D01*
X156590616Y-96645442D01*
X156563404Y-96645442D01*
X156507497Y-96639369D01*
X156500681Y-96639000D01*
X156324124Y-96639000D01*
X156308885Y-96643475D01*
X156307680Y-96644865D01*
X156306009Y-96652548D01*
X156306009Y-97278885D01*
X155798009Y-97278885D01*
X155798009Y-96657116D01*
X155793534Y-96641877D01*
X155792144Y-96640672D01*
X155784461Y-96639001D01*
X155603340Y-96639001D01*
X155596519Y-96639371D01*
X155545657Y-96644895D01*
X155530405Y-96648521D01*
X155409955Y-96693676D01*
X155394365Y-96702211D01*
X155320441Y-96757614D01*
X155253934Y-96782461D01*
X155184552Y-96767408D01*
X155134322Y-96717233D01*
X155118876Y-96656791D01*
X155118686Y-90537406D01*
X155138686Y-90469285D01*
X155192340Y-90422790D01*
X155215950Y-90415875D01*
X155215699Y-90414833D01*
X155415501Y-90366681D01*
X155415503Y-90366680D01*
X155421334Y-90365275D01*
X155426792Y-90362793D01*
X155426796Y-90362792D01*
X155541841Y-90310484D01*
X155613887Y-90277726D01*
X155786411Y-90155346D01*
X155932681Y-90002550D01*
X155936488Y-89996655D01*
X155953546Y-89970237D01*
X156007301Y-89923860D01*
X156077597Y-89913907D01*
X156142114Y-89943539D01*
X156158481Y-89960751D01*
X156252404Y-90080320D01*
X156256935Y-90084252D01*
X156256938Y-90084255D01*
X156342858Y-90158812D01*
X156412163Y-90218952D01*
X156417349Y-90221952D01*
X156417353Y-90221955D01*
X156513757Y-90277726D01*
X156595254Y-90324873D01*
X156795071Y-90394261D01*
X156801006Y-90395122D01*
X156801008Y-90395122D01*
X156998464Y-90423752D01*
X156998467Y-90423752D01*
X157004404Y-90424613D01*
X157215699Y-90414833D01*
X157346877Y-90383219D01*
X157415501Y-90366681D01*
X157415503Y-90366680D01*
X157421334Y-90365275D01*
X157426792Y-90362793D01*
X157426796Y-90362792D01*
X157541841Y-90310484D01*
X157613887Y-90277726D01*
X157786411Y-90155346D01*
X157932681Y-90002550D01*
X157936488Y-89996655D01*
X157953546Y-89970237D01*
X158007301Y-89923860D01*
X158077597Y-89913907D01*
X158142114Y-89943539D01*
X158158481Y-89960751D01*
X158252404Y-90080320D01*
X158256935Y-90084252D01*
X158256938Y-90084255D01*
X158342858Y-90158812D01*
X158412163Y-90218952D01*
X158417349Y-90221952D01*
X158417353Y-90221955D01*
X158513757Y-90277726D01*
X158595254Y-90324873D01*
X158795071Y-90394261D01*
X158801006Y-90395122D01*
X158801008Y-90395122D01*
X158998464Y-90423752D01*
X158998467Y-90423752D01*
X159004404Y-90424613D01*
X159215699Y-90414833D01*
X159346877Y-90383219D01*
X159415501Y-90366681D01*
X159415503Y-90366680D01*
X159421334Y-90365275D01*
X159426792Y-90362793D01*
X159426796Y-90362792D01*
X159541841Y-90310484D01*
X159613887Y-90277726D01*
X159786411Y-90155346D01*
X159790549Y-90151023D01*
X159790554Y-90151019D01*
X159877964Y-90059709D01*
X159939520Y-90024333D01*
X160010429Y-90027852D01*
X160068179Y-90069149D01*
X160076126Y-90080537D01*
X160106863Y-90130207D01*
X160115899Y-90141608D01*
X160230629Y-90256139D01*
X160242040Y-90265151D01*
X160380043Y-90350216D01*
X160393224Y-90356363D01*
X160547510Y-90407538D01*
X160560886Y-90410405D01*
X160655238Y-90420072D01*
X160661654Y-90420400D01*
X160786685Y-90420400D01*
X160801924Y-90415925D01*
X160803129Y-90414535D01*
X160804800Y-90406852D01*
X160804800Y-90402284D01*
X161312800Y-90402284D01*
X161317275Y-90417523D01*
X161318665Y-90418728D01*
X161326348Y-90420399D01*
X161455895Y-90420399D01*
X161462414Y-90420062D01*
X161558006Y-90410143D01*
X161571400Y-90407251D01*
X161725584Y-90355812D01*
X161738762Y-90349639D01*
X161876607Y-90264337D01*
X161888008Y-90255301D01*
X162002539Y-90140571D01*
X162011551Y-90129160D01*
X162096616Y-89991157D01*
X162102763Y-89977976D01*
X162153938Y-89823690D01*
X162156805Y-89810314D01*
X162166472Y-89715962D01*
X162166800Y-89709546D01*
X162166800Y-89309515D01*
X162162325Y-89294276D01*
X162160935Y-89293071D01*
X162153252Y-89291400D01*
X161330915Y-89291400D01*
X161315676Y-89295875D01*
X161314471Y-89297265D01*
X161312800Y-89304948D01*
X161312800Y-90402284D01*
X160804800Y-90402284D01*
X160804800Y-88765285D01*
X161312800Y-88765285D01*
X161317275Y-88780524D01*
X161318665Y-88781729D01*
X161326348Y-88783400D01*
X162148684Y-88783400D01*
X162163923Y-88778925D01*
X162165128Y-88777535D01*
X162166799Y-88769852D01*
X162166799Y-88365305D01*
X162166462Y-88358786D01*
X162156543Y-88263194D01*
X162153651Y-88249800D01*
X162102212Y-88095616D01*
X162096039Y-88082438D01*
X162010737Y-87944593D01*
X162001701Y-87933192D01*
X161886971Y-87818661D01*
X161875560Y-87809649D01*
X161737557Y-87724584D01*
X161724376Y-87718437D01*
X161570090Y-87667262D01*
X161556714Y-87664395D01*
X161462362Y-87654728D01*
X161455945Y-87654400D01*
X161330915Y-87654400D01*
X161315676Y-87658875D01*
X161314471Y-87660265D01*
X161312800Y-87667948D01*
X161312800Y-88765285D01*
X160804800Y-88765285D01*
X160804800Y-87672516D01*
X160800325Y-87657277D01*
X160798935Y-87656072D01*
X160791252Y-87654401D01*
X160661705Y-87654401D01*
X160655186Y-87654738D01*
X160559594Y-87664657D01*
X160546200Y-87667549D01*
X160392016Y-87718988D01*
X160378838Y-87725161D01*
X160240993Y-87810463D01*
X160229592Y-87819499D01*
X160115061Y-87934229D01*
X160106049Y-87945640D01*
X160078055Y-87991055D01*
X160025283Y-88038548D01*
X159955211Y-88049972D01*
X159890087Y-88021698D01*
X159871712Y-88002775D01*
X159865196Y-87994480D01*
X159860665Y-87990548D01*
X159860662Y-87990545D01*
X159709967Y-87859779D01*
X159705437Y-87855848D01*
X159700251Y-87852848D01*
X159700247Y-87852845D01*
X159527542Y-87752933D01*
X159522346Y-87749927D01*
X159322529Y-87680539D01*
X159316594Y-87679678D01*
X159316592Y-87679678D01*
X159119136Y-87651048D01*
X159119133Y-87651048D01*
X159113196Y-87650187D01*
X158901901Y-87659967D01*
X158770723Y-87691581D01*
X158702099Y-87708119D01*
X158702097Y-87708120D01*
X158696266Y-87709525D01*
X158690808Y-87712007D01*
X158690804Y-87712008D01*
X158575759Y-87764316D01*
X158503713Y-87797074D01*
X158331189Y-87919454D01*
X158184919Y-88072250D01*
X158181666Y-88077288D01*
X158164054Y-88104563D01*
X158110299Y-88150940D01*
X158040003Y-88160893D01*
X157975486Y-88131261D01*
X157959117Y-88114047D01*
X157944640Y-88095616D01*
X157865196Y-87994480D01*
X157860665Y-87990548D01*
X157860662Y-87990545D01*
X157709967Y-87859779D01*
X157705437Y-87855848D01*
X157700251Y-87852848D01*
X157700247Y-87852845D01*
X157527542Y-87752933D01*
X157522346Y-87749927D01*
X157322529Y-87680539D01*
X157316594Y-87679678D01*
X157316592Y-87679678D01*
X157119136Y-87651048D01*
X157119133Y-87651048D01*
X157113196Y-87650187D01*
X156901901Y-87659967D01*
X156770723Y-87691581D01*
X156702099Y-87708119D01*
X156702097Y-87708120D01*
X156696266Y-87709525D01*
X156690808Y-87712007D01*
X156690804Y-87712008D01*
X156575759Y-87764316D01*
X156503713Y-87797074D01*
X156331189Y-87919454D01*
X156184919Y-88072250D01*
X156181666Y-88077288D01*
X156164054Y-88104563D01*
X156110299Y-88150940D01*
X156040003Y-88160893D01*
X155975486Y-88131261D01*
X155959117Y-88114047D01*
X155944640Y-88095616D01*
X155865196Y-87994480D01*
X155860665Y-87990548D01*
X155860662Y-87990545D01*
X155709967Y-87859779D01*
X155705437Y-87855848D01*
X155700251Y-87852848D01*
X155700247Y-87852845D01*
X155527542Y-87752933D01*
X155522346Y-87749927D01*
X155322529Y-87680539D01*
X155235691Y-87667948D01*
X155226512Y-87666617D01*
X155161967Y-87637047D01*
X155123655Y-87577275D01*
X155118593Y-87541925D01*
X155118528Y-85468773D01*
X155138528Y-85400652D01*
X155192182Y-85354157D01*
X155244507Y-85342769D01*
X159308969Y-85342170D01*
X163423986Y-85341564D01*
X163492110Y-85361556D01*
G37*
%TD.AperFunction*%
%TA.AperFunction,Conductor*%
G36*
X154547149Y-85362802D02*
G01*
X154593642Y-85416458D01*
X154605028Y-85468796D01*
X154605093Y-87541941D01*
X154610278Y-87614714D01*
X154610597Y-87616941D01*
X154614895Y-87646961D01*
X154604750Y-87717229D01*
X154558226Y-87770858D01*
X154542319Y-87779520D01*
X154509173Y-87794591D01*
X154509169Y-87794593D01*
X154503713Y-87797074D01*
X154331189Y-87919454D01*
X154184919Y-88072250D01*
X154181666Y-88077288D01*
X154164054Y-88104563D01*
X154110299Y-88150940D01*
X154040003Y-88160893D01*
X153975486Y-88131261D01*
X153959117Y-88114047D01*
X153930485Y-88077596D01*
X153865196Y-87994480D01*
X153860665Y-87990548D01*
X153860662Y-87990545D01*
X153709967Y-87859779D01*
X153705437Y-87855848D01*
X153700251Y-87852848D01*
X153700247Y-87852845D01*
X153527542Y-87752933D01*
X153522346Y-87749927D01*
X153322529Y-87680539D01*
X153316594Y-87679678D01*
X153316592Y-87679678D01*
X153119136Y-87651048D01*
X153119133Y-87651048D01*
X153113196Y-87650187D01*
X152901901Y-87659967D01*
X152789266Y-87687112D01*
X152702099Y-87708119D01*
X152702097Y-87708120D01*
X152696266Y-87709525D01*
X152690808Y-87712007D01*
X152690804Y-87712008D01*
X152599790Y-87753390D01*
X152503713Y-87797074D01*
X152331189Y-87919454D01*
X152184919Y-88072250D01*
X152181670Y-88077281D01*
X152181665Y-88077288D01*
X152163767Y-88105007D01*
X152110011Y-88151384D01*
X152039715Y-88161337D01*
X151975198Y-88131704D01*
X151958830Y-88114491D01*
X151868538Y-87999543D01*
X151860301Y-87990894D01*
X151709677Y-87860188D01*
X151699953Y-87853253D01*
X151527333Y-87753390D01*
X151516469Y-87748416D01*
X151328073Y-87682993D01*
X151327084Y-87682752D01*
X151316792Y-87684220D01*
X151312800Y-87697785D01*
X151312800Y-90372802D01*
X151316773Y-90386333D01*
X151326199Y-90387688D01*
X151415337Y-90366206D01*
X151426632Y-90362317D01*
X151608182Y-90279771D01*
X151618524Y-90273824D01*
X151781197Y-90158432D01*
X151790225Y-90150639D01*
X151928142Y-90006569D01*
X151935541Y-89997200D01*
X151953218Y-89969823D01*
X152006972Y-89923445D01*
X152077268Y-89913491D01*
X152141785Y-89943122D01*
X152158156Y-89960337D01*
X152252404Y-90080320D01*
X152256935Y-90084252D01*
X152256938Y-90084255D01*
X152342420Y-90158432D01*
X152412163Y-90218952D01*
X152417349Y-90221952D01*
X152417353Y-90221955D01*
X152513757Y-90277726D01*
X152595254Y-90324873D01*
X152795071Y-90394261D01*
X152801006Y-90395122D01*
X152801008Y-90395122D01*
X152998464Y-90423752D01*
X152998467Y-90423752D01*
X153004404Y-90424613D01*
X153215699Y-90414833D01*
X153346877Y-90383219D01*
X153415501Y-90366681D01*
X153415503Y-90366680D01*
X153421334Y-90365275D01*
X153426792Y-90362793D01*
X153426796Y-90362792D01*
X153582066Y-90292194D01*
X153613887Y-90277726D01*
X153786411Y-90155346D01*
X153932681Y-90002550D01*
X153936488Y-89996655D01*
X153953546Y-89970237D01*
X154007301Y-89923860D01*
X154077597Y-89913907D01*
X154142114Y-89943539D01*
X154158481Y-89960751D01*
X154252404Y-90080320D01*
X154256935Y-90084252D01*
X154256938Y-90084255D01*
X154342420Y-90158432D01*
X154412163Y-90218952D01*
X154417349Y-90221952D01*
X154417353Y-90221955D01*
X154485381Y-90261310D01*
X154558887Y-90303834D01*
X154607834Y-90355258D01*
X154620509Y-90430825D01*
X154605186Y-90537422D01*
X154605186Y-90541919D01*
X154605371Y-96512996D01*
X154585371Y-96581117D01*
X154531717Y-96627612D01*
X154479371Y-96639000D01*
X154474124Y-96639000D01*
X154458885Y-96643475D01*
X154457680Y-96644865D01*
X154456009Y-96652548D01*
X154456009Y-99845000D01*
X154436007Y-99913121D01*
X154382351Y-99959614D01*
X154330009Y-99971000D01*
X152258125Y-99971000D01*
X152242886Y-99975475D01*
X152241681Y-99976865D01*
X152240010Y-99984548D01*
X152240010Y-100165669D01*
X152240380Y-100172490D01*
X152245904Y-100223352D01*
X152249530Y-100238604D01*
X152294685Y-100359054D01*
X152303223Y-100374648D01*
X152365268Y-100457435D01*
X152390116Y-100523941D01*
X152375063Y-100593324D01*
X152324889Y-100643554D01*
X152264442Y-100659000D01*
X148691800Y-100659000D01*
X148623679Y-100638998D01*
X148577186Y-100585342D01*
X148565800Y-100533000D01*
X148565800Y-100321419D01*
X148568490Y-100295827D01*
X148570342Y-100290128D01*
X148590304Y-100100200D01*
X148570342Y-99910272D01*
X148568490Y-99904573D01*
X148565800Y-99878981D01*
X148565800Y-99444885D01*
X152240009Y-99444885D01*
X152244484Y-99460124D01*
X152245874Y-99461329D01*
X152253557Y-99463000D01*
X152879894Y-99463000D01*
X152895133Y-99458525D01*
X152896338Y-99457135D01*
X152898009Y-99449452D01*
X152898009Y-99444885D01*
X153406009Y-99444885D01*
X153410484Y-99460124D01*
X153411874Y-99461329D01*
X153419557Y-99463000D01*
X153929894Y-99463000D01*
X153945133Y-99458525D01*
X153946338Y-99457135D01*
X153948009Y-99449452D01*
X153948009Y-98906115D01*
X153943534Y-98890876D01*
X153942144Y-98889671D01*
X153934461Y-98888000D01*
X153424124Y-98888000D01*
X153408885Y-98892475D01*
X153407680Y-98893865D01*
X153406009Y-98901548D01*
X153406009Y-99444885D01*
X152898009Y-99444885D01*
X152898009Y-98906115D01*
X152893534Y-98890876D01*
X152892144Y-98889671D01*
X152884461Y-98888000D01*
X152258125Y-98888000D01*
X152242886Y-98892475D01*
X152241681Y-98893865D01*
X152240010Y-98901548D01*
X152240010Y-99082669D01*
X152240380Y-99089490D01*
X152245904Y-99140354D01*
X152247331Y-99146356D01*
X152247331Y-99204644D01*
X152245904Y-99210646D01*
X152240378Y-99261514D01*
X152240009Y-99268328D01*
X152240009Y-99444885D01*
X148565800Y-99444885D01*
X148565800Y-99432419D01*
X148568490Y-99406827D01*
X148570342Y-99401128D01*
X148590304Y-99211200D01*
X148570342Y-99021272D01*
X148568490Y-99015573D01*
X148565800Y-98989981D01*
X148565800Y-98361885D01*
X152240009Y-98361885D01*
X152244484Y-98377124D01*
X152245874Y-98378329D01*
X152253557Y-98380000D01*
X152879894Y-98380000D01*
X152895133Y-98375525D01*
X152896338Y-98374135D01*
X152898009Y-98366452D01*
X152898009Y-98361885D01*
X153406009Y-98361885D01*
X153410484Y-98377124D01*
X153411874Y-98378329D01*
X153419557Y-98380000D01*
X153929894Y-98380000D01*
X153945133Y-98375525D01*
X153946338Y-98374135D01*
X153948009Y-98366452D01*
X153948009Y-97823115D01*
X153943534Y-97807876D01*
X153942144Y-97806671D01*
X153934461Y-97805000D01*
X153424124Y-97805000D01*
X153408885Y-97809475D01*
X153407680Y-97810865D01*
X153406009Y-97818548D01*
X153406009Y-98361885D01*
X152898009Y-98361885D01*
X152898009Y-97823115D01*
X152893534Y-97807876D01*
X152892144Y-97806671D01*
X152884461Y-97805000D01*
X152258125Y-97805000D01*
X152242886Y-97809475D01*
X152241681Y-97810865D01*
X152240010Y-97818548D01*
X152240010Y-97999669D01*
X152240380Y-98006490D01*
X152245904Y-98057354D01*
X152247331Y-98063356D01*
X152247331Y-98121644D01*
X152245904Y-98127646D01*
X152240378Y-98178514D01*
X152240009Y-98185328D01*
X152240009Y-98361885D01*
X148565800Y-98361885D01*
X148565800Y-97278885D01*
X152240009Y-97278885D01*
X152244484Y-97294124D01*
X152245874Y-97295329D01*
X152253557Y-97297000D01*
X152879894Y-97297000D01*
X152895133Y-97292525D01*
X152896338Y-97291135D01*
X152898009Y-97283452D01*
X152898009Y-97278885D01*
X153406009Y-97278885D01*
X153410484Y-97294124D01*
X153411874Y-97295329D01*
X153419557Y-97297000D01*
X153929894Y-97297000D01*
X153945133Y-97292525D01*
X153946338Y-97291135D01*
X153948009Y-97283452D01*
X153948009Y-96657116D01*
X153943534Y-96641877D01*
X153942144Y-96640672D01*
X153934461Y-96639001D01*
X153753340Y-96639001D01*
X153746518Y-96639371D01*
X153690616Y-96645442D01*
X153663404Y-96645442D01*
X153607497Y-96639369D01*
X153600681Y-96639000D01*
X153424124Y-96639000D01*
X153408885Y-96643475D01*
X153407680Y-96644865D01*
X153406009Y-96652548D01*
X153406009Y-97278885D01*
X152898009Y-97278885D01*
X152898009Y-96657116D01*
X152893534Y-96641877D01*
X152892144Y-96640672D01*
X152884461Y-96639001D01*
X152703340Y-96639001D01*
X152696519Y-96639371D01*
X152645657Y-96644895D01*
X152630405Y-96648521D01*
X152509955Y-96693676D01*
X152494360Y-96702214D01*
X152392285Y-96778715D01*
X152379724Y-96791276D01*
X152303223Y-96893351D01*
X152294685Y-96908946D01*
X152249531Y-97029394D01*
X152245904Y-97044649D01*
X152240378Y-97095514D01*
X152240009Y-97102328D01*
X152240009Y-97278885D01*
X148565800Y-97278885D01*
X148565800Y-89362232D01*
X149950800Y-89362232D01*
X149951085Y-89368208D01*
X149965271Y-89516894D01*
X149967530Y-89528628D01*
X150023672Y-89719999D01*
X150028102Y-89731075D01*
X150119419Y-89908378D01*
X150125869Y-89918424D01*
X150249062Y-90075257D01*
X150257299Y-90083906D01*
X150407923Y-90214612D01*
X150417647Y-90221547D01*
X150590267Y-90321410D01*
X150601131Y-90326384D01*
X150789527Y-90391807D01*
X150790516Y-90392048D01*
X150800808Y-90390580D01*
X150804800Y-90377015D01*
X150804800Y-89309515D01*
X150800325Y-89294276D01*
X150798935Y-89293071D01*
X150791252Y-89291400D01*
X149968915Y-89291400D01*
X149953676Y-89295875D01*
X149952471Y-89297265D01*
X149950800Y-89304948D01*
X149950800Y-89362232D01*
X148565800Y-89362232D01*
X148565800Y-88765285D01*
X149950800Y-88765285D01*
X149955275Y-88780524D01*
X149956665Y-88781729D01*
X149964348Y-88783400D01*
X150786685Y-88783400D01*
X150801924Y-88778925D01*
X150803129Y-88777535D01*
X150804800Y-88769852D01*
X150804800Y-87701998D01*
X150800827Y-87688467D01*
X150791401Y-87687112D01*
X150702263Y-87708594D01*
X150690968Y-87712483D01*
X150509418Y-87795029D01*
X150499076Y-87800976D01*
X150336403Y-87916368D01*
X150327375Y-87924161D01*
X150189458Y-88068231D01*
X150182062Y-88077596D01*
X150073879Y-88245141D01*
X150068383Y-88255745D01*
X149993839Y-88440712D01*
X149990445Y-88452170D01*
X149951943Y-88649328D01*
X149950866Y-88658191D01*
X149950800Y-88660900D01*
X149950800Y-88765285D01*
X148565800Y-88765285D01*
X148565800Y-85468800D01*
X148585802Y-85400679D01*
X148639458Y-85354186D01*
X148691800Y-85342800D01*
X154479028Y-85342800D01*
X154547149Y-85362802D01*
G37*
%TD.AperFunction*%
M02*
